<?xml version="1.0" encoding="UTF-8"?>
<svg id="Layer_2" data-name="Layer 2" xmlns="http://www.w3.org/2000/svg" viewBox="0 0 147.13 109.32">
  <defs>
    <style>
      .cls-1 {
        fill: #006f00;
      }

      .cls-2 {
        fill: #0061c2;
      }

      .cls-3 {
        fill: #e7a2a3;
      }

      .cls-4 {
        fill: #aa332f;
      }

      .cls-5 {
        fill: #231f20;
      }

      .cls-6 {
        fill: none;
        stroke: #aa332f;
        stroke-miterlimit: 10;
      }

      .cls-7 {
        fill: #79bd8c;
      }

      .cls-7, .cls-8 {
        opacity: .47;
      }

      .cls-8 {
        fill: #6a9dee;
      }
    </style>
  </defs>
  <g id="Layer_1-2" data-name="Layer 1">
    <path class="cls-8" d="M60.27,44.37c0,12.03,4.9,22.93,12.81,30.8-7.76,7.25-18.19,11.69-29.64,11.69C19.45,86.86,0,67.42,0,43.43S19.45,0,43.44,0c11.94,0,22.76,4.82,30.61,12.63-8.48,7.93-13.78,19.21-13.78,31.74Z"/>
    <path class="cls-3" d="M86.87,43.43c0,12.53-5.31,23.82-13.79,31.74-7.91-7.87-12.81-18.77-12.81-30.8s5.3-23.81,13.78-31.74c7.92,7.86,12.82,18.76,12.82,30.8Z"/>
    <path class="cls-7" d="M147.13,44.37c0,23.98-19.44,43.43-43.43,43.43-11.95,0-22.77-4.82-30.62-12.63,8.48-7.92,13.79-19.21,13.79-31.74s-4.9-22.94-12.82-30.8C81.81,5.37,92.24,.93,103.7,.93c23.99,0,43.43,19.45,43.43,43.44Z"/>
    <g>
      <path class="cls-2" d="M13.9,37.21c-.29,1.13-1.13,1.97-2.64,1.97-1.98,0-2.96-1.48-2.96-3.33s.99-3.39,3-3.39c1.58,0,2.42,.91,2.6,2h-.97c-.22-.67-.66-1.2-1.67-1.2-1.39,0-1.95,1.26-1.95,2.56s.53,2.57,1.99,2.57c.99,0,1.41-.59,1.63-1.17h.97Z"/>
      <path class="cls-2" d="M18.6,38.01c0,.44,.04,.95,.07,1.08h-.88c-.04-.1-.07-.34-.08-.6-.17,.31-.54,.71-1.45,.71-1.13,0-1.62-.74-1.62-1.47,0-1.07,.85-1.57,2.27-1.57h.79v-.39c0-.41-.13-.89-.97-.89-.75,0-.89,.37-.97,.74h-.89c.07-.7,.5-1.45,1.89-1.44,1.19,0,1.85,.49,1.85,1.59v2.24Zm-.9-1.22h-.73c-.93,0-1.4,.26-1.4,.89,0,.47,.32,.82,.89,.82,1.09,0,1.24-.74,1.24-1.56v-.15Z"/>
      <path class="cls-2" d="M20.9,38.54v2.43h-.92v-5.5c0-.39,0-.79,0-1.17h.9c.02,.15,.03,.45,.03,.72,.25-.46,.72-.84,1.53-.84,1.1,0,1.91,.92,1.91,2.39,0,1.71-.92,2.63-2.08,2.63-.76,0-1.15-.31-1.36-.67Zm2.5-1.92c0-.99-.44-1.65-1.22-1.65-.95,0-1.31,.6-1.31,1.73s.31,1.75,1.25,1.75c.84,0,1.29-.69,1.29-1.83Z"/>
      <path class="cls-2" d="M29.03,38.01c0,.44,.04,.95,.07,1.08h-.88c-.04-.1-.07-.34-.08-.6-.17,.31-.54,.71-1.45,.71-1.13,0-1.62-.74-1.62-1.47,0-1.07,.85-1.57,2.27-1.57h.79v-.39c0-.41-.13-.89-.97-.89-.75,0-.89,.37-.97,.74h-.89c.07-.7,.5-1.45,1.89-1.44,1.19,0,1.85,.49,1.85,1.59v2.24Zm-.9-1.22h-.73c-.93,0-1.4,.26-1.4,.89,0,.47,.32,.82,.89,.82,1.09,0,1.24-.74,1.24-1.56v-.15Z"/>
      <path class="cls-2" d="M30.42,32.19h.92v2.76c.21-.39,.64-.76,1.5-.76,1.22,0,1.96,1.01,1.96,2.41s-.73,2.6-2.09,2.6c-.76,0-1.14-.27-1.38-.71,0,.23-.02,.47-.04,.6h-.89c0-.53,0-1.07,0-1.6v-5.3Zm3.43,4.43c0-.99-.44-1.66-1.25-1.66-.97,0-1.31,.65-1.31,1.75,0,.96,.3,1.72,1.27,1.72,.81,0,1.28-.7,1.28-1.82Z"/>
      <path class="cls-2" d="M35.86,32.19h.92v1.06h-.92v-1.06Zm0,2.11h.92v4.79h-.92v-4.79Z"/>
      <path class="cls-2" d="M38.16,39.1v-6.9h.92v6.9h-.92Z"/>
      <path class="cls-2" d="M40.46,32.19h.92v1.06h-.92v-1.06Zm0,2.11h.92v4.79h-.92v-4.79Z"/>
      <path class="cls-2" d="M42.21,34.3h.81v-1.39h.92v1.39h1.03v.74h-1.03v2.72c0,.45,.11,.67,.54,.67,.11,0,.27,0,.4-.04v.68c-.22,.08-.51,.09-.75,.09-.78,0-1.11-.41-1.11-1.21v-2.91h-.81v-.74Z"/>
      <path class="cls-2" d="M45.82,32.19h.92v1.06h-.92v-1.06Zm0,2.11h.92v4.79h-.92v-4.79Z"/>
      <path class="cls-2" d="M48.73,36.88c0,.9,.46,1.57,1.24,1.57,.72,0,.95-.36,1.09-.7h.93c-.18,.61-.7,1.46-2.05,1.46-1.52,0-2.15-1.22-2.15-2.46,0-1.44,.73-2.56,2.2-2.56,1.57,0,2.08,1.23,2.08,2.29,0,.15,0,.27-.01,.4h-3.34Zm2.42-.63c0-.74-.37-1.35-1.16-1.35s-1.15,.56-1.23,1.35h2.39Z"/>
      <path class="cls-2" d="M53.68,37.71c.13,.5,.5,.79,1.12,.79,.66,0,.92-.28,.92-.69s-.22-.61-1.09-.82c-1.41-.34-1.69-.78-1.69-1.43s.5-1.37,1.77-1.37,1.78,.73,1.84,1.4h-.89c-.06-.29-.28-.7-.99-.7-.63,0-.81,.3-.81,.59,0,.33,.19,.5,1.05,.7,1.48,.35,1.76,.85,1.76,1.56,0,.83-.65,1.46-1.9,1.46s-1.89-.64-2.01-1.5h.92Z"/>
      <path class="cls-2" d="M22.17,48.52l-.67,1.88h-.96l2.31-6.54h1.2l2.41,6.54h-1.03l-.69-1.88h-2.57Zm2.33-.82c-.59-1.65-.93-2.56-1.07-3.08h0c-.16,.57-.53,1.66-1.01,3.08h2.09Z"/>
      <path class="cls-2" d="M27.34,46.91c0-.63,0-1.02,0-1.3h.91c.01,.13,.03,.53,.03,.95,.24-.63,.8-1.04,1.6-1.06v.91c-.98,.02-1.6,.48-1.6,1.71v2.28h-.92v-3.49Z"/>
      <path class="cls-2" d="M31.26,48.18c0,.9,.46,1.57,1.24,1.57,.72,0,.95-.36,1.09-.7h.93c-.18,.61-.7,1.46-2.05,1.46-1.52,0-2.15-1.22-2.15-2.46,0-1.44,.73-2.56,2.2-2.56,1.57,0,2.08,1.23,2.08,2.29,0,.15,0,.27-.01,.4h-3.34Zm2.42-.63c0-.74-.37-1.35-1.16-1.35s-1.15,.56-1.23,1.35h2.39Z"/>
      <path class="cls-2" d="M39.29,49.32c0,.44,.04,.95,.07,1.08h-.88c-.04-.1-.07-.34-.08-.6-.17,.31-.54,.71-1.45,.71-1.13,0-1.62-.74-1.62-1.47,0-1.07,.85-1.57,2.27-1.57h.79v-.39c0-.41-.13-.89-.97-.89-.75,0-.89,.37-.97,.74h-.89c.07-.7,.5-1.45,1.89-1.44,1.19,0,1.85,.49,1.85,1.59v2.24Zm-.9-1.22h-.73c-.93,0-1.4,.26-1.4,.89,0,.47,.32,.82,.89,.82,1.09,0,1.24-.74,1.24-1.56v-.15Z"/>
      <path class="cls-2" d="M41.12,49.01c.13,.5,.5,.79,1.12,.79,.66,0,.92-.28,.92-.69s-.22-.61-1.09-.82c-1.41-.34-1.69-.78-1.69-1.43s.5-1.37,1.77-1.37,1.78,.73,1.84,1.4h-.89c-.06-.29-.28-.7-.99-.7-.63,0-.81,.3-.81,.59,0,.33,.19,.5,1.05,.7,1.48,.35,1.76,.85,1.76,1.56,0,.83-.65,1.46-1.9,1.46s-1.89-.64-2.01-1.5h.92Z"/>
    </g>
    <g>
      <path class="cls-1" d="M104.99,37.28c.16,.7,.64,1.07,1.48,1.07,.89,0,1.25-.41,1.25-.96,0-.58-.3-.9-1.47-1.18-1.46-.35-1.94-.86-1.94-1.7,0-.92,.68-1.65,2.05-1.65,1.47,0,2.07,.84,2.15,1.65h-.91c-.1-.5-.41-.94-1.27-.94-.7,0-1.09,.31-1.09,.86s.32,.75,1.37,1c1.73,.42,2.04,1.08,2.04,1.87,0,1-.74,1.76-2.24,1.76s-2.2-.81-2.33-1.77h.91Z"/>
      <path class="cls-1" d="M113.05,37.97c0,.41,.03,.88,.06,1h-.82c-.03-.1-.06-.31-.07-.55-.16,.29-.5,.65-1.34,.65-1.05,0-1.49-.68-1.49-1.36,0-.99,.78-1.44,2.09-1.44h.73v-.36c0-.38-.12-.82-.9-.82-.7,0-.82,.34-.89,.68h-.82c.06-.64,.46-1.33,1.74-1.33,1.1,0,1.71,.45,1.71,1.46v2.06Zm-.83-1.13h-.67c-.85,0-1.29,.24-1.29,.83,0,.43,.29,.75,.82,.75,1.01,0,1.14-.68,1.14-1.44v-.14Z"/>
      <path class="cls-1" d="M114.42,38.97v-3.74h-.7v-.68h.7v-.5c0-.83,.34-1.53,1.31-1.53,.17,0,.4,.02,.5,.06v.71c-.1-.02-.25-.04-.36-.04-.44,0-.6,.25-.6,.86v.45h.86v.68h-.86v3.74h-.85Z"/>
      <path class="cls-1" d="M117.32,36.92c0,.83,.42,1.45,1.15,1.45,.66,0,.87-.33,1.01-.64h.86c-.17,.56-.65,1.34-1.89,1.34-1.4,0-1.98-1.12-1.98-2.26,0-1.33,.67-2.36,2.03-2.36,1.44,0,1.92,1.13,1.92,2.11,0,.14,0,.25-.01,.37h-3.08Zm2.23-.58c0-.69-.34-1.24-1.07-1.24s-1.06,.51-1.13,1.24h2.2Z"/>
      <path class="cls-1" d="M120.85,34.55h.75v-1.28h.85v1.28h.95v.68h-.95v2.51c0,.41,.1,.61,.5,.61,.1,0,.25,0,.36-.03v.63c-.2,.07-.47,.08-.69,.08-.72,0-1.02-.38-1.02-1.12v-2.68h-.75v-.68Z"/>
      <path class="cls-1" d="M124.8,34.55c.66,2,1.06,3.21,1.17,3.65h0c.13-.49,.44-1.5,1.12-3.65h.86l-1.57,4.61c-.44,1.29-.78,1.63-1.72,1.63-.13,0-.32,0-.49-.03v-.73c.11,.01,.24,.02,.36,.02,.54,0,.75-.23,1-.92l-1.65-4.58h.92Z"/>
      <path class="cls-1" d="M106.45,47.67l-.61,1.73h-.89l2.13-6.03h1.11l2.22,6.03h-.95l-.64-1.73h-2.37Zm2.15-.76c-.55-1.53-.85-2.36-.99-2.84h0c-.15,.53-.49,1.53-.93,2.84h1.93Z"/>
      <path class="cls-1" d="M111.22,46.18c0-.58,0-.94,0-1.2h.84c.01,.12,.03,.48,.03,.88,.22-.58,.74-.96,1.48-.98v.84c-.9,.02-1.48,.45-1.48,1.58v2.1h-.85v-3.22Z"/>
      <path class="cls-1" d="M114.83,47.35c0,.83,.42,1.45,1.15,1.45,.66,0,.87-.33,1.01-.64h.86c-.17,.56-.65,1.34-1.89,1.34-1.4,0-1.98-1.12-1.98-2.26,0-1.33,.67-2.37,2.03-2.37,1.44,0,1.92,1.14,1.92,2.11,0,.14,0,.25-.01,.37h-3.08Zm2.23-.58c0-.69-.34-1.24-1.07-1.24s-1.06,.51-1.13,1.24h2.2Z"/>
      <path class="cls-1" d="M122.24,48.4c0,.41,.03,.88,.06,1h-.82c-.04-.1-.06-.31-.07-.55-.16,.29-.5,.65-1.34,.65-1.05,0-1.49-.68-1.49-1.36,0-.99,.78-1.44,2.09-1.44h.73v-.36c0-.38-.12-.82-.9-.82-.7,0-.82,.34-.89,.68h-.82c.06-.64,.46-1.33,1.74-1.33,1.1,0,1.71,.45,1.71,1.46v2.06Zm-.83-1.13h-.67c-.85,0-1.29,.24-1.29,.82,0,.43,.29,.75,.82,.75,1.01,0,1.14-.68,1.14-1.44v-.14Z"/>
      <path class="cls-1" d="M123.92,48.12c.12,.46,.46,.72,1.04,.72,.61,0,.85-.26,.85-.63s-.2-.56-1-.76c-1.3-.32-1.56-.71-1.56-1.32s.46-1.26,1.63-1.26,1.64,.67,1.7,1.29h-.82c-.06-.26-.25-.64-.91-.64-.58,0-.75,.28-.75,.55,0,.31,.17,.46,.96,.65,1.37,.32,1.62,.78,1.62,1.44,0,.77-.6,1.35-1.75,1.35s-1.74-.59-1.85-1.38h.84Z"/>
    </g>
    <g>
      <path class="cls-4" d="M50.12,92.01v5.71h-.85v-5.71h.85Z"/>
      <path class="cls-4" d="M51.37,94.59c0-.36,0-.73,0-1.06h.79c.02,.12,.03,.53,.03,.66,.16-.34,.5-.76,1.3-.76s1.4,.5,1.4,1.6v2.69h-.81v-2.59c0-.6-.23-1.01-.84-1.01-.73,0-1.04,.54-1.04,1.36v2.24h-.81v-3.13Z"/>
      <path class="cls-4" d="M55.5,93.54h.71v-1.22h.81v1.22h.9v.64h-.9v2.38c0,.39,.1,.58,.47,.58,.09,0,.24,0,.34-.03v.59c-.19,.07-.45,.08-.66,.08-.68,0-.97-.36-.97-1.06v-2.54h-.71v-.64Z"/>
      <path class="cls-4" d="M59.16,95.79c0,.79,.4,1.38,1.09,1.38,.63,0,.83-.31,.96-.61h.81c-.16,.53-.61,1.27-1.79,1.27-1.33,0-1.88-1.06-1.88-2.14,0-1.26,.64-2.24,1.92-2.24,1.37,0,1.82,1.08,1.82,2,0,.13,0,.23-.01,.35h-2.92Zm2.11-.55c0-.65-.33-1.17-1.01-1.17s-1.01,.49-1.07,1.17h2.08Z"/>
      <path class="cls-4" d="M63,94.68c0-.55,0-.89,0-1.14h.79c.01,.11,.02,.46,.02,.83,.21-.55,.7-.91,1.4-.93v.79c-.86,.02-1.4,.42-1.4,1.5v1.99h-.81v-3.05Z"/>
      <path class="cls-4" d="M66.42,96.52c.11,.43,.44,.69,.98,.69,.58,0,.8-.24,.8-.6s-.19-.54-.95-.72c-1.23-.3-1.47-.68-1.47-1.25s.43-1.2,1.55-1.2,1.56,.64,1.61,1.22h-.78c-.05-.25-.24-.61-.86-.61-.55,0-.71,.26-.71,.52,0,.29,.16,.44,.91,.62,1.29,.3,1.54,.74,1.54,1.36,0,.73-.57,1.28-1.66,1.28s-1.65-.56-1.75-1.31h.8Z"/>
      <path class="cls-4" d="M70.48,95.79c0,.79,.4,1.38,1.09,1.38,.63,0,.83-.31,.96-.61h.81c-.16,.53-.61,1.27-1.79,1.27-1.33,0-1.88-1.06-1.88-2.14,0-1.26,.64-2.24,1.92-2.24,1.37,0,1.82,1.08,1.82,2,0,.13,0,.23-.01,.35h-2.92Zm2.11-.55c0-.65-.33-1.17-1.01-1.17s-1.01,.49-1.07,1.17h2.08Z"/>
      <path class="cls-4" d="M77.73,96.43c-.17,.72-.66,1.39-1.76,1.39-1.18,0-1.89-.84-1.89-2.17,0-1.19,.69-2.22,1.94-2.22s1.66,.89,1.71,1.42h-.8c-.1-.41-.35-.75-.93-.75-.7,0-1.1,.6-1.1,1.53s.39,1.54,1.07,1.54c.5,0,.79-.27,.94-.73h.8Z"/>
      <path class="cls-4" d="M78.15,93.54h.71v-1.22h.81v1.22h.9v.64h-.9v2.38c0,.39,.1,.58,.47,.58,.09,0,.24,0,.34-.03v.59c-.19,.07-.45,.08-.66,.08-.68,0-.97-.36-.97-1.06v-2.54h-.71v-.64Z"/>
      <path class="cls-4" d="M81.31,91.69h.81v.93h-.81v-.93Zm0,1.84h.81v4.19h-.81v-4.19Z"/>
      <path class="cls-4" d="M86.98,95.62c0,1.22-.7,2.2-1.99,2.2-1.22,0-1.95-.93-1.95-2.19s.72-2.2,2-2.2c1.18,0,1.94,.87,1.94,2.18Zm-3.12,0c0,.9,.44,1.53,1.15,1.53s1.14-.6,1.14-1.53-.41-1.53-1.15-1.53-1.13,.59-1.13,1.53Z"/>
      <path class="cls-4" d="M87.89,94.59c0-.36,0-.73,0-1.06h.79c.02,.12,.03,.53,.03,.66,.16-.34,.5-.76,1.3-.76s1.4,.5,1.4,1.6v2.69h-.81v-2.59c0-.6-.23-1.01-.84-1.01-.73,0-1.04,.54-1.04,1.36v2.24h-.81v-3.13Z"/>
      <path class="cls-4" d="M94.65,91.69h.81v.93h-.81v-.93Zm0,1.84h.81v4.19h-.81v-4.19Z"/>
      <path class="cls-4" d="M97.07,96.52c.11,.43,.44,.69,.98,.69,.58,0,.8-.24,.8-.6s-.19-.54-.95-.72c-1.23-.3-1.47-.68-1.47-1.25s.43-1.2,1.55-1.2,1.56,.64,1.61,1.22h-.78c-.05-.25-.24-.61-.86-.61-.55,0-.71,.26-.71,.52,0,.29,.16,.44,.91,.62,1.29,.3,1.54,.74,1.54,1.36,0,.73-.57,1.28-1.66,1.28s-1.65-.56-1.75-1.31h.8Z"/>
      <path class="cls-4" d="M33.13,107.11v2.13h-.8v-4.8c0-.34,0-.69,0-1.02h.78c.02,.13,.03,.39,.03,.63,.22-.4,.63-.73,1.34-.73,.96,0,1.67,.81,1.67,2.08,0,1.49-.81,2.3-1.82,2.3-.66,0-1-.27-1.19-.59Zm2.18-1.68c0-.86-.39-1.44-1.07-1.44-.83,0-1.15,.52-1.15,1.51s.27,1.53,1.09,1.53c.74,0,1.12-.6,1.12-1.6Z"/>
      <path class="cls-4" d="M37.05,104.55c0-.55,0-.89,0-1.14h.79c.01,.11,.02,.46,.02,.83,.21-.55,.7-.91,1.4-.93v.8c-.86,.02-1.4,.42-1.4,1.5v1.99h-.81v-3.05Z"/>
      <path class="cls-4" d="M43.61,105.5c0,1.22-.7,2.2-1.99,2.2-1.22,0-1.95-.93-1.95-2.18s.72-2.2,2-2.2c1.18,0,1.94,.87,1.94,2.18Zm-3.12,0c0,.9,.44,1.53,1.15,1.53s1.14-.61,1.14-1.53-.41-1.53-1.15-1.53-1.13,.59-1.13,1.53Z"/>
      <path class="cls-4" d="M44.52,104.47c0-.36,0-.73,0-1.05h.79c.02,.12,.03,.53,.03,.66,.16-.34,.5-.76,1.3-.76s1.4,.5,1.4,1.6v2.69h-.81v-2.59c0-.6-.23-1.01-.84-1.01-.73,0-1.04,.54-1.04,1.36v2.24h-.81v-3.13Z"/>
      <path class="cls-4" d="M49.75,105.66c0,.79,.4,1.38,1.09,1.38,.63,0,.83-.31,.96-.61h.81c-.16,.53-.61,1.27-1.79,1.27-1.33,0-1.88-1.06-1.88-2.14,0-1.26,.64-2.24,1.92-2.24,1.37,0,1.82,1.08,1.82,2,0,.13,0,.23-.01,.35h-2.92Zm2.11-.55c0-.65-.33-1.18-1.01-1.18s-1.01,.49-1.07,1.18h2.08Z"/>
      <path class="cls-4" d="M55.09,103.42h.71v-1.22h.81v1.22h.9v.64h-.9v2.38c0,.39,.1,.58,.47,.58,.09,0,.24,0,.34-.03v.59c-.19,.07-.45,.08-.66,.08-.68,0-.97-.36-.97-1.06v-2.54h-.71v-.64Z"/>
      <path class="cls-4" d="M61.88,105.5c0,1.22-.7,2.2-1.99,2.2-1.22,0-1.95-.93-1.95-2.18s.72-2.2,2-2.2c1.18,0,1.94,.87,1.94,2.18Zm-3.12,0c0,.9,.44,1.53,1.15,1.53s1.14-.61,1.14-1.53-.41-1.53-1.15-1.53-1.13,.59-1.13,1.53Z"/>
      <path class="cls-4" d="M65.31,106.39c.11,.43,.44,.69,.98,.69,.58,0,.8-.24,.8-.6s-.19-.53-.95-.72c-1.23-.3-1.47-.68-1.47-1.25s.43-1.19,1.55-1.19,1.56,.64,1.61,1.22h-.78c-.05-.25-.24-.61-.86-.61-.55,0-.71,.26-.71,.52,0,.29,.16,.44,.91,.62,1.29,.31,1.54,.74,1.54,1.36,0,.73-.57,1.28-1.66,1.28s-1.65-.56-1.75-1.31h.8Z"/>
      <path class="cls-4" d="M72.04,106.66c0,.38,.03,.83,.06,.95h-.77c-.03-.09-.06-.29-.07-.52-.15,.27-.47,.62-1.27,.62-.99,0-1.41-.65-1.41-1.29,0-.94,.74-1.37,1.98-1.37h.69v-.34c0-.36-.12-.78-.85-.78-.66,0-.77,.32-.85,.64h-.78c.06-.61,.43-1.26,1.65-1.26,1.04,0,1.62,.42,1.62,1.39v1.95Zm-.79-1.07h-.64c-.81,0-1.22,.23-1.22,.78,0,.41,.28,.71,.77,.71,.96,0,1.08-.65,1.08-1.37v-.13Z"/>
      <path class="cls-4" d="M73.34,107.6v-3.54h-.66v-.64h.66v-.48c0-.79,.32-1.45,1.24-1.45,.16,0,.38,.02,.48,.05v.67c-.09-.02-.23-.04-.34-.04-.41,0-.57,.23-.57,.81v.42h.82v.64h-.82v3.54h-.81Z"/>
      <path class="cls-4" d="M76.09,105.66c0,.79,.4,1.38,1.08,1.38,.63,0,.83-.31,.96-.61h.81c-.16,.53-.61,1.27-1.79,1.27-1.33,0-1.88-1.06-1.88-2.14,0-1.26,.64-2.24,1.92-2.24,1.37,0,1.82,1.08,1.82,2,0,.13,0,.23-.01,.35h-2.91Zm2.11-.55c0-.65-.33-1.18-1.01-1.18s-1.01,.49-1.07,1.18h2.08Z"/>
      <path class="cls-4" d="M79.44,103.42h.71v-1.22h.81v1.22h.9v.64h-.9v2.38c0,.39,.1,.58,.47,.58,.09,0,.24,0,.34-.03v.59c-.19,.07-.45,.08-.66,.08-.68,0-.97-.36-.97-1.06v-2.54h-.71v-.64Z"/>
      <path class="cls-4" d="M83.18,103.42c.63,1.9,1,3.04,1.1,3.46h0c.13-.46,.42-1.42,1.06-3.46h.81l-1.49,4.37c-.42,1.22-.74,1.54-1.63,1.54-.12,0-.3,0-.47-.03v-.69c.1,.01,.22,.02,.34,.02,.51,0,.71-.22,.94-.87l-1.56-4.34h.87Z"/>
      <path class="cls-4" d="M87.27,103.42c.49,1.91,.77,3,.84,3.45h.01c.08-.4,.34-1.37,.92-3.45h.78c.62,2.31,.8,2.98,.87,3.37h0c.1-.44,.26-1.07,.88-3.37h.81l-1.28,4.19h-.87c-.4-1.54-.76-2.84-.85-3.31h0c-.08,.47-.42,1.68-.87,3.31h-.89l-1.21-4.19h.85Z"/>
      <path class="cls-4" d="M96.21,106.66c0,.38,.03,.83,.06,.95h-.77c-.03-.09-.06-.29-.07-.52-.15,.27-.47,.62-1.27,.62-.99,0-1.41-.65-1.41-1.29,0-.94,.74-1.37,1.98-1.37h.69v-.34c0-.36-.12-.78-.85-.78-.66,0-.77,.32-.85,.64h-.78c.06-.61,.43-1.26,1.65-1.26,1.04,0,1.62,.42,1.62,1.39v1.95Zm-.79-1.07h-.64c-.81,0-1.22,.23-1.22,.78,0,.41,.28,.71,.77,.71,.96,0,1.08-.65,1.08-1.37v-.13Z"/>
      <path class="cls-4" d="M97.81,106.39c.11,.43,.44,.69,.98,.69,.58,0,.8-.24,.8-.6s-.19-.53-.95-.72c-1.23-.3-1.47-.68-1.47-1.25s.43-1.19,1.55-1.19,1.56,.64,1.61,1.22h-.78c-.05-.25-.24-.61-.86-.61-.55,0-.71,.26-.71,.52,0,.29,.16,.44,.91,.62,1.29,.31,1.54,.74,1.54,1.36,0,.73-.57,1.28-1.66,1.28s-1.65-.56-1.75-1.31h.8Z"/>
      <path class="cls-4" d="M102.07,101.57v2.44c.21-.35,.58-.69,1.29-.69s1.41,.39,1.41,1.61v2.68h-.8v-2.54c0-.68-.28-1.05-.87-1.05-.73,0-1.03,.49-1.03,1.32v2.28h-.81v-6.03h.81Z"/>
      <path class="cls-4" d="M105.97,101.57h.81v.93h-.81v-.93Zm0,1.84h.81v4.19h-.81v-4.19Z"/>
      <path class="cls-4" d="M107.98,104.47c0-.36,0-.73,0-1.05h.79c.02,.12,.03,.53,.03,.66,.16-.34,.5-.76,1.3-.76s1.4,.5,1.4,1.6v2.69h-.81v-2.59c0-.6-.23-1.01-.84-1.01-.73,0-1.04,.54-1.04,1.36v2.24h-.81v-3.13Z"/>
      <path class="cls-4" d="M116.2,107.2c0,1.34-.54,2.12-1.95,2.12-1.32,0-1.69-.74-1.76-1.29h.82c.11,.43,.45,.66,.97,.66,.91,0,1.13-.58,1.13-1.51v-.31c-.22,.45-.6,.71-1.28,.71-1.04,0-1.73-.85-1.73-2.06,0-1.36,.79-2.2,1.81-2.2,.78,0,1.12,.37,1.2,.63,0-.17,.03-.45,.04-.53h.76c0,.27-.01,.8-.01,1.21v2.58Zm-2.97-1.72c0,.85,.44,1.42,1.09,1.42,.86,0,1.11-.58,1.11-1.47s-.22-1.44-1.09-1.44c-.72,0-1.12,.6-1.12,1.49Z"/>
    </g>
    <g>
      <line class="cls-5" x1="72.85" y1="59.44" x2="72.89" y2="87.45"/>
      <g>
        <line class="cls-6" x1="72.86" y1="62.17" x2="72.89" y2="87.45"/>
        <polygon class="cls-4" points="70.96 62.72 72.85 59.44 74.75 62.72 70.96 62.72"/>
      </g>
    </g>
  </g>
</svg>