<?xml version="1.0" encoding="UTF-8"?>
<svg id="Layer_2" data-name="Layer 2" xmlns="http://www.w3.org/2000/svg" xmlns:xlink="http://www.w3.org/1999/xlink" viewBox="0 0 1375.8 331.97">
  <defs>
    <style>
      .cls-1 {
        letter-spacing: 0em;
      }

      .cls-2 {
        letter-spacing: -.01em;
      }

      .cls-3 {
        stroke: #403c56;
      }

      .cls-3, .cls-4 {
        stroke-width: 3px;
      }

      .cls-3, .cls-4, .cls-5, .cls-6 {
        stroke-miterlimit: 10;
      }

      .cls-3, .cls-4, .cls-6 {
        fill: none;
      }

      .cls-4, .cls-6 {
        stroke: #000;
      }

      .cls-7 {
        fill: url(#linear-gradient);
      }

      .cls-8 {
        letter-spacing: 0em;
      }

      .cls-9 {
        letter-spacing: 0em;
      }

      .cls-10 {
        letter-spacing: 0em;
      }

      .cls-11 {
        letter-spacing: 0em;
      }

      .cls-12 {
        letter-spacing: 0em;
      }

      .cls-13 {
        letter-spacing: 0em;
      }

      .cls-14 {
        fill: #f9dede;
      }

      .cls-15 {
        fill: #ed9f9b;
      }

      .cls-16 {
        fill: #b4b4b5;
      }

      .cls-17 {
        fill: #8fc662;
      }

      .cls-18 {
        fill: #8e8e8e;
      }

      .cls-19 {
        fill: #939393;
      }

      .cls-20 {
        fill: #dde0e1;
      }

      .cls-21 {
        fill: #c8e2fa;
      }

      .cls-22 {
        fill: #d7d7d7;
      }

      .cls-23 {
        fill: #c5c4ca;
      }

      .cls-24 {
        fill: #e0e2e6;
      }

      .cls-25 {
        fill: #a2cbe6;
      }

      .cls-26 {
        font-size: 29.89px;
      }

      .cls-26, .cls-27, .cls-28, .cls-29, .cls-30, .cls-31, .cls-32, .cls-33, .cls-34, .cls-35, .cls-36, .cls-37, .cls-38 {
        font-family: MyriadPro-Regular, 'Myriad Pro';
      }

      .cls-26, .cls-28, .cls-29, .cls-30, .cls-31, .cls-32, .cls-34, .cls-35, .cls-36, .cls-38 {
        fill: #2b2627;
      }

      .cls-39 {
        letter-spacing: 0em;
      }

      .cls-40 {
        letter-spacing: 0em;
      }

      .cls-41 {
        letter-spacing: 0em;
      }

      .cls-27 {
        font-size: 36.36px;
      }

      .cls-42 {
        letter-spacing: 0em;
      }

      .cls-28 {
        font-size: 29.57px;
      }

      .cls-29 {
        font-size: 28.89px;
      }

      .cls-43 {
        letter-spacing: 0em;
      }

      .cls-44 {
        letter-spacing: 0em;
      }

      .cls-45 {
        letter-spacing: 0em;
      }

      .cls-46 {
        letter-spacing: 0em;
      }

      .cls-47 {
        letter-spacing: -.01em;
      }

      .cls-48 {
        letter-spacing: 0em;
      }

      .cls-30 {
        font-size: 30.75px;
      }

      .cls-49 {
        letter-spacing: 0em;
      }

      .cls-50 {
        letter-spacing: 0em;
      }

      .cls-31 {
        font-size: 28.36px;
      }

      .cls-5 {
        stroke: #2b2627;
        stroke-width: .5px;
      }

      .cls-51 {
        letter-spacing: -.02em;
      }

      .cls-6 {
        stroke-width: 2px;
      }

      .cls-52 {
        letter-spacing: 0em;
      }

      .cls-53 {
        letter-spacing: 0em;
      }

      .cls-54 {
        letter-spacing: 0em;
      }

      .cls-55 {
        letter-spacing: 0em;
      }

      .cls-56 {
        letter-spacing: 0em;
      }

      .cls-57 {
        letter-spacing: 0em;
      }

      .cls-58 {
        letter-spacing: 0em;
      }

      .cls-59 {
        letter-spacing: 0em;
      }

      .cls-60 {
        letter-spacing: 0em;
      }

      .cls-61 {
        letter-spacing: 0em;
      }

      .cls-62 {
        letter-spacing: 0em;
      }

      .cls-63 {
        letter-spacing: 0em;
      }

      .cls-64 {
        letter-spacing: 0em;
      }

      .cls-32 {
        font-size: 22.19px;
      }

      .cls-33 {
        fill: #416bb5;
        font-size: 26.33px;
      }

      .cls-34 {
        font-size: 23.71px;
      }

      .cls-65 {
        letter-spacing: 0em;
      }

      .cls-66 {
        letter-spacing: 0em;
      }

      .cls-67 {
        letter-spacing: 0em;
      }

      .cls-68 {
        letter-spacing: 0em;
      }

      .cls-35 {
        font-size: 24.18px;
      }

      .cls-36 {
        font-size: 23.23px;
      }

      .cls-69 {
        letter-spacing: 0em;
      }

      .cls-70 {
        letter-spacing: 0em;
      }

      .cls-37 {
        fill: #598a48;
        font-size: 25.39px;
      }

      .cls-38 {
        font-size: 28.26px;
      }

      .cls-71 {
        letter-spacing: -.01em;
      }

      .cls-72 {
        letter-spacing: .01em;
      }

      .cls-73 {
        letter-spacing: 0em;
      }

      .cls-74 {
        letter-spacing: 0em;
      }

      .cls-75 {
        letter-spacing: -.01em;
      }

      .cls-76 {
        letter-spacing: -.01em;
      }

      .cls-77 {
        letter-spacing: -.01em;
      }
    </style>
    <linearGradient id="linear-gradient" x1="1284.96" y1="292.57" x2="1284.96" y2="107.74" gradientUnits="userSpaceOnUse">
      <stop offset=".23" stop-color="#afc18b"/>
      <stop offset=".53" stop-color="#e0ca6e"/>
      <stop offset=".83" stop-color="#ed9f9b"/>
    </linearGradient>
  </defs>
  <g id="Layer_1-2" data-name="Layer 1">
    <rect class="cls-22" x="558.11" y=".64" width="300.68" height="59.72" rx="12.34" ry="12.34"/>
    <rect class="cls-17" x="308.1" y="231.07" width="74.63" height="99.66"/>
    <rect class="cls-25" x="356.35" y="64.93" width="49.52" height="99.66"/>
    <rect class="cls-25" x="89.69" y="135" width="49.52" height="99.66"/>
    <rect class="cls-17" x="139.39" y="135" width="74.26" height="99.66"/>
    <rect class="cls-21" x="646.62" y="86.1" width="215.34" height="38.19"/>
    <text class="cls-38" transform="translate(23.66 228.58) rotate(-90)"><tspan class="cls-48" x="0" y="0">M</tspan><tspan class="cls-69" x="22.89" y="0">odels</tspan></text>
    <rect class="cls-6" x="114.29" y="134.92" width="24.92" height="24.92"/>
    <rect class="cls-6" x="139.21" y="134.92" width="24.92" height="24.92"/>
    <rect class="cls-6" x="164.15" y="134.92" width="24.92" height="24.92"/>
    <rect class="cls-6" x="114.29" y="159.83" width="24.92" height="24.92"/>
    <rect class="cls-6" x="139.21" y="159.83" width="24.92" height="24.92"/>
    <rect class="cls-6" x="164.15" y="159.83" width="24.92" height="24.92"/>
    <rect class="cls-6" x="114.29" y="184.75" width="24.92" height="24.92"/>
    <rect class="cls-6" x="139.21" y="184.75" width="24.92" height="24.92"/>
    <rect class="cls-6" x="164.15" y="184.75" width="24.92" height="24.92"/>
    <text class="cls-28" transform="translate(49.73 117.85) rotate(.11)"><tspan class="cls-12" x="0" y="0">B</tspan><tspan x="16.14" y="0">enchma</tspan><tspan class="cls-12" x="115.93" y="0">r</tspan><tspan class="cls-53" x="125.72" y="0">ks </tspan></text>
    <rect class="cls-6" x="114.29" y="209.74" width="24.92" height="24.92"/>
    <rect class="cls-6" x="139.21" y="209.74" width="24.92" height="24.92"/>
    <rect class="cls-6" x="164.15" y="209.74" width="24.92" height="24.92"/>
    <rect class="cls-6" x="188.73" y="134.92" width="24.92" height="24.92"/>
    <rect class="cls-6" x="188.73" y="159.83" width="24.92" height="24.92"/>
    <rect class="cls-6" x="188.73" y="184.75" width="24.92" height="24.92"/>
    <rect class="cls-6" x="188.73" y="209.74" width="24.92" height="24.92"/>
    <rect class="cls-6" x="89.69" y="209.75" width="24.92" height="24.92" transform="translate(-120.06 324.35) rotate(-90)"/>
    <rect class="cls-6" x="89.69" y="184.83" width="24.92" height="24.92" transform="translate(-95.15 299.43) rotate(-90)"/>
    <rect class="cls-6" x="89.69" y="159.92" width="24.92" height="24.92" transform="translate(-70.23 274.52) rotate(-90)"/>
    <rect class="cls-6" x="89.69" y="135" width="24.92" height="24.92" transform="translate(-45.32 249.6) rotate(-90)"/>
    <rect class="cls-25" x="40.47" y="135" width="49.52" height="99.66"/>
    <rect class="cls-6" x="65.08" y="134.92" width="24.92" height="24.92"/>
    <rect class="cls-6" x="65.08" y="159.83" width="24.92" height="24.92"/>
    <rect class="cls-6" x="65.08" y="184.75" width="24.92" height="24.92"/>
    <rect class="cls-6" x="65.08" y="209.74" width="24.92" height="24.92"/>
    <rect class="cls-6" x="40.47" y="209.75" width="24.92" height="24.92" transform="translate(-169.27 275.14) rotate(-90)"/>
    <rect class="cls-6" x="40.47" y="184.83" width="24.92" height="24.92" transform="translate(-144.36 250.22) rotate(-90)"/>
    <rect class="cls-6" x="40.47" y="159.92" width="24.92" height="24.92" transform="translate(-119.44 225.31) rotate(-90)"/>
    <rect class="cls-6" x="40.47" y="135" width="24.92" height="24.92" transform="translate(-94.53 200.39) rotate(-90)"/>
    <text class="cls-36" transform="translate(299.65 150.09) rotate(-90)"><tspan class="cls-64" x="0" y="0">M</tspan><tspan class="cls-41" x="18.81" y="0">odels</tspan></text>
    <rect class="cls-6" x="380.95" y="64.85" width="24.92" height="24.92"/>
    <rect class="cls-6" x="380.95" y="89.77" width="24.92" height="24.92"/>
    <rect class="cls-6" x="380.95" y="114.68" width="24.92" height="24.92"/>
    <text class="cls-29" transform="translate(289.16 50.63)"><tspan class="cls-54" x="0" y="0">C</tspan><tspan class="cls-39" x="16.55" y="0">apabilities</tspan></text>
    <rect class="cls-6" x="380.95" y="139.68" width="24.92" height="24.92"/>
    <rect class="cls-6" x="356.35" y="139.68" width="24.92" height="24.92" transform="translate(216.67 520.95) rotate(-90)"/>
    <rect class="cls-6" x="356.35" y="114.77" width="24.92" height="24.92" transform="translate(241.58 496.03) rotate(-90)"/>
    <rect class="cls-6" x="356.35" y="89.85" width="24.92" height="24.92" transform="translate(266.5 471.11) rotate(-90)"/>
    <rect class="cls-6" x="356.35" y="64.93" width="24.92" height="24.92" transform="translate(291.41 446.2) rotate(-90)"/>
    <rect class="cls-25" x="307.79" y="64.93" width="49.52" height="99.66"/>
    <rect class="cls-6" x="332.39" y="64.85" width="24.92" height="24.92"/>
    <rect class="cls-6" x="332.39" y="89.77" width="24.92" height="24.92"/>
    <rect class="cls-6" x="332.39" y="114.68" width="24.92" height="24.92"/>
    <rect class="cls-6" x="332.39" y="139.68" width="24.92" height="24.92"/>
    <rect class="cls-6" x="307.79" y="139.68" width="24.92" height="24.92" transform="translate(168.1 472.38) rotate(-90)"/>
    <rect class="cls-6" x="307.79" y="114.77" width="24.92" height="24.92" transform="translate(193.02 447.47) rotate(-90)"/>
    <rect class="cls-6" x="307.79" y="89.85" width="24.92" height="24.92" transform="translate(217.93 422.55) rotate(-90)"/>
    <rect class="cls-6" x="307.79" y="64.93" width="24.92" height="24.92" transform="translate(242.85 397.64) rotate(-90)"/>
    <text class="cls-34" transform="translate(299.47 312.56) rotate(-90)"><tspan class="cls-46" x="0" y="0">M</tspan><tspan x="19.21" y="0">odels</tspan></text>
    <rect class="cls-6" x="357.82" y="230.99" width="24.92" height="24.92"/>
    <rect class="cls-6" x="357.82" y="255.9" width="24.92" height="24.92"/>
    <rect class="cls-6" x="357.82" y="280.82" width="24.92" height="24.92"/>
    <text class="cls-26" transform="translate(304.62 215.97)"><tspan class="cls-1" x="0" y="0">S</tspan><tspan x="14.83" y="0">a</tspan><tspan class="cls-71" x="29.23" y="0">f</tspan><tspan x="37.57" y="0">e</tspan><tspan class="cls-59" x="52.55" y="0">t</tspan><tspan x="62.71" y="0">y</tspan></text>
    <rect class="cls-6" x="357.82" y="305.81" width="24.92" height="24.92"/>
    <rect class="cls-6" x="333.21" y="305.82" width="24.92" height="24.92" transform="translate(27.39 663.95) rotate(-90)"/>
    <rect class="cls-6" x="333.21" y="280.9" width="24.92" height="24.92" transform="translate(52.31 639.03) rotate(-90)"/>
    <rect class="cls-6" x="333.21" y="255.99" width="24.92" height="24.92" transform="translate(77.22 614.11) rotate(-90)"/>
    <rect class="cls-6" x="333.21" y="231.07" width="24.92" height="24.92" transform="translate(102.14 589.2) rotate(-90)"/>
    <rect class="cls-6" x="308.1" y="230.99" width="24.92" height="24.92"/>
    <rect class="cls-6" x="308.1" y="255.9" width="24.92" height="24.92"/>
    <rect class="cls-6" x="308.1" y="280.82" width="24.92" height="24.92"/>
    <rect class="cls-6" x="308.1" y="305.81" width="24.92" height="24.92"/>
    <polygon points="263.12 118.02 274.09 113.53 263.53 107.81 263.12 118.02"/>
    <polygon points="260.09 271.78 270.78 276.89 259.9 281.99 260.09 271.78"/>
    <polyline class="cls-3" points="1011.15 98.15 1011.15 291.89 1221.81 291.89"/>
    <text class="cls-33" transform="translate(1016.17 325.39)"><tspan class="cls-57" x="0" y="0">C</tspan><tspan class="cls-70" x="15.09" y="0">apabilities </tspan><tspan class="cls-44" x="133.06" y="0">S</tspan><tspan class="cls-42" x="146.21" y="0">c</tspan><tspan class="cls-74" x="157.84" y="0">o</tspan><tspan class="cls-2" x="172.3" y="0">r</tspan><tspan x="180.65" y="0">e</tspan></text>
    <text class="cls-37" transform="translate(995.65 286.16) rotate(-90)"><tspan class="cls-63" x="0" y="0">S</tspan><tspan x="12.59" y="0">a</tspan><tspan class="cls-77" x="24.83" y="0">f</tspan><tspan class="cls-73" x="31.91" y="0">e</tspan><tspan class="cls-61" x="44.63" y="0">t</tspan><tspan x="53.26" y="0">y </tspan><tspan class="cls-11" x="70.6" y="0">B</tspan><tspan class="cls-73" x="84.46" y="0">enchma</tspan><tspan class="cls-11" x="170.15" y="0">r</tspan><tspan x="178.55" y="0">k</tspan></text>
    <polygon class="cls-14" points="1025.26 248.33 1049.07 287.03 1116.56 197.7 1207.86 147.1 1160.56 105.09 1103.66 185.81 1025.26 248.33"/>
    <rect class="cls-15" x="1009.78" y="191.49" width="198.77" height="3.52" transform="translate(194.52 849.77) rotate(-45.55)"/>
    <circle class="cls-15" cx="1111.03" cy="223.21" r="5.53"/>
    <circle class="cls-15" cx="1083.05" cy="237.3" r="5.53"/>
    <circle class="cls-15" cx="1061.89" cy="218.85" r="5.53"/>
    <circle class="cls-15" cx="1095.6" cy="190.53" r="5.53"/>
    <circle class="cls-15" cx="1122.18" cy="188.95" r="5.53"/>
    <circle class="cls-15" cx="1114.23" cy="170.43" r="5.53"/>
    <circle class="cls-15" cx="1158.57" cy="188.95" r="5.53"/>
    <circle class="cls-15" cx="1164.1" cy="157.29" r="5.53"/>
    <circle class="cls-15" cx="1130.01" cy="133.79" r="5.53"/>
    <circle class="cls-15" cx="1146.45" cy="118.53" r="5.53"/>
    <circle class="cls-15" cx="1053.32" cy="265.2" r="5.53"/>
    <line class="cls-4" x1="415.03" y1="114.79" x2="517" y2="114.79"/>
    <polygon points="517 120.94 528.47 115.7 517 110.07 517 120.94"/>
    <polyline class="cls-4" points="393.42 279.85 911.26 279.85 911.26 115.2 873.56 115.2"/>
    <g>
      <line class="cls-6" x1="627.67" y1="88.15" x2="603.25" y2="88.15"/>
      <polygon points="606.24 91.58 598.72 88.15 606.24 84.46 606.24 91.58"/>
    </g>
    <g>
      <line class="cls-6" x1="627.67" y1="112.55" x2="603.25" y2="112.55"/>
      <polygon points="606.24 115.98 598.72 112.55 606.24 108.86 606.24 115.98"/>
    </g>
    <g>
      <line class="cls-6" x1="627.67" y1="137.72" x2="603.25" y2="137.72"/>
      <polygon points="606.24 141.15 598.72 137.72 606.24 134.03 606.24 141.15"/>
    </g>
    <g>
      <line class="cls-6" x1="627.67" y1="162.12" x2="603.25" y2="162.12"/>
      <polygon points="606.24 165.55 598.72 162.12 606.24 158.43 606.24 165.55"/>
    </g>
    <text class="cls-27" transform="translate(436.4 101.14)"><tspan x="0" y="0">P</tspan><tspan class="cls-10" x="19.34" y="0">C</tspan><tspan x="40.57" y="0">A</tspan></text>
    <line class="cls-4" x1="911.51" y1="185.03" x2="942.85" y2="185.03"/>
    <polygon points="937.6 189.91 950.2 184.68 937.6 179.05 937.6 189.91"/>
    <rect class="cls-24" x="638.56" y="18.94" width="21.98" height="21.98"/>
    <rect class="cls-19" x="594.59" y="18.94" width="21.98" height="21.98"/>
    <rect class="cls-16" x="616.58" y="18.94" width="21.98" height="21.98"/>
    <rect class="cls-18" x="616.58" y="18.94" width="21.98" height="21.98"/>
    <rect class="cls-23" x="572.62" y="18.94" width="21.98" height="21.98"/>
    <rect class="cls-20" x="594.1" y="18.94" width="21.98" height="21.98"/>
    <rect class="cls-6" x="638.56" y="18.94" width="21.98" height="21.98"/>
    <rect class="cls-6" x="616.58" y="18.94" width="21.98" height="21.98"/>
    <rect class="cls-6" x="594.6" y="18.94" width="21.98" height="21.98"/>
    <rect class="cls-6" x="572.62" y="18.94" width="21.98" height="21.98"/>
    <text class="cls-32" transform="translate(679.63 23.88)"><tspan class="cls-51" x="0" y="0">P</tspan><tspan class="cls-68" x="11.45" y="0">r</tspan><tspan x="18.49" y="0">oje</tspan><tspan class="cls-72" x="47.18" y="0">c</tspan><tspan x="57.41" y="0">t PC1 o</tspan><tspan class="cls-52" x="122.4" y="0">n</tspan><tspan class="cls-8" x="134.63" y="0">t</tspan><tspan x="141.84" y="0">o </tspan><tspan x="-4.48" y="26.63">benchma</tspan><tspan class="cls-9" x="83.04" y="26.63">r</tspan><tspan x="90.38" y="26.63">k s</tspan><tspan class="cls-8" x="114.28" y="26.63">c</tspan><tspan x="124.09" y="26.63">o</tspan><tspan class="cls-66" x="136.27" y="26.63">r</tspan><tspan x="143.31" y="26.63">es</tspan></text>
    <text class="cls-31" transform="translate(653 114.51)"><tspan class="cls-5"><tspan class="cls-56" x="0" y="0">C</tspan><tspan x="16.25" y="0">apabili</tspan><tspan class="cls-60" x="95.82" y="0">t</tspan><tspan x="105.46" y="0">y </tspan><tspan class="cls-45" x="124.82" y="0">S</tspan><tspan class="cls-43" x="138.97" y="0">c</tspan><tspan class="cls-49" x="151.51" y="0">o</tspan><tspan class="cls-65" x="167.07" y="0">r</tspan><tspan x="176.06" y="0">es</tspan></tspan><tspan class="cls-76" x="12.15" y="34.03">f</tspan><tspan x="20.06" y="34.03">or each model</tspan></text>
    <rect class="cls-25" x="531.82" y="112.41" width="99.67" height="24.92" transform="translate(456.78 706.52) rotate(-90)"/>
    <rect class="cls-6" x="569.2" y="149.79" width="24.92" height="24.92" transform="translate(419.4 743.9) rotate(-90)"/>
    <rect class="cls-6" x="569.2" y="124.88" width="24.92" height="24.92" transform="translate(444.32 718.99) rotate(-90)"/>
    <rect class="cls-6" x="569.2" y="99.96" width="24.92" height="24.92" transform="translate(469.23 694.07) rotate(-90)"/>
    <rect class="cls-6" x="569.2" y="75.05" width="24.92" height="24.92" transform="translate(494.15 669.16) rotate(-90)"/>
    <rect class="cls-14" x="1016.44" width="300.42" height="38.24"/>
    <line class="cls-4" x1="1375.8" y1="150.08" x2="1331.97" y2="150.08"/>
    <polygon points="1334.34 158.85 1315.19 150.11 1334.34 140.71 1334.34 158.85"/>
    <text class="cls-30" transform="translate(1019.71 28.14) scale(1.01 1)"><tspan class="cls-5"><tspan class="cls-55" x="0" y="0">C</tspan><tspan x="17.62" y="0">apabili</tspan><tspan class="cls-62" x="103.91" y="0">t</tspan><tspan x="114.36" y="0">y </tspan><tspan class="cls-47" x="135.36" y="0">C</tspan><tspan class="cls-40" x="152.86" y="0">o</tspan><tspan class="cls-13" x="169.74" y="0">r</tspan><tspan class="cls-67" x="179.92" y="0">r</tspan><tspan x="189.67" y="0">el</tspan><tspan class="cls-50" x="212.33" y="0">a</tspan><tspan x="227.03" y="0">tions</tspan></tspan><tspan class="cls-75" x="-23.71" y="36.9">f</tspan><tspan x="-15.13" y="36.9">or each sa</tspan><tspan class="cls-75" x="112.92" y="36.9">f</tspan><tspan class="cls-40" x="121.5" y="36.9">e</tspan><tspan class="cls-58" x="136.9" y="36.9">t</tspan><tspan x="147.36" y="36.9">y benchma</tspan><tspan class="cls-13" x="289.64" y="36.9">r</tspan><tspan x="299.82" y="36.9">k</tspan></text>
    <text class="cls-35" transform="translate(1311.49 111.52)"><tspan x="0" y="0">100%</tspan></text>
    <text class="cls-35" transform="translate(1314.92 302.77)"><tspan x="0" y="0">0%</tspan></text>
    <rect class="cls-7" x="1261.79" y="107.74" width="46.33" height="184.83"/>
    <rect class="cls-6" x="1260.43" y="107.01" width="46.33" height="185.36"/>
    <text class="cls-36" transform="translate(557.15 158.55) rotate(-90)"><tspan class="cls-64" x="0" y="0">M</tspan><tspan class="cls-41" x="18.81" y="0">odels</tspan></text>
    <polyline class="cls-4" points="265.45 112.76 243.46 112.76 243.46 275.97 245.06 275.97 267.19 275.97"/>
    <line class="cls-4" x1="243.65" y1="187.21" x2="224.22" y2="187.21"/>
  </g>
</svg>