<?xml version="1.0" encoding="UTF-8"?>
<svg id="Layer_2" data-name="Layer 2" xmlns="http://www.w3.org/2000/svg" xmlns:xlink="http://www.w3.org/1999/xlink" viewBox="0 0 1372.21 331.73">
  <defs>
    <style>
      .cls-1 {
        stroke: #403c56;
      }

      .cls-1, .cls-2 {
        stroke-width: 3px;
      }

      .cls-1, .cls-2, .cls-3, .cls-4 {
        stroke-miterlimit: 10;
      }

      .cls-1, .cls-2, .cls-4 {
        fill: none;
      }

      .cls-2, .cls-4 {
        stroke: #000;
      }

      .cls-5 {
        fill: url(#linear-gradient);
      }

      .cls-6 {
        fill: #f9dede;
      }

      .cls-7 {
        fill: #ed9f9b;
      }

      .cls-8 {
        fill: #b4b4b5;
      }

      .cls-9 {
        fill: #8fc662;
      }

      .cls-10 {
        fill: #8e8e8e;
      }

      .cls-11 {
        fill: #939393;
      }

      .cls-12 {
        fill: #dde0e1;
      }

      .cls-13 {
        fill: #c8e2fa;
      }

      .cls-14 {
        fill: #d7d7d7;
      }

      .cls-15 {
        fill: #c5c4ca;
      }

      .cls-16 {
        fill: #e0e2e6;
      }

      .cls-17 {
        fill: #416bb5;
      }

      .cls-18 {
        fill: #a2cbe6;
      }

      .cls-19, .cls-3 {
        fill: #2b2627;
      }

      .cls-20 {
        fill: #598a48;
      }

      .cls-3 {
        stroke: #2b2627;
        stroke-width: .5px;
      }

      .cls-4 {
        stroke-width: 2px;
      }
    </style>
    <linearGradient id="linear-gradient" x1="1281.37" y1="292.57" x2="1281.37" y2="107.74" gradientUnits="userSpaceOnUse">
      <stop offset=".23" stop-color="#afc18b"/>
      <stop offset=".53" stop-color="#e0ca6e"/>
      <stop offset=".83" stop-color="#ed9f9b"/>
    </linearGradient>
  </defs>
  <g id="Layer_1-2" data-name="Layer 1">
    <rect class="cls-14" x="554.52" y=".64" width="300.68" height="59.72" rx="12.34" ry="12.34"/>
    <rect class="cls-9" x="304.51" y="231.07" width="74.63" height="99.66"/>
    <rect class="cls-18" x="352.76" y="64.93" width="49.52" height="99.66"/>
    <rect class="cls-18" x="86.1" y="135" width="49.52" height="99.66"/>
    <rect class="cls-9" x="135.8" y="135" width="74.26" height="99.66"/>
    <rect class="cls-13" x="643.03" y="86.1" width="215.34" height="38.19"/>
    <g>
      <path class="cls-19" d="M11.7,210.38c-2.66,.14-5.88,.31-8.22,.31v.06c2.2,.68,4.61,1.44,7.23,2.4l9.24,3.36v1.87l-9.07,3.11c-2.71,.9-5.14,1.64-7.4,2.18v.06c2.37,.06,5.54,.2,8.42,.37l8.17,.51v2.35l-19.05-1.33v-3.14l9.21-3.25c2.35-.79,4.44-1.41,6.42-1.92v-.06c-1.92-.51-4.01-1.19-6.42-2.03l-9.21-3.39v-3.14l19.05-1.19v2.43l-8.37,.45Z"/>
      <path class="cls-19" d="M13.11,191.25c5.06,0,7.26,3.53,7.26,6.81,0,3.67-2.71,6.56-7.04,6.56-4.55,0-7.23-3.02-7.23-6.78s2.85-6.58,7.01-6.58Zm.14,10.82c3,0,5.26-1.7,5.26-4.13s-2.23-4.15-5.31-4.15c-2.32,0-5.23,1.16-5.23,4.1s2.71,4.18,5.28,4.18Z"/>
      <path class="cls-19" d="M0,176.33H16.53c1.21,0,2.6-.06,3.53-.11v2.2l-2.37,.11v.08c1.53,.73,2.68,2.37,2.68,4.61,0,3.31-2.8,5.88-6.95,5.88-4.55,.03-7.32-2.83-7.32-6.13,0-2.12,.99-3.5,2.06-4.13v-.06H0v-2.46Zm11.95,2.46c-.31,0-.73,.03-1.05,.11-1.55,.37-2.85,1.72-2.85,3.59,0,2.57,2.26,4.1,5.26,4.1,2.77,0,5.06-1.38,5.06-4.04,0-1.67-1.13-3.19-2.97-3.65-.34-.08-.68-.11-1.07-.11h-2.37Z"/>
      <path class="cls-19" d="M13.68,170.79c3.36-.06,4.75-2.18,4.75-4.69,0-1.78-.31-2.88-.71-3.79l1.78-.45c.4,.88,.88,2.4,.88,4.58,0,4.21-2.8,6.73-6.92,6.73s-7.35-2.43-7.35-6.41c0-4.49,3.9-5.65,6.42-5.65,.51,0,.88,.03,1.16,.08v9.61Zm-1.78-7.29c-1.55-.03-4.01,.65-4.01,3.45,0,2.54,2.29,3.62,4.01,3.82v-7.26Z"/>
      <path class="cls-19" d="M0,158.02v-2.49H20.06v2.49H0Z"/>
      <path class="cls-19" d="M17.55,151.68c.45-.76,.96-2.06,.96-3.31,0-1.78-.88-2.63-2.03-2.63s-1.81,.71-2.49,2.51c-.9,2.49-2.23,3.65-3.87,3.65-2.2,0-4.01-1.81-4.01-4.72,0-1.38,.37-2.6,.85-3.33l1.81,.59c-.34,.54-.82,1.53-.82,2.8,0,1.47,.85,2.26,1.87,2.26,1.13,0,1.64-.79,2.35-2.57,.88-2.34,2.06-3.59,4.1-3.59,2.43,0,4.13,1.89,4.13,5.09,0,1.5-.4,2.88-.96,3.84l-1.86-.59Z"/>
    </g>
    <rect class="cls-4" x="110.7" y="134.92" width="24.92" height="24.92"/>
    <rect class="cls-4" x="135.62" y="134.92" width="24.92" height="24.92"/>
    <rect class="cls-4" x="160.56" y="134.92" width="24.92" height="24.92"/>
    <rect class="cls-4" x="110.7" y="159.83" width="24.92" height="24.92"/>
    <rect class="cls-4" x="135.62" y="159.83" width="24.92" height="24.92"/>
    <rect class="cls-4" x="160.56" y="159.83" width="24.92" height="24.92"/>
    <rect class="cls-4" x="110.7" y="184.75" width="24.92" height="24.92"/>
    <rect class="cls-4" x="135.62" y="184.75" width="24.92" height="24.92"/>
    <rect class="cls-4" x="160.56" y="184.75" width="24.92" height="24.92"/>
    <g>
      <path class="cls-19" d="M48.42,98.22c1.12-.26,2.93-.44,4.7-.43,2.57,0,4.23,.45,5.44,1.46,1.03,.77,1.68,1.95,1.68,3.52,0,1.95-1.31,3.64-3.38,4.37v.09c1.89,.45,4.11,2.02,4.1,4.98,0,1.71-.69,3.04-1.72,3.99-1.36,1.27-3.61,1.86-6.86,1.85-1.77,0-3.13-.12-3.99-.25l.04-19.58Zm2.54,17.69c.53,.09,1.24,.12,2.16,.12,2.66,0,5.12-.97,5.12-3.86,0-2.69-2.33-3.85-5.14-3.86h-2.13s-.01,7.6-.01,7.6Zm.02-9.52h2.34c2.69,0,4.29-1.44,4.29-3.36,0-2.31-1.74-3.26-4.34-3.26-1.18,0-1.86,.08-2.28,.17v6.45Z"/>
      <path class="cls-19" d="M65.9,111.21c.05,3.52,2.27,4.97,4.9,4.98,1.86,0,3.02-.32,3.96-.73l.47,1.86c-.92,.41-2.52,.91-4.79,.91-4.41,0-7.03-2.94-7.02-7.26,0-4.32,2.56-7.68,6.73-7.68,4.7,0,5.91,4.09,5.9,6.72,0,.53-.03,.92-.09,1.21l-10.05-.02Zm7.63-1.85c.03-1.63-.67-4.2-3.6-4.21-2.66,0-3.79,2.39-4,4.19h7.6Z"/>
      <path class="cls-19" d="M79.27,107.48c0-1.51-.03-2.69-.11-3.87h2.31s.14,2.37,.14,2.37h.06c.71-1.33,2.37-2.66,4.74-2.65,1.98,0,5.05,1.19,5.04,6.1l-.02,8.52h-2.6s.02-8.25,.02-8.25c0-2.31-.85-4.23-3.3-4.24-1.69,0-3.02,1.21-3.5,2.66-.12,.32-.18,.77-.18,1.21l-.02,8.61h-2.6s.02-10.44,.02-10.44Z"/>
      <path class="cls-19" d="M105.86,117.46c-.68,.32-2.19,.82-4.11,.82-4.32,0-7.12-2.94-7.11-7.32,0-4.41,3.03-7.62,7.7-7.62,1.54,0,2.9,.39,3.61,.78l-.6,1.98c-.62-.33-1.59-.68-3.01-.69-3.28,0-5.06,2.44-5.07,5.4,0,3.31,2.12,5.36,4.96,5.36,1.48,0,2.46-.35,3.2-.67l.44,1.95Z"/>
      <path class="cls-19" d="M108.95,96.98h2.6s-.02,8.97-.02,8.97h.06c.42-.74,1.07-1.42,1.87-1.86,.77-.44,1.69-.71,2.66-.71,1.92,0,5,1.19,4.99,6.1l-.02,8.52h-2.6s.02-8.23,.02-8.23c0-2.31-.85-4.23-3.3-4.24-1.69,0-2.99,1.18-3.49,2.57-.15,.38-.18,.77-.18,1.24l-.02,8.63h-2.6s.04-21,.04-21Z"/>
      <path class="cls-19" d="M125.34,107.56c0-1.51-.05-2.69-.11-3.87h2.28s.11,2.34,.11,2.34h.09c.8-1.36,2.13-2.63,4.53-2.62,1.92,0,3.4,1.19,4.02,2.88h.06c.45-.83,1.04-1.42,1.63-1.86,.86-.65,1.78-1,3.14-1,1.92,0,4.73,1.25,4.72,6.22l-.02,8.4h-2.54s.02-8.08,.02-8.08c0-2.78-1.03-4.41-3.1-4.41-1.51,0-2.63,1.09-3.11,2.33-.12,.38-.21,.83-.21,1.3l-.02,8.84h-2.54s.02-8.58,.02-8.58c0-2.28-1-3.91-2.98-3.91-1.6,0-2.81,1.3-3.23,2.6-.15,.35-.21,.83-.21,1.27l-.02,8.61h-2.54s.02-10.44,.02-10.44Z"/>
      <path class="cls-19" d="M160.04,114.64c0,1.24,.05,2.46,.2,3.43h-2.34s-.2-1.81-.2-1.81h-.09c-.8,1.12-2.34,2.12-4.38,2.12-2.9,0-4.37-2.05-4.37-4.12,0-3.46,3.09-5.35,8.62-5.31v-.29c0-1.15-.32-3.31-3.25-3.29-1.36,0-2.75,.38-3.76,1.06l-.59-1.75c1.19-.74,2.93-1.24,4.73-1.23,4.38,0,5.44,3,5.43,5.84v5.35Zm-2.52-3.88c-2.84-.07-6.06,.43-6.07,3.21,0,1.72,1.12,2.49,2.42,2.49,1.89,0,3.11-1.18,3.52-2.39,.09-.3,.12-.59,.12-.83v-2.48Z"/>
      <path class="cls-19" d="M164.24,108.23c0-1.69-.02-3.13-.11-4.46h2.28s.11,2.84,.11,2.84h.09c.65-1.92,2.25-3.13,4-3.13,.27,0,.47,.03,.71,.06v2.45c-.27-.06-.54-.06-.89-.06-1.83,0-3.14,1.35-3.5,3.31-.06,.35-.09,.8-.09,1.21v7.63s-2.62,0-2.62,0l.02-9.85Z"/>
      <path class="cls-19" d="M176.6,110.35h.06c.36-.5,.83-1.12,1.25-1.62l4.24-4.93h3.1s-5.51,5.88-5.51,5.88l6.28,8.44h-3.19s-4.89-6.88-4.89-6.88l-1.33,1.48v5.38s-2.58,0-2.58,0l.04-21h2.57s-.03,13.25-.03,13.25Z"/>
      <path class="cls-19" d="M187.53,115.49c.8,.47,2.16,1.01,3.46,1.01,1.86,0,2.75-.91,2.75-2.12,0-1.24-.74-1.89-2.63-2.61-2.6-.95-3.81-2.34-3.81-4.06,0-2.31,1.9-4.2,4.95-4.19,1.45,0,2.72,.39,3.49,.89l-.62,1.89c-.56-.36-1.59-.86-2.93-.86-1.54,0-2.37,.88-2.37,1.95,0,1.18,.83,1.72,2.69,2.46,2.45,.92,3.75,2.17,3.75,4.29,0,2.54-1.99,4.31-5.33,4.31-1.57,0-3.02-.42-4.02-1.01l.62-1.95Z"/>
    </g>
    <rect class="cls-4" x="110.7" y="209.74" width="24.92" height="24.92"/>
    <rect class="cls-4" x="135.62" y="209.74" width="24.92" height="24.92"/>
    <rect class="cls-4" x="160.56" y="209.74" width="24.92" height="24.92"/>
    <rect class="cls-4" x="185.14" y="134.92" width="24.92" height="24.92"/>
    <rect class="cls-4" x="185.14" y="159.83" width="24.92" height="24.92"/>
    <rect class="cls-4" x="185.14" y="184.75" width="24.92" height="24.92"/>
    <rect class="cls-4" x="185.14" y="209.74" width="24.92" height="24.92"/>
    <rect class="cls-4" x="86.1" y="209.75" width="24.92" height="24.92" transform="translate(-123.65 320.76) rotate(-90)"/>
    <rect class="cls-4" x="86.1" y="184.83" width="24.92" height="24.92" transform="translate(-98.74 295.84) rotate(-90)"/>
    <rect class="cls-4" x="86.1" y="159.92" width="24.92" height="24.92" transform="translate(-73.82 270.93) rotate(-90)"/>
    <rect class="cls-4" x="86.1" y="135" width="24.92" height="24.92" transform="translate(-48.91 246.01) rotate(-90)"/>
    <rect class="cls-18" x="36.88" y="135" width="49.52" height="99.66"/>
    <rect class="cls-4" x="61.49" y="134.92" width="24.92" height="24.92"/>
    <rect class="cls-4" x="61.49" y="159.83" width="24.92" height="24.92"/>
    <rect class="cls-4" x="61.49" y="184.75" width="24.92" height="24.92"/>
    <rect class="cls-4" x="61.49" y="209.74" width="24.92" height="24.92"/>
    <rect class="cls-4" x="36.88" y="209.75" width="24.92" height="24.92" transform="translate(-172.87 271.55) rotate(-90)"/>
    <rect class="cls-4" x="36.88" y="184.83" width="24.92" height="24.92" transform="translate(-147.95 246.63) rotate(-90)"/>
    <rect class="cls-4" x="36.88" y="159.92" width="24.92" height="24.92" transform="translate(-123.03 221.72) rotate(-90)"/>
    <rect class="cls-4" x="36.88" y="135" width="24.92" height="24.92" transform="translate(-98.12 196.8) rotate(-90)"/>
    <g>
      <path class="cls-19" d="M289.18,135.13c-2.18,.12-4.83,.25-6.76,.25v.05c1.81,.56,3.79,1.18,5.95,1.97l7.59,2.76v1.53l-7.46,2.55c-2.23,.74-4.23,1.35-6.08,1.79v.05c1.95,.05,4.55,.16,6.92,.3l6.71,.42v1.93l-15.65-1.09v-2.58l7.57-2.67c1.93-.65,3.65-1.16,5.27-1.58v-.05c-1.58-.42-3.3-.98-5.27-1.67l-7.57-2.79v-2.58l15.65-.98v2l-6.87,.37Z"/>
      <path class="cls-19" d="M290.35,119.41c4.16,0,5.97,2.9,5.97,5.6,0,3.02-2.23,5.39-5.78,5.39-3.74,0-5.95-2.48-5.95-5.57s2.35-5.41,5.76-5.41Zm.12,8.89c2.46,0,4.32-1.39,4.32-3.39s-1.83-3.41-4.37-3.41c-1.9,0-4.3,.95-4.3,3.37s2.23,3.44,4.34,3.44Z"/>
      <path class="cls-19" d="M279.57,107.14h13.59c1,0,2.14-.05,2.9-.09v1.81l-1.95,.09v.07c1.25,.6,2.21,1.95,2.21,3.79,0,2.72-2.3,4.83-5.71,4.83-3.74,.02-6.01-2.32-6.01-5.04,0-1.74,.81-2.88,1.7-3.39v-.05h-6.71v-2.02Zm9.82,2.02c-.26,0-.6,.02-.86,.09-1.28,.3-2.35,1.42-2.35,2.95,0,2.11,1.86,3.37,4.32,3.37,2.28,0,4.16-1.14,4.16-3.32,0-1.37-.93-2.62-2.44-3-.28-.07-.56-.09-.88-.09h-1.95Z"/>
      <path class="cls-19" d="M290.81,102.59c2.76-.05,3.9-1.79,3.9-3.86,0-1.46-.26-2.37-.58-3.11l1.46-.37c.33,.72,.72,1.97,.72,3.76,0,3.46-2.3,5.53-5.69,5.53s-6.04-2-6.04-5.27c0-3.69,3.21-4.64,5.27-4.64,.42,0,.72,.02,.95,.07v7.9Zm-1.46-5.99c-1.28-.02-3.3,.53-3.3,2.83,0,2.09,1.88,2.97,3.3,3.14v-5.97Z"/>
      <path class="cls-19" d="M279.57,92.09v-2.04h16.49v2.04h-16.49Z"/>
      <path class="cls-19" d="M293.99,86.89c.37-.63,.79-1.7,.79-2.72,0-1.46-.72-2.16-1.67-2.16s-1.49,.58-2.04,2.07c-.74,2.04-1.83,3-3.18,3-1.81,0-3.3-1.49-3.3-3.88,0-1.14,.3-2.14,.7-2.74l1.49,.49c-.28,.44-.67,1.25-.67,2.3,0,1.21,.7,1.86,1.53,1.86,.93,0,1.35-.65,1.93-2.11,.72-1.93,1.7-2.95,3.37-2.95,2,0,3.39,1.56,3.39,4.18,0,1.23-.33,2.37-.79,3.16l-1.53-.49Z"/>
    </g>
    <rect class="cls-4" x="377.36" y="64.85" width="24.92" height="24.92"/>
    <rect class="cls-4" x="377.36" y="89.77" width="24.92" height="24.92"/>
    <rect class="cls-4" x="377.36" y="114.68" width="24.92" height="24.92"/>
    <g>
      <path class="cls-19" d="M301.34,50.02c-.9,.46-2.77,.92-5.14,.92-5.49,0-9.59-3.47-9.59-9.88s4.13-10.23,10.17-10.23c2.4,0,3.96,.52,4.62,.87l-.64,2.05c-.92-.46-2.28-.81-3.9-.81-4.56,0-7.6,2.92-7.6,8.03,0,4.79,2.74,7.83,7.45,7.83,1.56,0,3.12-.32,4.13-.81l.49,2.02Z"/>
      <path class="cls-19" d="M314.05,47.28c0,1.21,.06,2.4,.2,3.35h-2.28l-.2-1.76h-.09c-.78,1.1-2.28,2.08-4.27,2.08-2.83,0-4.28-1.99-4.28-4.01,0-3.38,3-5.23,8.41-5.2v-.29c0-1.13-.32-3.24-3.18-3.21-1.33,0-2.69,.38-3.67,1.04l-.58-1.7c1.16-.72,2.86-1.21,4.62-1.21,4.28,0,5.32,2.92,5.32,5.69v5.23Zm-2.46-3.78c-2.77-.06-5.92,.43-5.92,3.15,0,1.68,1.1,2.43,2.37,2.43,1.85,0,3.03-1.16,3.44-2.34,.09-.29,.12-.58,.12-.81v-2.43Z"/>
      <path class="cls-19" d="M318.15,41.21c0-1.79-.06-3.24-.12-4.56h2.25l.14,2.4h.06c1.01-1.7,2.69-2.69,4.97-2.69,3.41,0,5.95,2.86,5.95,7.08,0,5.03-3.09,7.51-6.38,7.51-1.85,0-3.47-.81-4.3-2.2h-.06v7.6h-2.51v-15.13Zm2.51,3.73c0,.38,.03,.72,.12,1.04,.46,1.76,1.99,2.97,3.81,2.97,2.69,0,4.25-2.19,4.25-5.4,0-2.77-1.47-5.17-4.16-5.17-1.73,0-3.38,1.21-3.84,3.12-.09,.32-.17,.69-.17,1.01v2.43Z"/>
      <path class="cls-19" d="M344.41,47.28c0,1.21,.06,2.4,.2,3.35h-2.28l-.2-1.76h-.09c-.78,1.1-2.28,2.08-4.27,2.08-2.83,0-4.28-1.99-4.28-4.01,0-3.38,3-5.23,8.41-5.2v-.29c0-1.13-.32-3.24-3.18-3.21-1.33,0-2.69,.38-3.67,1.04l-.58-1.7c1.16-.72,2.86-1.21,4.62-1.21,4.28,0,5.32,2.92,5.32,5.69v5.23Zm-2.46-3.78c-2.77-.06-5.92,.43-5.92,3.15,0,1.68,1.1,2.43,2.37,2.43,1.85,0,3.03-1.16,3.44-2.34,.09-.29,.12-.58,.12-.81v-2.43Z"/>
      <path class="cls-19" d="M348.52,30.12h2.51v8.78h.06c.9-1.56,2.51-2.54,4.77-2.54,3.5,0,5.92,2.89,5.92,7.11,0,5-3.18,7.48-6.3,7.48-2.02,0-3.64-.78-4.71-2.6h-.06l-.14,2.28h-2.17c.06-.95,.12-2.37,.12-3.61V30.12Zm2.51,14.9c0,.32,.03,.64,.12,.92,.46,1.76,1.96,2.98,3.81,2.98,2.69,0,4.25-2.17,4.25-5.37,0-2.8-1.44-5.2-4.19-5.2-1.7,0-3.32,1.21-3.84,3.12-.09,.32-.14,.66-.14,1.07v2.48Z"/>
      <path class="cls-19" d="M367.79,32.72c0,.87-.61,1.56-1.62,1.56-.92,0-1.53-.69-1.53-1.56s.64-1.59,1.59-1.59,1.56,.69,1.56,1.59Zm-2.83,17.91v-13.98h2.54v13.98h-2.54Z"/>
      <path class="cls-19" d="M371.72,30.12h2.54v20.51h-2.54V30.12Z"/>
      <path class="cls-19" d="M381.37,32.72c0,.87-.61,1.56-1.62,1.56-.92,0-1.53-.69-1.53-1.56s.64-1.59,1.59-1.59,1.56,.69,1.56,1.59Zm-2.83,17.91v-13.98h2.54v13.98h-2.54Z"/>
      <path class="cls-19" d="M388.36,33.3v3.35h3.64v1.94h-3.64v7.54c0,1.73,.49,2.71,1.91,2.71,.69,0,1.1-.06,1.47-.17l.12,1.93c-.49,.17-1.27,.35-2.25,.35-1.18,0-2.14-.4-2.74-1.07-.69-.78-.98-2.02-.98-3.67v-7.63h-2.17v-1.94h2.17v-2.6l2.48-.75Z"/>
      <path class="cls-19" d="M397.69,32.72c0,.87-.61,1.56-1.62,1.56-.92,0-1.53-.69-1.53-1.56s.64-1.59,1.59-1.59,1.56,.69,1.56,1.59Zm-2.83,17.91v-13.98h2.54v13.98h-2.54Z"/>
      <path class="cls-19" d="M403.04,44.1c.06,3.44,2.22,4.85,4.79,4.85,1.82,0,2.95-.32,3.87-.72l.46,1.82c-.9,.41-2.46,.9-4.68,.9-4.3,0-6.88-2.86-6.88-7.08s2.48-7.51,6.56-7.51c4.59,0,5.78,3.99,5.78,6.56,0,.52-.03,.9-.09,1.18h-9.82Zm7.45-1.82c.03-1.59-.67-4.1-3.52-4.1-2.6,0-3.7,2.34-3.9,4.1h7.42Z"/>
      <path class="cls-19" d="M415.75,48.06c.78,.46,2.11,.98,3.38,.98,1.82,0,2.69-.9,2.69-2.08s-.72-1.85-2.57-2.54c-2.54-.92-3.73-2.28-3.73-3.96,0-2.25,1.85-4.1,4.82-4.1,1.42,0,2.66,.38,3.41,.87l-.61,1.85c-.55-.35-1.56-.84-2.86-.84-1.5,0-2.31,.87-2.31,1.91,0,1.16,.81,1.68,2.63,2.4,2.4,.9,3.67,2.11,3.67,4.19,0,2.48-1.94,4.22-5.2,4.22-1.53,0-2.95-.4-3.93-.98l.61-1.91Z"/>
    </g>
    <rect class="cls-4" x="377.36" y="139.68" width="24.92" height="24.92"/>
    <rect class="cls-4" x="352.76" y="139.68" width="24.92" height="24.92" transform="translate(213.08 517.36) rotate(-90)"/>
    <rect class="cls-4" x="352.76" y="114.77" width="24.92" height="24.92" transform="translate(237.99 492.44) rotate(-90)"/>
    <rect class="cls-4" x="352.76" y="89.85" width="24.92" height="24.92" transform="translate(262.91 467.52) rotate(-90)"/>
    <rect class="cls-4" x="352.76" y="64.93" width="24.92" height="24.92" transform="translate(287.82 442.61) rotate(-90)"/>
    <rect class="cls-18" x="304.19" y="64.93" width="49.52" height="99.66"/>
    <rect class="cls-4" x="328.8" y="64.85" width="24.92" height="24.92"/>
    <rect class="cls-4" x="328.8" y="89.77" width="24.92" height="24.92"/>
    <rect class="cls-4" x="328.8" y="114.68" width="24.92" height="24.92"/>
    <rect class="cls-4" x="328.8" y="139.68" width="24.92" height="24.92"/>
    <rect class="cls-4" x="304.19" y="139.68" width="24.92" height="24.92" transform="translate(164.51 468.79) rotate(-90)"/>
    <rect class="cls-4" x="304.19" y="114.77" width="24.92" height="24.92" transform="translate(189.43 443.88) rotate(-90)"/>
    <rect class="cls-4" x="304.19" y="89.85" width="24.92" height="24.92" transform="translate(214.34 418.96) rotate(-90)"/>
    <rect class="cls-4" x="304.19" y="64.93" width="24.92" height="24.92" transform="translate(239.26 394.05) rotate(-90)"/>
    <g>
      <path class="cls-19" d="M288.86,297.29c-2.23,.12-4.93,.26-6.9,.26v.05c1.85,.57,3.87,1.21,6.07,2.01l7.75,2.82v1.56l-7.61,2.61c-2.28,.76-4.32,1.38-6.21,1.83v.05c1.99,.05,4.65,.17,7.07,.31l6.85,.43v1.97l-15.98-1.12v-2.63l7.73-2.73c1.97-.66,3.72-1.19,5.38-1.61v-.05c-1.61-.43-3.37-1-5.38-1.71l-7.73-2.85v-2.63l15.98-1v2.04l-7.02,.38Z"/>
      <path class="cls-19" d="M290.05,281.23c4.24,0,6.09,2.96,6.09,5.71,0,3.08-2.28,5.5-5.9,5.5-3.82,0-6.07-2.54-6.07-5.69s2.39-5.53,5.88-5.53Zm.12,9.08c2.51,0,4.41-1.42,4.41-3.46s-1.87-3.49-4.46-3.49c-1.94,0-4.39,.97-4.39,3.44s2.28,3.51,4.43,3.51Z"/>
      <path class="cls-19" d="M279.04,268.71h13.87c1.02,0,2.18-.05,2.96-.09v1.85l-1.99,.09v.07c1.28,.62,2.25,1.99,2.25,3.87,0,2.77-2.35,4.93-5.83,4.93-3.82,.02-6.14-2.37-6.14-5.15,0-1.78,.83-2.94,1.73-3.46v-.05h-6.85v-2.06Zm10.03,2.06c-.26,0-.62,.02-.88,.09-1.3,.31-2.4,1.45-2.4,3.01,0,2.16,1.9,3.44,4.41,3.44,2.32,0,4.24-1.16,4.24-3.39,0-1.4-.95-2.68-2.49-3.06-.29-.07-.57-.09-.9-.09h-1.99Z"/>
      <path class="cls-19" d="M290.52,264.07c2.82-.05,3.98-1.83,3.98-3.94,0-1.49-.26-2.42-.59-3.18l1.49-.38c.33,.74,.74,2.02,.74,3.84,0,3.53-2.35,5.64-5.81,5.64s-6.17-2.04-6.17-5.38c0-3.77,3.27-4.74,5.38-4.74,.43,0,.74,.02,.97,.07v8.06Zm-1.49-6.12c-1.3-.02-3.37,.55-3.37,2.89,0,2.13,1.92,3.04,3.37,3.2v-6.09Z"/>
      <path class="cls-19" d="M279.04,253.35v-2.09h16.84v2.09h-16.84Z"/>
      <path class="cls-19" d="M293.77,248.04c.38-.64,.81-1.73,.81-2.77,0-1.49-.74-2.21-1.71-2.21s-1.52,.59-2.09,2.11c-.76,2.09-1.87,3.06-3.25,3.06-1.85,0-3.37-1.52-3.37-3.96,0-1.16,.31-2.18,.71-2.8l1.52,.5c-.29,.45-.69,1.28-.69,2.35,0,1.23,.71,1.9,1.57,1.9,.95,0,1.38-.66,1.97-2.16,.74-1.97,1.73-3.01,3.44-3.01,2.04,0,3.46,1.59,3.46,4.27,0,1.26-.33,2.42-.81,3.22l-1.57-.5Z"/>
    </g>
    <rect class="cls-4" x="354.23" y="230.99" width="24.92" height="24.92"/>
    <rect class="cls-4" x="354.23" y="255.9" width="24.92" height="24.92"/>
    <rect class="cls-4" x="354.23" y="280.82" width="24.92" height="24.92"/>
    <g>
      <path class="cls-19" d="M302.98,212.8c1.17,.75,2.84,1.31,4.63,1.31,2.66,0,4.21-1.4,4.21-3.44,0-1.85-1.08-2.96-3.8-3.97-3.29-1.2-5.32-2.93-5.32-5.74,0-3.14,2.6-5.47,6.52-5.47,2.03,0,3.56,.48,4.42,.99l-.72,2.12c-.63-.39-1.97-.96-3.8-.96-2.75,0-3.8,1.64-3.8,3.02,0,1.88,1.23,2.81,4,3.89,3.41,1.31,5.11,2.96,5.11,5.92,0,3.11-2.27,5.83-7.03,5.83-1.94,0-4.06-.6-5.14-1.32l.69-2.18Z"/>
      <path class="cls-19" d="M328.2,212.5c0,1.26,.06,2.48,.21,3.47h-2.36l-.21-1.82h-.09c-.81,1.13-2.36,2.15-4.42,2.15-2.93,0-4.42-2.06-4.42-4.16,0-3.5,3.11-5.41,8.7-5.38v-.3c0-1.17-.33-3.35-3.29-3.32-1.38,0-2.78,.39-3.8,1.08l-.6-1.76c1.2-.75,2.96-1.26,4.78-1.26,4.42,0,5.5,3.02,5.5,5.89v5.41Zm-2.54-3.92c-2.87-.06-6.13,.45-6.13,3.26,0,1.73,1.14,2.51,2.45,2.51,1.91,0,3.14-1.2,3.56-2.42,.09-.3,.12-.6,.12-.84v-2.51Z"/>
      <path class="cls-19" d="M332.72,215.97v-12.46h-2v-2h2v-.69c0-2.03,.48-3.89,1.67-5.05,.99-.96,2.3-1.34,3.53-1.34,.96,0,1.73,.21,2.24,.42l-.36,2.03c-.39-.18-.9-.33-1.67-.33-2.24,0-2.81,1.94-2.81,4.19v.78h3.5v2h-3.5v12.46h-2.6Z"/>
      <path class="cls-19" d="M342.25,209.22c.06,3.56,2.3,5.02,4.96,5.02,1.88,0,3.05-.33,4-.75l.48,1.88c-.93,.42-2.54,.93-4.84,.93-4.45,0-7.11-2.96-7.11-7.32s2.57-7.77,6.79-7.77c4.75,0,5.98,4.12,5.98,6.79,0,.54-.03,.93-.09,1.22h-10.16Zm7.71-1.88c.03-1.64-.69-4.24-3.65-4.24-2.69,0-3.83,2.42-4.04,4.24h7.68Z"/>
      <path class="cls-19" d="M358.93,198.04v3.47h3.77v2h-3.77v7.8c0,1.79,.51,2.81,1.97,2.81,.72,0,1.14-.06,1.52-.18l.12,2c-.51,.18-1.32,.36-2.33,.36-1.23,0-2.21-.42-2.84-1.11-.72-.81-1.02-2.09-1.02-3.79v-7.89h-2.24v-2h2.24v-2.69l2.57-.78Z"/>
      <path class="cls-19" d="M366.88,201.5l3.14,8.55c.36,.96,.72,2.09,.96,2.96h.06c.27-.87,.57-1.97,.93-3.02l2.87-8.49h2.78l-3.95,10.31c-1.88,4.96-3.17,7.47-4.96,9.06-1.32,1.11-2.57,1.55-3.23,1.67l-.66-2.18c.66-.21,1.52-.63,2.3-1.29,.72-.57,1.58-1.58,2.21-2.93,.12-.27,.21-.48,.21-.63s-.06-.36-.21-.69l-5.32-13.33h2.87Z"/>
    </g>
    <rect class="cls-4" x="354.23" y="305.81" width="24.92" height="24.92"/>
    <rect class="cls-4" x="329.62" y="305.82" width="24.92" height="24.92" transform="translate(23.8 660.36) rotate(-90)"/>
    <rect class="cls-4" x="329.62" y="280.9" width="24.92" height="24.92" transform="translate(48.72 635.44) rotate(-90)"/>
    <rect class="cls-4" x="329.62" y="255.99" width="24.92" height="24.92" transform="translate(73.63 610.52) rotate(-90)"/>
    <rect class="cls-4" x="329.62" y="231.07" width="24.92" height="24.92" transform="translate(98.55 585.61) rotate(-90)"/>
    <rect class="cls-4" x="304.51" y="230.99" width="24.92" height="24.92"/>
    <rect class="cls-4" x="304.51" y="255.9" width="24.92" height="24.92"/>
    <rect class="cls-4" x="304.51" y="280.82" width="24.92" height="24.92"/>
    <rect class="cls-4" x="304.51" y="305.81" width="24.92" height="24.92"/>
    <polygon points="259.53 118.02 270.5 113.53 259.94 107.81 259.53 118.02"/>
    <polygon points="256.5 271.78 267.19 276.89 256.31 281.99 256.5 271.78"/>
    <polyline class="cls-1" points="1007.56 98.15 1007.56 291.89 1218.22 291.89"/>
    <g>
      <path class="cls-17" d="M1026.96,324.83c-.82,.42-2.53,.84-4.69,.84-5,0-8.74-3.16-8.74-9.01s3.77-9.32,9.27-9.32c2.19,0,3.61,.47,4.21,.79l-.58,1.87c-.84-.42-2.08-.74-3.56-.74-4.16,0-6.93,2.66-6.93,7.32,0,4.37,2.5,7.14,6.79,7.14,1.42,0,2.84-.29,3.77-.74l.45,1.84Z"/>
      <path class="cls-17" d="M1038.55,322.33c0,1.11,.05,2.19,.18,3.05h-2.08l-.18-1.61h-.08c-.71,1-2.08,1.9-3.9,1.9-2.58,0-3.9-1.82-3.9-3.66,0-3.08,2.74-4.77,7.66-4.74v-.26c0-1.03-.29-2.95-2.9-2.92-1.21,0-2.45,.34-3.34,.95l-.53-1.55c1.05-.66,2.61-1.11,4.21-1.11,3.9,0,4.85,2.66,4.85,5.19v4.77Zm-2.24-3.45c-2.53-.05-5.4,.39-5.4,2.87,0,1.53,1,2.21,2.16,2.21,1.69,0,2.76-1.05,3.13-2.13,.08-.26,.11-.53,.11-.74v-2.21Z"/>
      <path class="cls-17" d="M1042.29,316.8c0-1.63-.05-2.95-.11-4.16h2.05l.13,2.19h.05c.92-1.55,2.45-2.45,4.53-2.45,3.11,0,5.42,2.61,5.42,6.45,0,4.58-2.82,6.85-5.82,6.85-1.69,0-3.16-.74-3.92-2h-.05v6.93h-2.29v-13.8Zm2.29,3.4c0,.34,.03,.66,.11,.95,.42,1.61,1.82,2.71,3.48,2.71,2.45,0,3.87-2,3.87-4.93,0-2.53-1.34-4.71-3.79-4.71-1.58,0-3.08,1.11-3.5,2.85-.08,.29-.16,.63-.16,.92v2.21Z"/>
      <path class="cls-17" d="M1066.22,322.33c0,1.11,.05,2.19,.18,3.05h-2.08l-.18-1.61h-.08c-.71,1-2.08,1.9-3.9,1.9-2.58,0-3.9-1.82-3.9-3.66,0-3.08,2.74-4.77,7.66-4.74v-.26c0-1.03-.29-2.95-2.9-2.92-1.21,0-2.45,.34-3.34,.95l-.53-1.55c1.05-.66,2.61-1.11,4.21-1.11,3.9,0,4.85,2.66,4.85,5.19v4.77Zm-2.24-3.45c-2.53-.05-5.4,.39-5.4,2.87,0,1.53,1,2.21,2.16,2.21,1.69,0,2.76-1.05,3.13-2.13,.08-.26,.11-.53,.11-.74v-2.21Z"/>
      <path class="cls-17" d="M1069.96,306.69h2.29v8.01h.05c.82-1.42,2.29-2.32,4.35-2.32,3.19,0,5.4,2.63,5.4,6.48,0,4.55-2.9,6.82-5.74,6.82-1.84,0-3.32-.71-4.29-2.37h-.05l-.13,2.08h-1.98c.05-.87,.11-2.16,.11-3.29v-15.41Zm2.29,13.59c0,.29,.03,.58,.11,.84,.42,1.61,1.79,2.71,3.48,2.71,2.45,0,3.87-1.97,3.87-4.9,0-2.55-1.32-4.74-3.82-4.74-1.55,0-3.03,1.11-3.5,2.84-.08,.29-.13,.61-.13,.97v2.27Z"/>
      <path class="cls-17" d="M1087.53,309.06c0,.79-.55,1.42-1.48,1.42-.84,0-1.4-.63-1.4-1.42s.58-1.45,1.45-1.45,1.42,.63,1.42,1.45Zm-2.58,16.33v-12.75h2.32v12.75h-2.32Z"/>
      <path class="cls-17" d="M1091.11,306.69h2.32v18.7h-2.32v-18.7Z"/>
      <path class="cls-17" d="M1099.9,309.06c0,.79-.55,1.42-1.48,1.42-.84,0-1.4-.63-1.4-1.42s.58-1.45,1.45-1.45,1.42,.63,1.42,1.45Zm-2.58,16.33v-12.75h2.32v12.75h-2.32Z"/>
      <path class="cls-17" d="M1106.28,309.58v3.05h3.32v1.77h-3.32v6.87c0,1.58,.45,2.48,1.74,2.48,.63,0,1-.05,1.34-.16l.11,1.76c-.45,.16-1.16,.32-2.05,.32-1.08,0-1.95-.37-2.5-.97-.63-.71-.9-1.84-.9-3.34v-6.95h-1.98v-1.77h1.98v-2.37l2.26-.69Z"/>
      <path class="cls-17" d="M1114.78,309.06c0,.79-.55,1.42-1.48,1.42-.84,0-1.4-.63-1.4-1.42s.58-1.45,1.45-1.45,1.42,.63,1.42,1.45Zm-2.58,16.33v-12.75h2.32v12.75h-2.32Z"/>
      <path class="cls-17" d="M1119.65,319.43c.05,3.13,2.03,4.43,4.37,4.43,1.66,0,2.69-.29,3.53-.66l.42,1.66c-.82,.37-2.24,.82-4.27,.82-3.92,0-6.27-2.61-6.27-6.45s2.26-6.85,5.98-6.85c4.19,0,5.27,3.63,5.27,5.98,0,.47-.03,.82-.08,1.08h-8.96Zm6.79-1.66c.03-1.45-.61-3.74-3.21-3.74-2.37,0-3.37,2.13-3.56,3.74h6.77Z"/>
      <path class="cls-17" d="M1131.24,323.04c.71,.42,1.92,.89,3.08,.89,1.66,0,2.45-.82,2.45-1.9s-.66-1.69-2.34-2.32c-2.32-.84-3.4-2.08-3.4-3.61,0-2.05,1.69-3.74,4.4-3.74,1.29,0,2.42,.34,3.11,.79l-.55,1.69c-.5-.32-1.42-.76-2.61-.76-1.37,0-2.11,.79-2.11,1.74,0,1.05,.74,1.53,2.4,2.19,2.19,.82,3.34,1.92,3.34,3.82,0,2.27-1.76,3.85-4.74,3.85-1.4,0-2.69-.37-3.58-.89l.55-1.74Z"/>
      <path class="cls-17" d="M1147.36,322.59c1.03,.66,2.5,1.16,4.08,1.16,2.34,0,3.71-1.24,3.71-3.03,0-1.63-.95-2.61-3.34-3.5-2.9-1.05-4.69-2.58-4.69-5.06,0-2.77,2.29-4.82,5.74-4.82,1.79,0,3.13,.42,3.9,.87l-.63,1.87c-.55-.34-1.74-.84-3.34-.84-2.42,0-3.35,1.45-3.35,2.66,0,1.66,1.08,2.47,3.53,3.42,3,1.16,4.5,2.61,4.5,5.21,0,2.74-2,5.13-6.19,5.13-1.71,0-3.58-.53-4.53-1.16l.61-1.92Z"/>
      <path class="cls-17" d="M1169.79,324.94c-.61,.29-1.95,.74-3.66,.74-3.84,0-6.35-2.61-6.35-6.51s2.69-6.79,6.85-6.79c1.37,0,2.58,.34,3.21,.69l-.53,1.77c-.55-.29-1.42-.61-2.69-.61-2.92,0-4.5,2.19-4.5,4.82,0,2.95,1.9,4.77,4.42,4.77,1.32,0,2.19-.32,2.84-.61l.4,1.74Z"/>
      <path class="cls-17" d="M1183.88,318.91c0,4.71-3.29,6.77-6.35,6.77-3.42,0-6.11-2.53-6.11-6.56,0-4.24,2.82-6.74,6.32-6.74s6.14,2.66,6.14,6.53Zm-10.09,.13c0,2.79,1.58,4.9,3.84,4.9s3.87-2.08,3.87-4.95c0-2.16-1.08-4.87-3.82-4.87s-3.9,2.53-3.9,4.93Z"/>
      <path class="cls-17" d="M1186.81,316.61c0-1.5-.03-2.79-.11-3.98h2.03l.11,2.53h.08c.58-1.71,2-2.79,3.56-2.79,.24,0,.42,.03,.63,.05v2.19c-.24-.05-.47-.05-.79-.05-1.63,0-2.79,1.21-3.11,2.95-.05,.32-.08,.71-.08,1.08v6.79h-2.32v-8.77Z"/>
      <path class="cls-17" d="M1196.44,319.43c.05,3.13,2.03,4.43,4.37,4.43,1.66,0,2.69-.29,3.53-.66l.42,1.66c-.82,.37-2.24,.82-4.27,.82-3.92,0-6.27-2.61-6.27-6.45s2.26-6.85,5.98-6.85c4.19,0,5.27,3.63,5.27,5.98,0,.47-.03,.82-.08,1.08h-8.96Zm6.79-1.66c.03-1.45-.61-3.74-3.21-3.74-2.37,0-3.37,2.13-3.56,3.74h6.77Z"/>
    </g>
    <g>
      <path class="cls-20" d="M989.37,284.51c.63-.99,1.12-2.41,1.12-3.94,0-2.26-1.19-3.58-2.92-3.58-1.57,0-2.51,.91-3.38,3.22-1.02,2.79-2.49,4.52-4.88,4.52-2.67,0-4.65-2.21-4.65-5.54,0-1.73,.41-3.02,.84-3.76l1.8,.61c-.33,.53-.81,1.68-.81,3.22,0,2.34,1.4,3.22,2.56,3.22,1.6,0,2.39-1.04,3.3-3.4,1.12-2.89,2.51-4.34,5.03-4.34,2.64,0,4.95,1.93,4.95,5.97,0,1.65-.51,3.45-1.12,4.37l-1.85-.58Z"/>
      <path class="cls-20" d="M989.11,263.08c1.07,0,2.11-.05,2.95-.18v2.01l-1.55,.18v.08c.96,.69,1.83,2.01,1.83,3.76,0,2.49-1.75,3.76-3.53,3.76-2.97,0-4.6-2.64-4.57-7.39h-.25c-.99,0-2.84,.28-2.82,2.79,0,1.17,.33,2.36,.91,3.22l-1.5,.51c-.63-1.02-1.07-2.51-1.07-4.06,0-3.76,2.56-4.67,5-4.67h4.6Zm-3.33,2.16c-.05,2.44,.38,5.21,2.77,5.21,1.47,0,2.13-.96,2.13-2.08,0-1.62-1.02-2.67-2.06-3.02-.25-.08-.51-.1-.71-.1h-2.13Z"/>
      <path class="cls-20" d="M992.06,259.25h-10.59v1.7h-1.7v-1.7h-.58c-1.73,0-3.3-.41-4.29-1.42-.81-.84-1.14-1.96-1.14-3,0-.81,.18-1.47,.36-1.9l1.73,.3c-.15,.33-.28,.76-.28,1.42,0,1.9,1.65,2.39,3.55,2.39h.66v-2.97h1.7v2.97h10.59v2.21Z"/>
      <path class="cls-20" d="M986.32,251.15c3.02-.05,4.27-1.96,4.27-4.21,0-1.6-.28-2.59-.63-3.4l1.6-.41c.36,.79,.79,2.16,.79,4.11,0,3.78-2.51,6.04-6.22,6.04s-6.6-2.18-6.6-5.76c0-4.04,3.5-5.08,5.76-5.08,.46,0,.79,.03,1.04,.08v8.63Zm-1.6-6.55c-1.4-.03-3.61,.58-3.61,3.1,0,2.29,2.06,3.25,3.61,3.43v-6.53Z"/>
      <path class="cls-20" d="M976.82,236.98h2.95v-3.2h1.7v3.2h6.63c1.52,0,2.39-.43,2.39-1.68,0-.61-.05-.96-.15-1.29l1.7-.1c.15,.43,.3,1.12,.3,1.98,0,1.04-.36,1.88-.94,2.41-.69,.61-1.78,.86-3.22,.86h-6.7v1.9h-1.7v-1.9h-2.29l-.66-2.18Z"/>
      <path class="cls-20" d="M979.77,230.23l7.26-2.67c.81-.3,1.78-.61,2.51-.81v-.05c-.74-.23-1.68-.48-2.56-.79l-7.21-2.44v-2.36l8.76,3.35c4.21,1.6,6.35,2.69,7.69,4.21,.94,1.12,1.32,2.18,1.42,2.74l-1.85,.56c-.18-.56-.53-1.29-1.09-1.96-.48-.61-1.35-1.35-2.49-1.88-.23-.1-.41-.18-.53-.18s-.3,.05-.58,.18l-11.32,4.52v-2.44Z"/>
      <path class="cls-20" d="M975.2,213.63c-.23-.96-.38-2.51-.38-4.04,0-2.21,.38-3.63,1.24-4.67,.66-.89,1.68-1.45,3.02-1.45,1.68,0,3.12,1.12,3.76,2.89h.08c.38-1.62,1.73-3.53,4.27-3.53,1.47,0,2.62,.58,3.43,1.47,1.09,1.17,1.6,3.1,1.6,5.89,0,1.52-.1,2.69-.2,3.43h-16.81Zm7.01-2.21v-2.01c0-2.31-1.24-3.68-2.89-3.68-1.98,0-2.79,1.5-2.79,3.73,0,1.02,.08,1.6,.15,1.96h5.54Zm8.18,0c.08-.46,.1-1.07,.1-1.85,0-2.29-.84-4.39-3.33-4.39-2.31,0-3.3,2.01-3.3,4.42v1.83h6.53Z"/>
      <path class="cls-20" d="M986.32,198.6c3.02-.05,4.27-1.96,4.27-4.21,0-1.6-.28-2.59-.63-3.4l1.6-.41c.36,.79,.79,2.16,.79,4.11,0,3.78-2.51,6.04-6.22,6.04s-6.6-2.18-6.6-5.76c0-4.04,3.5-5.08,5.76-5.08,.46,0,.79,.03,1.04,.08v8.63Zm-1.6-6.55c-1.4-.03-3.61,.58-3.61,3.1,0,2.29,2.06,3.25,3.61,3.43v-6.53Z"/>
      <path class="cls-20" d="M983.09,187.12c-1.29,0-2.31,.03-3.33,.1v-1.98l2.03-.13v-.05c-1.14-.61-2.29-2.03-2.29-4.06,0-1.7,1.02-4.34,5.23-4.34h7.31v2.23h-7.08c-1.98,0-3.63,.74-3.63,2.84,0,1.45,1.04,2.59,2.29,3,.28,.1,.66,.15,1.04,.15h7.39v2.23h-8.96Z"/>
      <path class="cls-20" d="M991.62,164.27c.28,.58,.71,1.88,.71,3.53,0,3.71-2.51,6.12-6.27,6.12s-6.55-2.59-6.55-6.6c0-1.32,.33-2.49,.66-3.1l1.7,.51c-.28,.53-.58,1.37-.58,2.59,0,2.82,2.11,4.34,4.65,4.34,2.84,0,4.6-1.83,4.6-4.27,0-1.27-.3-2.11-.58-2.74l1.68-.38Z"/>
      <path class="cls-20" d="M974.03,161.66v-2.23h7.69v-.05c-.63-.36-1.22-.91-1.6-1.6-.38-.66-.61-1.45-.61-2.29,0-1.65,1.02-4.29,5.23-4.29h7.31v2.23h-7.06c-1.98,0-3.63,.74-3.63,2.84,0,1.45,1.02,2.56,2.21,3,.33,.13,.66,.15,1.07,.15h7.41v2.23h-18.03Z"/>
      <path class="cls-20" d="M983.09,147.57c-1.29,0-2.31,.05-3.33,.1v-1.96l2.01-.1v-.08c-1.17-.69-2.26-1.83-2.26-3.88,0-1.65,1.02-2.92,2.46-3.45v-.05c-.71-.38-1.22-.89-1.6-1.4-.56-.74-.86-1.52-.86-2.69,0-1.65,1.07-4.06,5.33-4.06h7.21v2.18h-6.93c-2.39,0-3.78,.89-3.78,2.67,0,1.29,.94,2.26,2.01,2.67,.33,.1,.71,.18,1.12,.18h7.59v2.18h-7.36c-1.96,0-3.35,.86-3.35,2.56,0,1.37,1.12,2.41,2.23,2.77,.3,.13,.71,.18,1.09,.18h7.39v2.18h-8.96Z"/>
      <path class="cls-20" d="M989.11,117.76c1.07,0,2.11-.05,2.95-.18v2.01l-1.55,.18v.08c.96,.69,1.83,2.01,1.83,3.76,0,2.49-1.75,3.76-3.53,3.76-2.97,0-4.6-2.64-4.57-7.39h-.25c-.99,0-2.84,.28-2.82,2.79,0,1.17,.33,2.36,.91,3.22l-1.5,.51c-.63-1.02-1.07-2.51-1.07-4.06,0-3.76,2.56-4.67,5-4.67h4.6Zm-3.33,2.16c-.05,2.44,.38,5.21,2.77,5.21,1.47,0,2.13-.96,2.13-2.08,0-1.62-1.02-2.67-2.06-3.02-.25-.08-.51-.1-.71-.1h-2.13Z"/>
      <path class="cls-20" d="M983.6,114.16c-1.45,0-2.69,.03-3.83,.1v-1.96l2.44-.1v-.08c-1.65-.56-2.69-1.93-2.69-3.43,0-.23,.03-.41,.05-.61h2.11c-.05,.23-.05,.46-.05,.76,0,1.57,1.17,2.69,2.84,3,.3,.05,.69,.08,1.04,.08h6.55v2.23h-8.46Z"/>
      <path class="cls-20" d="M985.4,103.55v-.05c-.43-.3-.96-.71-1.4-1.07l-4.24-3.63v-2.67l5.05,4.72,7.24-5.41v2.74l-5.89,4.21,1.27,1.14h4.62v2.21h-18.03v-2.21h11.38Z"/>
    </g>
    <polygon class="cls-6" points="1021.66 248.33 1045.48 287.03 1112.97 197.7 1204.27 147.1 1156.97 105.09 1100.07 185.81 1021.66 248.33"/>
    <rect class="cls-7" x="1006.19" y="191.49" width="198.77" height="3.52" transform="translate(193.45 847.21) rotate(-45.55)"/>
    <circle class="cls-7" cx="1107.43" cy="223.21" r="5.53"/>
    <circle class="cls-7" cx="1079.46" cy="237.3" r="5.53"/>
    <circle class="cls-7" cx="1058.3" cy="218.85" r="5.53"/>
    <circle class="cls-7" cx="1092.01" cy="190.53" r="5.53"/>
    <circle class="cls-7" cx="1118.59" cy="188.95" r="5.53"/>
    <circle class="cls-7" cx="1110.64" cy="170.43" r="5.53"/>
    <circle class="cls-7" cx="1154.98" cy="188.95" r="5.53"/>
    <circle class="cls-7" cx="1160.51" cy="157.29" r="5.53"/>
    <circle class="cls-7" cx="1126.42" cy="133.79" r="5.53"/>
    <circle class="cls-7" cx="1142.86" cy="118.53" r="5.53"/>
    <circle class="cls-7" cx="1049.73" cy="265.2" r="5.53"/>
    <line class="cls-2" x1="411.44" y1="114.79" x2="513.41" y2="114.79"/>
    <polygon points="513.41 120.94 524.88 115.7 513.41 110.07 513.41 120.94"/>
    <polyline class="cls-2" points="389.83 279.85 907.67 279.85 907.67 115.2 869.97 115.2"/>
    <g>
      <line class="cls-4" x1="624.08" y1="88.15" x2="599.66" y2="88.15"/>
      <polygon points="602.64 91.58 595.13 88.15 602.64 84.46 602.64 91.58"/>
    </g>
    <g>
      <line class="cls-4" x1="624.08" y1="112.55" x2="599.66" y2="112.55"/>
      <polygon points="602.64 115.98 595.13 112.55 602.64 108.86 602.64 115.98"/>
    </g>
    <g>
      <line class="cls-4" x1="624.08" y1="137.72" x2="599.66" y2="137.72"/>
      <polygon points="602.64 141.15 595.13 137.72 602.64 134.03 602.64 141.15"/>
    </g>
    <g>
      <line class="cls-4" x1="624.08" y1="162.12" x2="599.66" y2="162.12"/>
      <polygon points="602.64 165.55 595.13 162.12 602.64 158.43 602.64 165.55"/>
    </g>
    <g>
      <path d="M435.57,76.93c1.53-.25,3.53-.47,6.07-.47,3.13,0,5.42,.73,6.87,2.04,1.31,1.16,2.15,2.95,2.15,5.13s-.65,3.96-1.89,5.24c-1.71,1.78-4.4,2.69-7.49,2.69-.95,0-1.82-.04-2.55-.22v9.82h-3.16v-24.22Zm3.16,11.82c.69,.18,1.56,.25,2.62,.25,3.82,0,6.15-1.89,6.15-5.2s-2.33-4.84-5.78-4.84c-1.38,0-2.44,.11-2.98,.25v9.53Z"/>
      <path d="M472,100.38c-1.13,.58-3.49,1.16-6.47,1.16-6.91,0-12.07-4.36-12.07-12.44s5.2-12.87,12.8-12.87c3.02,0,4.98,.66,5.82,1.09l-.8,2.58c-1.16-.58-2.87-1.02-4.91-1.02-5.75,0-9.56,3.67-9.56,10.11,0,6.04,3.45,9.85,9.38,9.85,1.96,0,3.93-.4,5.2-1.02l.62,2.54Z"/>
      <path d="M480.11,93.43l-2.54,7.71h-3.27l8.36-24.51h3.78l8.36,24.51h-3.38l-2.62-7.71h-8.69Zm8.07-2.47l-2.44-7.05c-.55-1.6-.91-3.05-1.27-4.47h-.07c-.36,1.42-.73,2.95-1.24,4.44l-2.4,7.09h7.42Z"/>
    </g>
    <line class="cls-2" x1="907.91" y1="185.03" x2="939.26" y2="185.03"/>
    <polygon points="934.01 189.91 946.61 184.68 934.01 179.05 934.01 189.91"/>
    <rect class="cls-16" x="634.97" y="18.94" width="21.98" height="21.98"/>
    <rect class="cls-11" x="591" y="18.94" width="21.98" height="21.98"/>
    <rect class="cls-8" x="612.99" y="18.94" width="21.98" height="21.98"/>
    <rect class="cls-10" x="612.99" y="18.94" width="21.98" height="21.98"/>
    <rect class="cls-15" x="569.03" y="18.94" width="21.98" height="21.98"/>
    <rect class="cls-12" x="590.51" y="18.94" width="21.98" height="21.98"/>
    <rect class="cls-4" x="634.97" y="18.94" width="21.98" height="21.98"/>
    <rect class="cls-4" x="612.99" y="18.94" width="21.98" height="21.98"/>
    <rect class="cls-4" x="591.01" y="18.94" width="21.98" height="21.98"/>
    <rect class="cls-4" x="569.03" y="18.94" width="21.98" height="21.98"/>
    <g>
      <path class="cls-19" d="M677.72,9.1c.93-.16,2.15-.29,3.71-.29,1.91,0,3.31,.44,4.19,1.24,.8,.71,1.31,1.8,1.31,3.13s-.4,2.42-1.15,3.19c-1.04,1.09-2.68,1.64-4.57,1.64-.58,0-1.11-.02-1.55-.13v5.99h-1.93V9.1Zm1.93,7.21c.42,.11,.95,.16,1.6,.16,2.33,0,3.75-1.15,3.75-3.17s-1.42-2.95-3.53-2.95c-.84,0-1.49,.07-1.82,.16v5.81Z"/>
      <path class="cls-19" d="M689.11,16.49c0-1.26-.02-2.35-.09-3.35h1.71l.09,2.13h.07c.49-1.44,1.69-2.35,3-2.35,.2,0,.36,.02,.53,.04v1.84c-.2-.04-.4-.04-.67-.04-1.38,0-2.35,1.02-2.62,2.48-.04,.27-.07,.6-.07,.91v5.72h-1.95v-7.39Z"/>
      <path class="cls-19" d="M705.86,18.42c0,3.97-2.77,5.7-5.35,5.7-2.88,0-5.15-2.13-5.15-5.52,0-3.57,2.37-5.68,5.33-5.68s5.17,2.24,5.17,5.5Zm-8.5,.11c0,2.35,1.33,4.13,3.24,4.13s3.26-1.75,3.26-4.17c0-1.82-.91-4.1-3.22-4.1s-3.28,2.13-3.28,4.15Z"/>
      <path class="cls-19" d="M705.69,27.03c.91-.07,1.66-.31,2.13-.84,.53-.6,.75-1.44,.75-4.02V13.14h1.95v9.78c0,2.09-.33,3.44-1.29,4.42-.87,.87-2.29,1.22-3.33,1.22l-.22-1.53Zm5.06-16.91c0,.64-.44,1.2-1.24,1.2-.71,0-1.18-.55-1.18-1.2s.49-1.22,1.22-1.22,1.2,.55,1.2,1.22Z"/>
      <path class="cls-19" d="M714.81,18.87c.04,2.64,1.71,3.73,3.68,3.73,1.4,0,2.26-.24,2.97-.55l.36,1.4c-.69,.31-1.89,.69-3.59,.69-3.31,0-5.28-2.2-5.28-5.44s1.91-5.77,5.04-5.77c3.53,0,4.44,3.06,4.44,5.04,0,.4-.02,.69-.07,.91h-7.54Zm5.72-1.4c.02-1.22-.51-3.15-2.71-3.15-2,0-2.84,1.8-3,3.15h5.7Z"/>
      <path class="cls-19" d="M732.49,23.5c-.51,.24-1.64,.62-3.08,.62-3.24,0-5.35-2.2-5.35-5.48s2.26-5.72,5.77-5.72c1.15,0,2.17,.29,2.71,.58l-.44,1.49c-.47-.24-1.2-.51-2.26-.51-2.46,0-3.79,1.84-3.79,4.06,0,2.48,1.6,4.02,3.73,4.02,1.11,0,1.84-.27,2.4-.51l.33,1.46Z"/>
      <path class="cls-19" d="M737.42,10.57v2.57h2.79v1.49h-2.79v5.79c0,1.33,.38,2.08,1.46,2.08,.53,0,.84-.04,1.13-.13l.09,1.49c-.38,.13-.98,.27-1.73,.27-.91,0-1.64-.31-2.11-.82-.53-.6-.75-1.55-.75-2.82v-5.86h-1.66v-1.49h1.66v-2l1.91-.58Z"/>
      <path class="cls-19" d="M747.18,9.1c.93-.16,2.15-.29,3.71-.29,1.91,0,3.31,.44,4.19,1.24,.8,.71,1.31,1.8,1.31,3.13s-.4,2.42-1.15,3.19c-1.04,1.09-2.68,1.64-4.57,1.64-.58,0-1.11-.02-1.55-.13v5.99h-1.93V9.1Zm1.93,7.21c.42,.11,.95,.16,1.6,.16,2.33,0,3.75-1.15,3.75-3.17s-1.42-2.95-3.53-2.95c-.84,0-1.49,.07-1.82,.16v5.81Z"/>
      <path class="cls-19" d="M769.41,23.41c-.69,.35-2.13,.71-3.95,.71-4.22,0-7.37-2.66-7.37-7.59s3.17-7.85,7.81-7.85c1.84,0,3.04,.4,3.55,.67l-.49,1.58c-.71-.35-1.75-.62-3-.62-3.51,0-5.83,2.24-5.83,6.17,0,3.68,2.11,6.01,5.72,6.01,1.2,0,2.4-.24,3.17-.62l.38,1.55Z"/>
      <path class="cls-19" d="M775.41,11.28h-.04l-2.51,1.35-.38-1.49,3.15-1.69h1.66v14.42h-1.89V11.28Z"/>
      <path class="cls-19" d="M797.59,18.42c0,3.97-2.77,5.7-5.35,5.7-2.88,0-5.15-2.13-5.15-5.52,0-3.57,2.37-5.68,5.33-5.68s5.17,2.24,5.17,5.5Zm-8.5,.11c0,2.35,1.33,4.13,3.24,4.13s3.26-1.75,3.26-4.17c0-1.82-.91-4.1-3.22-4.1s-3.28,2.13-3.28,4.15Z"/>
      <path class="cls-19" d="M800.06,16.05c0-1.13-.02-2.02-.09-2.91h1.73l.11,1.78h.04c.53-1,1.77-2,3.55-2,1.49,0,3.79,.89,3.79,4.57v6.39h-1.95v-6.19c0-1.73-.64-3.17-2.48-3.17-1.26,0-2.26,.91-2.62,2-.09,.24-.13,.58-.13,.91v6.46h-1.95v-7.83Z"/>
      <path class="cls-19" d="M814.64,10.57v2.57h2.79v1.49h-2.79v5.79c0,1.33,.38,2.08,1.46,2.08,.53,0,.84-.04,1.13-.13l.09,1.49c-.38,.13-.98,.27-1.73,.27-.91,0-1.64-.31-2.11-.82-.53-.6-.75-1.55-.75-2.82v-5.86h-1.66v-1.49h1.66v-2l1.91-.58Z"/>
      <path class="cls-19" d="M829.22,18.42c0,3.97-2.77,5.7-5.35,5.7-2.88,0-5.15-2.13-5.15-5.52,0-3.57,2.37-5.68,5.33-5.68s5.17,2.24,5.17,5.5Zm-8.5,.11c0,2.35,1.33,4.13,3.24,4.13s3.26-1.75,3.26-4.17c0-1.82-.91-4.1-3.22-4.1s-3.28,2.13-3.28,4.15Z"/>
      <path class="cls-19" d="M673.17,34.76h1.93v6.74h.04c.69-1.2,1.93-1.95,3.66-1.95,2.68,0,4.55,2.22,4.55,5.46,0,3.84-2.44,5.75-4.84,5.75-1.55,0-2.8-.6-3.62-2h-.04l-.11,1.75h-1.66c.04-.73,.09-1.82,.09-2.77v-12.98Zm1.93,11.45c0,.24,.02,.49,.09,.71,.35,1.35,1.51,2.29,2.93,2.29,2.06,0,3.26-1.66,3.26-4.13,0-2.15-1.11-3.99-3.22-3.99-1.31,0-2.55,.93-2.95,2.4-.07,.24-.11,.51-.11,.82v1.91Z"/>
      <path class="cls-19" d="M686.89,45.49c.04,2.64,1.71,3.73,3.68,3.73,1.4,0,2.26-.24,2.97-.55l.36,1.4c-.69,.31-1.89,.69-3.59,.69-3.31,0-5.28-2.2-5.28-5.44s1.91-5.77,5.04-5.77c3.53,0,4.44,3.06,4.44,5.04,0,.4-.02,.69-.07,.91h-7.54Zm5.72-1.4c.02-1.22-.51-3.15-2.71-3.15-2,0-2.84,1.8-3,3.15h5.7Z"/>
      <path class="cls-19" d="M696.92,42.68c0-1.13-.02-2.02-.09-2.91h1.73l.11,1.78h.04c.53-1,1.77-2,3.55-2,1.49,0,3.79,.89,3.79,4.57v6.39h-1.95v-6.19c0-1.73-.64-3.17-2.48-3.17-1.26,0-2.26,.91-2.62,2-.09,.24-.13,.58-.13,.91v6.46h-1.95v-7.83Z"/>
      <path class="cls-19" d="M716.89,50.13c-.51,.24-1.64,.62-3.08,.62-3.24,0-5.35-2.2-5.35-5.48s2.26-5.72,5.77-5.72c1.15,0,2.17,.29,2.71,.58l-.44,1.49c-.47-.24-1.2-.51-2.26-.51-2.46,0-3.79,1.84-3.79,4.06,0,2.48,1.6,4.02,3.73,4.02,1.11,0,1.84-.27,2.4-.51l.33,1.46Z"/>
      <path class="cls-19" d="M719.17,34.76h1.95v6.72h.04c.31-.55,.8-1.06,1.4-1.4,.58-.33,1.26-.53,2-.53,1.44,0,3.75,.89,3.75,4.57v6.39h-1.95v-6.17c0-1.73-.64-3.17-2.48-3.17-1.26,0-2.24,.89-2.62,1.93-.11,.29-.13,.58-.13,.93v6.48h-1.95v-15.75Z"/>
      <path class="cls-19" d="M731.49,42.68c0-1.13-.04-2.02-.09-2.91h1.71l.09,1.75h.07c.6-1.02,1.6-1.97,3.39-1.97,1.44,0,2.55,.89,3.02,2.15h.04c.33-.62,.78-1.07,1.22-1.4,.64-.49,1.33-.75,2.35-.75,1.44,0,3.55,.93,3.55,4.66v6.3h-1.91v-6.06c0-2.09-.78-3.31-2.33-3.31-1.13,0-1.97,.82-2.33,1.75-.09,.29-.16,.62-.16,.98v6.63h-1.91v-6.43c0-1.71-.75-2.93-2.24-2.93-1.2,0-2.11,.98-2.42,1.95-.11,.27-.16,.62-.16,.95v6.46h-1.91v-7.83Z"/>
      <path class="cls-19" d="M757.54,47.93c0,.93,.04,1.84,.16,2.57h-1.75l-.16-1.35h-.07c-.6,.84-1.75,1.6-3.28,1.6-2.17,0-3.28-1.53-3.28-3.08,0-2.6,2.31-4.02,6.46-3.99v-.22c0-.87-.24-2.48-2.44-2.46-1.02,0-2.06,.29-2.82,.8l-.44-1.31c.89-.55,2.2-.93,3.55-.93,3.28,0,4.08,2.24,4.08,4.37v4.02Zm-1.89-2.91c-2.13-.04-4.55,.33-4.55,2.42,0,1.29,.84,1.86,1.82,1.86,1.42,0,2.33-.89,2.64-1.8,.07-.22,.09-.44,.09-.62v-1.86Z"/>
      <path class="cls-19" d="M760.69,43.12c0-1.26-.02-2.35-.09-3.35h1.71l.09,2.13h.07c.49-1.44,1.69-2.35,3-2.35,.2,0,.35,.02,.53,.04v1.84c-.2-.04-.4-.04-.67-.04-1.38,0-2.35,1.02-2.62,2.48-.04,.27-.07,.6-.07,.91v5.72h-1.95v-7.39Z"/>
      <path class="cls-19" d="M769.97,44.7h.04c.27-.38,.62-.84,.93-1.22l3.17-3.71h2.33l-4.13,4.42,4.73,6.32h-2.4l-3.68-5.15-1,1.11v4.04h-1.93v-15.75h1.93v9.94Z"/>
      <path class="cls-19" d="M782.88,48.53c.6,.36,1.62,.75,2.6,.75,1.4,0,2.06-.69,2.06-1.6s-.55-1.42-1.97-1.95c-1.95-.71-2.86-1.75-2.86-3.04,0-1.73,1.42-3.15,3.71-3.15,1.09,0,2.04,.29,2.62,.67l-.47,1.42c-.42-.27-1.2-.64-2.2-.64-1.15,0-1.78,.67-1.78,1.46,0,.89,.62,1.29,2.02,1.84,1.84,.69,2.82,1.62,2.82,3.22,0,1.91-1.49,3.24-3.99,3.24-1.18,0-2.26-.31-3.02-.75l.47-1.46Z"/>
      <path class="cls-19" d="M799.59,50.13c-.51,.24-1.64,.62-3.08,.62-3.24,0-5.35-2.2-5.35-5.48s2.26-5.72,5.77-5.72c1.15,0,2.17,.29,2.71,.58l-.44,1.49c-.47-.24-1.2-.51-2.26-.51-2.46,0-3.79,1.84-3.79,4.06,0,2.48,1.6,4.02,3.73,4.02,1.11,0,1.84-.27,2.4-.51l.33,1.46Z"/>
      <path class="cls-19" d="M811.46,45.05c0,3.97-2.77,5.7-5.35,5.7-2.88,0-5.15-2.13-5.15-5.52,0-3.57,2.37-5.68,5.33-5.68s5.17,2.24,5.17,5.5Zm-8.5,.11c0,2.35,1.33,4.13,3.24,4.13s3.26-1.75,3.26-4.17c0-1.82-.91-4.1-3.22-4.1s-3.28,2.13-3.28,4.15Z"/>
      <path class="cls-19" d="M813.93,43.12c0-1.26-.02-2.35-.09-3.35h1.71l.09,2.13h.07c.49-1.44,1.69-2.35,3-2.35,.2,0,.35,.02,.53,.04v1.84c-.2-.04-.4-.04-.67-.04-1.38,0-2.35,1.02-2.62,2.48-.04,.27-.07,.6-.07,.91v5.72h-1.95v-7.39Z"/>
      <path class="cls-19" d="M822.05,45.49c.04,2.64,1.71,3.73,3.68,3.73,1.4,0,2.26-.24,2.97-.55l.36,1.4c-.69,.31-1.89,.69-3.59,.69-3.31,0-5.28-2.2-5.28-5.44s1.91-5.77,5.04-5.77c3.53,0,4.44,3.06,4.44,5.04,0,.4-.02,.69-.07,.91h-7.54Zm5.72-1.4c.02-1.22-.51-3.15-2.71-3.15-2,0-2.84,1.8-3,3.15h5.7Z"/>
      <path class="cls-19" d="M831.81,48.53c.6,.36,1.62,.75,2.6,.75,1.4,0,2.06-.69,2.06-1.6s-.55-1.42-1.97-1.95c-1.95-.71-2.86-1.75-2.86-3.04,0-1.73,1.42-3.15,3.71-3.15,1.09,0,2.04,.29,2.62,.67l-.47,1.42c-.42-.27-1.2-.64-2.2-.64-1.15,0-1.78,.67-1.78,1.46,0,.89,.62,1.29,2.02,1.84,1.84,.69,2.82,1.62,2.82,3.22,0,1.91-1.49,3.24-3.99,3.24-1.18,0-2.26-.31-3.02-.75l.47-1.46Z"/>
    </g>
    <g>
      <path class="cls-3" d="M664.89,113.92c-.88,.45-2.72,.91-5.05,.91-5.39,0-9.41-3.4-9.41-9.7s4.05-10.04,9.98-10.04c2.35,0,3.88,.51,4.54,.85l-.62,2.01c-.91-.45-2.24-.79-3.83-.79-4.48,0-7.46,2.86-7.46,7.88,0,4.71,2.69,7.68,7.31,7.68,1.53,0,3.06-.31,4.05-.79l.48,1.98Z"/>
      <path class="cls-3" d="M677.37,111.22c0,1.19,.06,2.35,.2,3.29h-2.24l-.2-1.73h-.08c-.77,1.08-2.24,2.04-4.2,2.04-2.78,0-4.2-1.96-4.2-3.94,0-3.32,2.95-5.13,8.25-5.1v-.28c0-1.11-.31-3.17-3.12-3.15-1.3,0-2.64,.37-3.6,1.02l-.57-1.67c1.13-.71,2.81-1.19,4.54-1.19,4.2,0,5.22,2.86,5.22,5.58v5.13Zm-2.41-3.71c-2.72-.06-5.81,.43-5.81,3.09,0,1.64,1.08,2.38,2.32,2.38,1.81,0,2.98-1.13,3.37-2.3,.08-.28,.11-.57,.11-.79v-2.38Z"/>
      <path class="cls-3" d="M681.4,105.27c0-1.76-.06-3.18-.11-4.48h2.21l.14,2.35h.06c.99-1.67,2.64-2.64,4.88-2.64,3.35,0,5.84,2.81,5.84,6.95,0,4.93-3.03,7.37-6.27,7.37-1.81,0-3.4-.79-4.22-2.15h-.06v7.46h-2.47v-14.86Zm2.47,3.66c0,.37,.03,.71,.11,1.02,.45,1.73,1.96,2.92,3.74,2.92,2.64,0,4.17-2.15,4.17-5.3,0-2.72-1.45-5.07-4.08-5.07-1.7,0-3.32,1.19-3.77,3.06-.08,.31-.17,.68-.17,.99v2.38Z"/>
      <path class="cls-3" d="M707.17,111.22c0,1.19,.06,2.35,.2,3.29h-2.24l-.2-1.73h-.08c-.77,1.08-2.24,2.04-4.2,2.04-2.78,0-4.2-1.96-4.2-3.94,0-3.32,2.95-5.13,8.25-5.1v-.28c0-1.11-.31-3.17-3.12-3.15-1.3,0-2.64,.37-3.6,1.02l-.57-1.67c1.13-.71,2.81-1.19,4.54-1.19,4.2,0,5.22,2.86,5.22,5.58v5.13Zm-2.41-3.71c-2.72-.06-5.81,.43-5.81,3.09,0,1.64,1.08,2.38,2.32,2.38,1.81,0,2.98-1.13,3.37-2.3,.08-.28,.11-.57,.11-.79v-2.38Z"/>
      <path class="cls-3" d="M711.2,94.38h2.47v8.62h.06c.88-1.53,2.47-2.49,4.68-2.49,3.43,0,5.81,2.83,5.81,6.97,0,4.91-3.12,7.34-6.18,7.34-1.98,0-3.57-.77-4.62-2.55h-.06l-.14,2.24h-2.13c.06-.94,.11-2.33,.11-3.54v-16.58Zm2.47,14.63c0,.31,.03,.62,.11,.91,.45,1.73,1.93,2.92,3.74,2.92,2.64,0,4.17-2.13,4.17-5.27,0-2.75-1.42-5.1-4.11-5.1-1.67,0-3.26,1.19-3.77,3.06-.08,.31-.14,.65-.14,1.05v2.44Z"/>
      <path class="cls-3" d="M730.11,96.93c0,.85-.59,1.53-1.59,1.53-.91,0-1.5-.68-1.5-1.53s.62-1.56,1.56-1.56,1.53,.68,1.53,1.56Zm-2.78,17.58v-13.72h2.5v13.72h-2.5Z"/>
      <path class="cls-3" d="M733.97,94.38h2.5v20.13h-2.5v-20.13Z"/>
      <path class="cls-3" d="M743.44,96.93c0,.85-.59,1.53-1.59,1.53-.91,0-1.5-.68-1.5-1.53s.62-1.56,1.56-1.56,1.53,.68,1.53,1.56Zm-2.78,17.58v-13.72h2.5v13.72h-2.5Z"/>
      <path class="cls-3" d="M750.3,97.5v3.29h3.57v1.9h-3.57v7.4c0,1.7,.48,2.67,1.87,2.67,.68,0,1.08-.06,1.45-.17l.11,1.9c-.48,.17-1.25,.34-2.21,.34-1.16,0-2.1-.4-2.69-1.05-.68-.77-.96-1.98-.96-3.6v-7.48h-2.13v-1.9h2.13v-2.55l2.44-.74Z"/>
      <path class="cls-3" d="M757.84,100.79l2.98,8.11c.34,.91,.68,1.98,.91,2.81h.06c.25-.82,.54-1.87,.88-2.86l2.72-8.05h2.64l-3.74,9.78c-1.79,4.71-3,7.09-4.71,8.59-1.25,1.05-2.44,1.47-3.06,1.59l-.62-2.07c.62-.2,1.45-.6,2.18-1.22,.68-.54,1.5-1.5,2.1-2.78,.11-.25,.2-.45,.2-.59s-.06-.34-.2-.65l-5.05-12.64h2.72Z"/>
      <path class="cls-3" d="M776.08,111.51c1.11,.71,2.69,1.25,4.39,1.25,2.52,0,4-1.33,4-3.26,0-1.76-1.02-2.81-3.6-3.77-3.12-1.13-5.05-2.78-5.05-5.44,0-2.98,2.47-5.19,6.18-5.19,1.93,0,3.37,.45,4.2,.94l-.68,2.01c-.59-.37-1.87-.91-3.6-.91-2.61,0-3.6,1.56-3.6,2.86,0,1.79,1.16,2.67,3.8,3.69,3.23,1.25,4.85,2.81,4.85,5.61,0,2.95-2.15,5.53-6.66,5.53-1.84,0-3.86-.57-4.88-1.25l.65-2.07Z"/>
      <path class="cls-3" d="M800.24,114.03c-.65,.31-2.1,.79-3.94,.79-4.14,0-6.83-2.81-6.83-7s2.89-7.31,7.37-7.31c1.47,0,2.78,.37,3.46,.74l-.57,1.9c-.59-.31-1.53-.65-2.89-.65-3.15,0-4.85,2.35-4.85,5.19,0,3.18,2.04,5.13,4.76,5.13,1.42,0,2.35-.34,3.06-.65l.42,1.87Z"/>
      <path class="cls-3" d="M815.41,107.54c0,5.08-3.54,7.29-6.83,7.29-3.69,0-6.58-2.72-6.58-7.06,0-4.56,3.03-7.26,6.8-7.26s6.61,2.86,6.61,7.03Zm-10.86,.14c0,3.01,1.7,5.27,4.14,5.27s4.17-2.24,4.17-5.33c0-2.32-1.16-5.24-4.11-5.24s-4.2,2.72-4.2,5.3Z"/>
      <path class="cls-3" d="M818.56,105.07c0-1.62-.03-3.01-.11-4.28h2.18l.11,2.72h.08c.62-1.84,2.15-3,3.83-3,.25,0,.45,.03,.68,.06v2.35c-.26-.06-.51-.06-.85-.06-1.76,0-3,1.3-3.35,3.18-.06,.34-.08,.76-.08,1.16v7.31h-2.5v-9.44Z"/>
      <path class="cls-3" d="M828.93,108.1c.06,3.37,2.18,4.76,4.71,4.76,1.79,0,2.89-.31,3.8-.71l.45,1.79c-.88,.4-2.41,.88-4.59,.88-4.22,0-6.75-2.81-6.75-6.95s2.44-7.37,6.44-7.37c4.51,0,5.67,3.91,5.67,6.44,0,.51-.03,.88-.09,1.16h-9.64Zm7.31-1.79c.03-1.56-.65-4.03-3.46-4.03-2.55,0-3.63,2.3-3.83,4.03h7.29Z"/>
      <path class="cls-3" d="M841.41,111.99c.77,.45,2.07,.96,3.32,.96,1.79,0,2.64-.88,2.64-2.04s-.71-1.81-2.52-2.5c-2.5-.91-3.66-2.24-3.66-3.88,0-2.21,1.81-4.03,4.73-4.03,1.39,0,2.61,.37,3.35,.85l-.6,1.81c-.54-.34-1.53-.82-2.81-.82-1.47,0-2.27,.85-2.27,1.87,0,1.13,.79,1.64,2.58,2.35,2.35,.88,3.6,2.07,3.6,4.11,0,2.44-1.9,4.14-5.1,4.14-1.5,0-2.89-.4-3.86-.96l.6-1.87Z"/>
      <path class="cls-19" d="M663.89,148.54v-11.82h-1.9v-1.9h1.9v-.65c0-1.93,.45-3.69,1.59-4.79,.94-.91,2.18-1.28,3.35-1.28,.91,0,1.64,.2,2.13,.4l-.34,1.93c-.37-.17-.85-.31-1.59-.31-2.13,0-2.67,1.84-2.67,3.97v.74h3.32v1.9h-3.32v11.82h-2.47Z"/>
      <path class="cls-19" d="M683.96,141.56c0,5.08-3.54,7.29-6.83,7.29-3.69,0-6.58-2.72-6.58-7.06,0-4.56,3.03-7.26,6.8-7.26s6.61,2.86,6.61,7.03Zm-10.86,.14c0,3.01,1.7,5.27,4.14,5.27s4.17-2.24,4.17-5.33c0-2.32-1.16-5.24-4.11-5.24s-4.2,2.72-4.2,5.3Z"/>
      <path class="cls-19" d="M687.11,139.1c0-1.62-.03-3.01-.11-4.28h2.18l.11,2.72h.08c.62-1.84,2.15-3,3.83-3,.25,0,.45,.03,.68,.06v2.35c-.26-.06-.51-.06-.85-.06-1.76,0-3.01,1.3-3.35,3.18-.06,.34-.08,.77-.08,1.16v7.31h-2.5v-9.44Z"/>
      <path class="cls-19" d="M703.78,142.13c.06,3.37,2.18,4.76,4.71,4.76,1.79,0,2.89-.31,3.8-.71l.45,1.79c-.88,.4-2.41,.88-4.59,.88-4.22,0-6.75-2.81-6.75-6.95s2.44-7.37,6.44-7.37c4.51,0,5.67,3.91,5.67,6.44,0,.51-.03,.88-.09,1.16h-9.64Zm7.31-1.79c.03-1.56-.65-4.03-3.46-4.03-2.55,0-3.63,2.3-3.83,4.03h7.29Z"/>
      <path class="cls-19" d="M726.24,145.25c0,1.19,.06,2.35,.2,3.29h-2.24l-.2-1.73h-.08c-.77,1.08-2.24,2.04-4.2,2.04-2.78,0-4.2-1.96-4.2-3.94,0-3.32,2.95-5.13,8.25-5.1v-.28c0-1.11-.31-3.17-3.12-3.15-1.3,0-2.64,.37-3.6,1.02l-.57-1.67c1.13-.71,2.81-1.19,4.54-1.19,4.2,0,5.22,2.86,5.22,5.58v5.13Zm-2.41-3.71c-2.72-.06-5.81,.43-5.81,3.09,0,1.64,1.08,2.38,2.32,2.38,1.81,0,2.98-1.13,3.37-2.3,.08-.28,.11-.57,.11-.79v-2.38Z"/>
      <path class="cls-19" d="M740.05,148.06c-.65,.31-2.1,.79-3.94,.79-4.14,0-6.83-2.81-6.83-7s2.89-7.31,7.37-7.31c1.47,0,2.78,.37,3.46,.74l-.57,1.9c-.6-.31-1.53-.65-2.89-.65-3.15,0-4.85,2.35-4.85,5.19,0,3.18,2.04,5.13,4.76,5.13,1.42,0,2.35-.34,3.06-.65l.42,1.87Z"/>
      <path class="cls-19" d="M742.97,128.41h2.5v8.59h.06c.4-.71,1.02-1.36,1.79-1.79,.74-.42,1.62-.68,2.55-.68,1.84,0,4.79,1.13,4.79,5.84v8.17h-2.5v-7.88c0-2.21-.82-4.05-3.17-4.05-1.62,0-2.86,1.13-3.35,2.47-.14,.37-.17,.74-.17,1.19v8.28h-2.5v-20.13Z"/>
      <path class="cls-19" d="M764.72,138.53c0-1.45-.06-2.58-.11-3.71h2.18l.11,2.24h.08c.77-1.3,2.04-2.52,4.34-2.52,1.84,0,3.26,1.13,3.86,2.75h.06c.42-.79,.99-1.36,1.56-1.79,.82-.62,1.7-.96,3-.96,1.84,0,4.54,1.19,4.54,5.95v8.05h-2.44v-7.74c0-2.66-.99-4.22-2.98-4.22-1.45,0-2.52,1.05-2.98,2.24-.11,.37-.2,.79-.2,1.25v8.48h-2.44v-8.22c0-2.18-.96-3.74-2.86-3.74-1.53,0-2.69,1.25-3.09,2.5-.14,.34-.2,.79-.2,1.22v8.25h-2.44v-10.01Z"/>
      <path class="cls-19" d="M800.79,141.56c0,5.08-3.54,7.29-6.83,7.29-3.69,0-6.58-2.72-6.58-7.06,0-4.56,3.03-7.26,6.8-7.26s6.61,2.86,6.61,7.03Zm-10.86,.14c0,3.01,1.7,5.27,4.14,5.27s4.17-2.24,4.17-5.33c0-2.32-1.16-5.24-4.11-5.24s-4.2,2.72-4.2,5.3Z"/>
      <path class="cls-19" d="M815.76,128.41v16.58c0,1.22,.06,2.61,.11,3.54h-2.21l-.11-2.38h-.08c-.74,1.53-2.38,2.69-4.62,2.69-3.32,0-5.9-2.81-5.9-6.97-.03-4.56,2.83-7.34,6.15-7.34,2.13,0,3.52,.99,4.14,2.07h.06v-8.19h2.47Zm-2.47,11.99c0-.31-.03-.74-.11-1.05-.37-1.56-1.73-2.86-3.6-2.86-2.58,0-4.11,2.27-4.11,5.27,0,2.78,1.39,5.07,4.05,5.07,1.67,0,3.2-1.13,3.66-2.98,.09-.34,.11-.68,.11-1.08v-2.38Z"/>
      <path class="cls-19" d="M821.32,142.13c.06,3.37,2.18,4.76,4.71,4.76,1.79,0,2.89-.31,3.8-.71l.45,1.79c-.88,.4-2.41,.88-4.59,.88-4.22,0-6.75-2.81-6.75-6.95s2.44-7.37,6.44-7.37c4.51,0,5.67,3.91,5.67,6.44,0,.51-.03,.88-.09,1.16h-9.64Zm7.31-1.79c.03-1.56-.65-4.03-3.46-4.03-2.55,0-3.63,2.3-3.83,4.03h7.29Z"/>
      <path class="cls-19" d="M834.14,128.41h2.5v20.13h-2.5v-20.13Z"/>
    </g>
    <rect class="cls-18" x="528.23" y="112.41" width="99.67" height="24.92" transform="translate(453.19 702.93) rotate(-90)"/>
    <rect class="cls-4" x="565.61" y="149.79" width="24.92" height="24.92" transform="translate(415.81 740.31) rotate(-90)"/>
    <rect class="cls-4" x="565.61" y="124.88" width="24.92" height="24.92" transform="translate(440.73 715.4) rotate(-90)"/>
    <rect class="cls-4" x="565.61" y="99.96" width="24.92" height="24.92" transform="translate(465.64 690.48) rotate(-90)"/>
    <rect class="cls-4" x="565.61" y="75.05" width="24.92" height="24.92" transform="translate(490.56 665.57) rotate(-90)"/>
    <rect class="cls-6" x="1012.85" width="300.42" height="38.24"/>
    <line class="cls-2" x1="1372.21" y1="150.08" x2="1328.38" y2="150.08"/>
    <polygon points="1330.75 158.85 1311.6 150.11 1330.75 140.71 1330.75 158.85"/>
    <g>
      <path class="cls-3" d="M1033.13,27.49c-.96,.49-2.99,.98-5.54,.98-5.92,0-10.34-3.69-10.34-10.51s4.45-10.88,10.96-10.88c2.58,0,4.27,.55,4.98,.92l-.69,2.18c-1-.49-2.46-.86-4.2-.86-4.92,0-8.19,3.1-8.19,8.55,0,5.1,2.96,8.33,8.04,8.33,1.68,0,3.36-.34,4.45-.86l.53,2.15Z"/>
      <path class="cls-3" d="M1046.83,24.57c0,1.29,.06,2.55,.22,3.57h-2.46l-.22-1.88h-.09c-.84,1.17-2.46,2.21-4.61,2.21-3.05,0-4.61-2.12-4.61-4.27,0-3.6,3.24-5.57,9.06-5.53v-.31c0-1.2-.34-3.44-3.43-3.41-1.43,0-2.9,.4-3.96,1.11l-.62-1.81c1.25-.77,3.08-1.29,4.98-1.29,4.61,0,5.73,3.11,5.73,6.06v5.57Zm-2.65-4.03c-2.99-.06-6.38,.46-6.38,3.35,0,1.78,1.18,2.58,2.55,2.58,1.99,0,3.27-1.23,3.71-2.49,.09-.31,.12-.62,.12-.86v-2.58Z"/>
      <path class="cls-3" d="M1051.26,18.11c0-1.91-.06-3.44-.12-4.86h2.43l.16,2.55h.06c1.09-1.81,2.9-2.86,5.36-2.86,3.67,0,6.42,3.04,6.42,7.53,0,5.35-3.33,7.99-6.88,7.99-1.99,0-3.74-.86-4.64-2.34h-.06v8.09h-2.71V18.11Zm2.71,3.97c0,.4,.03,.77,.12,1.11,.5,1.88,2.15,3.17,4.11,3.17,2.9,0,4.58-2.34,4.58-5.75,0-2.95-1.59-5.5-4.49-5.5-1.87,0-3.64,1.29-4.14,3.32-.09,.34-.19,.74-.19,1.08v2.58Z"/>
      <path class="cls-3" d="M1079.57,24.57c0,1.29,.06,2.55,.22,3.57h-2.46l-.22-1.88h-.09c-.84,1.17-2.46,2.21-4.61,2.21-3.05,0-4.61-2.12-4.61-4.27,0-3.6,3.24-5.57,9.06-5.53v-.31c0-1.2-.34-3.44-3.43-3.41-1.43,0-2.9,.4-3.96,1.11l-.62-1.81c1.25-.77,3.08-1.29,4.98-1.29,4.61,0,5.73,3.11,5.73,6.06v5.57Zm-2.65-4.03c-2.99-.06-6.38,.46-6.38,3.35,0,1.78,1.18,2.58,2.55,2.58,1.99,0,3.27-1.23,3.71-2.49,.09-.31,.12-.62,.12-.86v-2.58Z"/>
      <path class="cls-3" d="M1083.99,6.31h2.71V15.65h.06c.97-1.66,2.71-2.71,5.14-2.71,3.77,0,6.38,3.07,6.38,7.56,0,5.32-3.43,7.96-6.79,7.96-2.18,0-3.92-.83-5.08-2.77h-.06l-.16,2.43h-2.34c.06-1.01,.12-2.52,.12-3.84V6.31Zm2.71,15.87c0,.34,.03,.68,.12,.98,.5,1.88,2.12,3.17,4.11,3.17,2.9,0,4.58-2.31,4.58-5.72,0-2.98-1.56-5.53-4.52-5.53-1.84,0-3.58,1.29-4.14,3.32-.09,.34-.16,.71-.16,1.14v2.64Z"/>
      <path class="cls-3" d="M1104.76,9.07c0,.92-.65,1.66-1.74,1.66-1,0-1.65-.74-1.65-1.66s.69-1.69,1.71-1.69,1.68,.74,1.68,1.69Zm-3.05,19.06V13.25h2.74v14.88h-2.74Z"/>
      <path class="cls-3" d="M1109,6.31h2.74V28.14h-2.74V6.31Z"/>
      <path class="cls-3" d="M1119.4,9.07c0,.92-.65,1.66-1.74,1.66-1,0-1.65-.74-1.65-1.66s.69-1.69,1.71-1.69,1.68,.74,1.68,1.69Zm-3.05,19.06V13.25h2.74v14.88h-2.74Z"/>
      <path class="cls-3" d="M1126.94,9.69v3.57h3.92v2.06h-3.92v8.02c0,1.85,.53,2.89,2.06,2.89,.75,0,1.18-.06,1.59-.18l.12,2.06c-.53,.18-1.37,.37-2.43,.37-1.28,0-2.3-.43-2.96-1.14-.75-.83-1.06-2.15-1.06-3.9V15.31h-2.34v-2.06h2.34v-2.77l2.68-.8Z"/>
      <path class="cls-3" d="M1135.23,13.25l3.27,8.79c.37,.98,.75,2.15,1,3.04h.06c.28-.89,.59-2.03,.97-3.11l2.99-8.73h2.9l-4.11,10.61c-1.96,5.1-3.3,7.69-5.17,9.32-1.37,1.14-2.68,1.6-3.36,1.72l-.69-2.25c.69-.21,1.59-.65,2.4-1.32,.75-.58,1.65-1.63,2.3-3.01,.12-.28,.22-.49,.22-.65s-.06-.37-.22-.71l-5.54-13.71h2.99Z"/>
      <path class="cls-3" d="M1170.23,27.49c-.96,.49-2.99,.98-5.54,.98-5.92,0-10.34-3.69-10.34-10.51s4.45-10.88,10.96-10.88c2.58,0,4.27,.55,4.98,.92l-.69,2.18c-1-.49-2.46-.86-4.2-.86-4.92,0-8.19,3.1-8.19,8.55,0,5.1,2.96,8.33,8.04,8.33,1.68,0,3.36-.34,4.45-.86l.53,2.15Z"/>
      <path class="cls-3" d="M1186.86,20.57c0,5.5-3.89,7.9-7.51,7.9-4.05,0-7.22-2.95-7.22-7.66,0-4.95,3.33-7.87,7.47-7.87s7.26,3.11,7.26,7.62Zm-11.93,.15c0,3.26,1.87,5.72,4.55,5.72s4.58-2.43,4.58-5.78c0-2.52-1.28-5.69-4.52-5.69s-4.61,2.95-4.61,5.75Z"/>
      <path class="cls-3" d="M1190.32,17.9c0-1.75-.03-3.26-.12-4.64h2.4l.12,2.95h.09c.69-2,2.37-3.26,4.21-3.26,.28,0,.5,.03,.75,.06v2.55c-.28-.06-.56-.06-.93-.06-1.93,0-3.3,1.41-3.67,3.44-.06,.37-.09,.83-.09,1.26v7.93h-2.74v-10.24Z"/>
      <path class="cls-3" d="M1200.63,17.9c0-1.75-.03-3.26-.12-4.64h2.4l.12,2.95h.09c.69-2,2.37-3.26,4.2-3.26,.28,0,.5,.03,.75,.06v2.55c-.28-.06-.56-.06-.93-.06-1.93,0-3.3,1.41-3.67,3.44-.06,.37-.09,.83-.09,1.26v7.93h-2.74v-10.24Z"/>
      <path class="cls-3" d="M1212.03,21.19c.06,3.66,2.4,5.17,5.17,5.17,1.96,0,3.18-.34,4.17-.77l.5,1.94c-.97,.43-2.65,.95-5.04,.95-4.64,0-7.41-3.04-7.41-7.53s2.68-7.99,7.07-7.99c4.95,0,6.23,4.24,6.23,6.98,0,.55-.03,.95-.09,1.26h-10.59Zm8.03-1.94c.03-1.69-.72-4.37-3.8-4.37-2.8,0-3.99,2.49-4.2,4.37h8Z"/>
      <path class="cls-3" d="M1226.11,6.31h2.74V28.14h-2.74V6.31Z"/>
      <path class="cls-3" d="M1244.05,24.57c0,1.29,.06,2.55,.22,3.57h-2.46l-.22-1.88h-.09c-.84,1.17-2.46,2.21-4.61,2.21-3.05,0-4.61-2.12-4.61-4.27,0-3.6,3.24-5.57,9.06-5.53v-.31c0-1.2-.34-3.44-3.43-3.41-1.43,0-2.9,.4-3.96,1.11l-.62-1.81c1.25-.77,3.08-1.29,4.98-1.29,4.61,0,5.73,3.11,5.73,6.06v5.57Zm-2.65-4.03c-2.99-.06-6.38,.46-6.38,3.35,0,1.78,1.18,2.58,2.55,2.58,1.99,0,3.27-1.23,3.71-2.49,.09-.31,.12-.62,.12-.86v-2.58Z"/>
      <path class="cls-3" d="M1251.65,9.69v3.57h3.92v2.06h-3.92v8.02c0,1.85,.53,2.89,2.06,2.89,.75,0,1.18-.06,1.59-.18l.12,2.06c-.53,.18-1.37,.37-2.43,.37-1.28,0-2.3-.43-2.96-1.14-.75-.83-1.06-2.15-1.06-3.9V15.31h-2.34v-2.06h2.34v-2.77l2.68-.8Z"/>
      <path class="cls-3" d="M1261.71,9.07c0,.92-.65,1.66-1.74,1.66-1,0-1.65-.74-1.65-1.66s.69-1.69,1.71-1.69,1.68,.74,1.68,1.69Zm-3.05,19.06V13.25h2.74v14.88h-2.74Z"/>
      <path class="cls-3" d="M1279.59,20.57c0,5.5-3.89,7.9-7.51,7.9-4.05,0-7.22-2.95-7.22-7.66,0-4.95,3.33-7.87,7.47-7.87s7.26,3.11,7.26,7.62Zm-11.93,.15c0,3.26,1.87,5.72,4.55,5.72s4.58-2.43,4.58-5.78c0-2.52-1.28-5.69-4.52-5.69s-4.61,2.95-4.61,5.75Z"/>
      <path class="cls-3" d="M1283.05,17.28c0-1.57-.03-2.8-.12-4.03h2.43l.16,2.46h.06c.75-1.38,2.49-2.77,4.98-2.77,2.09,0,5.33,1.23,5.33,6.33v8.86h-2.74v-8.58c0-2.4-.9-4.4-3.49-4.4-1.78,0-3.18,1.26-3.67,2.77-.12,.34-.19,.8-.19,1.26v8.95h-2.74v-10.85Z"/>
      <path class="cls-3" d="M1299.96,25.4c.84,.49,2.27,1.04,3.64,1.04,1.96,0,2.9-.95,2.9-2.21s-.78-1.97-2.77-2.71c-2.74-.98-4.02-2.43-4.02-4.21,0-2.4,1.99-4.37,5.2-4.37,1.53,0,2.87,.4,3.67,.92l-.65,1.97c-.59-.37-1.68-.89-3.08-.89-1.62,0-2.49,.92-2.49,2.03,0,1.23,.87,1.78,2.83,2.55,2.58,.95,3.96,2.25,3.96,4.46,0,2.64-2.09,4.49-5.61,4.49-1.65,0-3.18-.43-4.24-1.04l.65-2.03Z"/>
      <path class="cls-19" d="M994.66,65.04v-12.82h-2.09v-2.06h2.09v-.71c0-2.09,.5-4,1.74-5.2,1.03-.98,2.4-1.38,3.67-1.38,1,0,1.81,.21,2.34,.43l-.37,2.09c-.4-.18-.93-.34-1.74-.34-2.34,0-2.93,2-2.93,4.3v.8h3.64v2.06h-3.64v12.82h-2.71Z"/>
      <path class="cls-19" d="M1016.71,57.47c0,5.5-3.89,7.9-7.51,7.9-4.05,0-7.22-2.95-7.22-7.66,0-4.95,3.33-7.87,7.47-7.87s7.26,3.11,7.26,7.62Zm-11.93,.15c0,3.26,1.87,5.72,4.55,5.72s4.58-2.43,4.58-5.78c0-2.52-1.28-5.69-4.52-5.69s-4.61,2.95-4.61,5.75Z"/>
      <path class="cls-19" d="M1020.17,54.8c0-1.75-.03-3.26-.12-4.64h2.4l.12,2.95h.09c.69-2,2.37-3.26,4.21-3.26,.28,0,.5,.03,.75,.06v2.55c-.28-.06-.56-.06-.93-.06-1.93,0-3.3,1.41-3.67,3.44-.06,.37-.09,.83-.09,1.26v7.93h-2.74v-10.24Z"/>
      <path class="cls-19" d="M1038.49,58.09c.06,3.66,2.4,5.17,5.17,5.17,1.96,0,3.18-.34,4.17-.77l.5,1.94c-.97,.43-2.65,.95-5.04,.95-4.64,0-7.41-3.04-7.41-7.53s2.68-7.99,7.07-7.99c4.95,0,6.23,4.24,6.23,6.98,0,.55-.03,.95-.09,1.26h-10.59Zm8.03-1.94c.03-1.69-.72-4.37-3.8-4.37-2.8,0-3.99,2.49-4.2,4.37h8Z"/>
      <path class="cls-19" d="M1063.15,61.47c0,1.29,.06,2.55,.22,3.57h-2.46l-.22-1.88h-.09c-.84,1.17-2.46,2.21-4.61,2.21-3.05,0-4.61-2.12-4.61-4.27,0-3.6,3.24-5.57,9.06-5.53v-.31c0-1.2-.34-3.44-3.43-3.41-1.43,0-2.9,.4-3.96,1.11l-.62-1.81c1.25-.77,3.08-1.29,4.98-1.29,4.61,0,5.73,3.11,5.73,6.06v5.57Zm-2.65-4.03c-2.99-.06-6.38,.46-6.38,3.35,0,1.78,1.18,2.58,2.55,2.58,1.99,0,3.27-1.23,3.71-2.49,.09-.31,.12-.62,.12-.86v-2.58Z"/>
      <path class="cls-19" d="M1078.32,64.51c-.72,.34-2.3,.86-4.33,.86-4.55,0-7.5-3.04-7.5-7.59s3.18-7.93,8.1-7.93c1.62,0,3.05,.4,3.8,.8l-.62,2.06c-.65-.34-1.68-.71-3.18-.71-3.46,0-5.33,2.55-5.33,5.63,0,3.44,2.24,5.57,5.23,5.57,1.56,0,2.58-.37,3.36-.71l.47,2.03Z"/>
      <path class="cls-19" d="M1081.53,43.21h2.74v9.32h.06c.44-.77,1.12-1.48,1.96-1.94,.81-.46,1.78-.74,2.8-.74,2.02,0,5.26,1.23,5.26,6.33v8.85h-2.74v-8.55c0-2.4-.9-4.4-3.49-4.4-1.78,0-3.15,1.23-3.67,2.67-.16,.4-.19,.8-.19,1.29v8.98h-2.74v-21.83Z"/>
      <path class="cls-19" d="M1105.05,62.3c.84,.49,2.27,1.04,3.64,1.04,1.96,0,2.9-.95,2.9-2.21s-.78-1.97-2.77-2.71c-2.74-.98-4.02-2.43-4.02-4.21,0-2.4,1.99-4.37,5.2-4.37,1.53,0,2.87,.4,3.67,.92l-.65,1.97c-.59-.37-1.68-.89-3.08-.89-1.62,0-2.49,.92-2.49,2.03,0,1.23,.87,1.78,2.83,2.55,2.58,.95,3.96,2.25,3.96,4.46,0,2.64-2.09,4.49-5.61,4.49-1.65,0-3.18-.43-4.24-1.04l.65-2.03Z"/>
      <path class="cls-19" d="M1128.34,61.47c0,1.29,.06,2.55,.22,3.57h-2.46l-.22-1.88h-.09c-.84,1.17-2.46,2.21-4.61,2.21-3.05,0-4.61-2.12-4.61-4.27,0-3.6,3.24-5.57,9.06-5.53v-.31c0-1.2-.34-3.44-3.43-3.41-1.43,0-2.9,.4-3.96,1.11l-.62-1.81c1.25-.77,3.08-1.29,4.98-1.29,4.61,0,5.73,3.11,5.73,6.06v5.57Zm-2.65-4.03c-2.99-.06-6.38,.46-6.38,3.35,0,1.78,1.18,2.58,2.55,2.58,1.99,0,3.27-1.23,3.71-2.49,.09-.31,.12-.62,.12-.86v-2.58Z"/>
      <path class="cls-19" d="M1133.05,65.04v-12.82h-2.09v-2.06h2.09v-.71c0-2.09,.5-4,1.74-5.2,1.03-.98,2.4-1.38,3.67-1.38,1,0,1.81,.21,2.34,.43l-.37,2.09c-.4-.18-.93-.34-1.74-.34-2.34,0-2.93,2-2.93,4.3v.8h3.64v2.06h-3.64v12.82h-2.71Z"/>
      <path class="cls-19" d="M1142.98,58.09c.06,3.66,2.4,5.17,5.17,5.17,1.96,0,3.18-.34,4.17-.77l.5,1.94c-.97,.43-2.65,.95-5.04,.95-4.64,0-7.41-3.04-7.41-7.53s2.68-7.99,7.07-7.99c4.95,0,6.23,4.24,6.23,6.98,0,.55-.03,.95-.09,1.26h-10.59Zm8.03-1.94c.03-1.69-.72-4.37-3.8-4.37-2.8,0-3.99,2.49-4.2,4.37h8Z"/>
      <path class="cls-19" d="M1160.36,46.59v3.57h3.92v2.06h-3.92v8.02c0,1.84,.53,2.89,2.06,2.89,.75,0,1.18-.06,1.59-.18l.12,2.06c-.53,.18-1.37,.37-2.43,.37-1.28,0-2.3-.43-2.96-1.14-.75-.83-1.06-2.15-1.06-3.9v-8.12h-2.34v-2.06h2.34v-2.77l2.68-.8Z"/>
      <path class="cls-19" d="M1168.65,50.16l3.27,8.79c.37,.98,.75,2.15,1,3.04h.06c.28-.89,.59-2.03,.97-3.11l2.99-8.73h2.9l-4.11,10.61c-1.96,5.1-3.3,7.69-5.17,9.32-1.37,1.14-2.68,1.6-3.36,1.72l-.69-2.25c.69-.21,1.59-.65,2.4-1.32,.75-.58,1.65-1.63,2.3-3.01,.12-.28,.22-.49,.22-.65s-.06-.37-.22-.71l-5.54-13.71h2.99Z"/>
      <path class="cls-19" d="M1188.92,43.21h2.71v9.35h.06c.97-1.66,2.71-2.71,5.14-2.71,3.77,0,6.38,3.07,6.38,7.56,0,5.32-3.43,7.96-6.79,7.96-2.18,0-3.92-.83-5.08-2.77h-.06l-.16,2.43h-2.34c.06-1.01,.12-2.52,.12-3.84v-17.99Zm2.71,15.87c0,.34,.03,.68,.12,.98,.5,1.88,2.12,3.17,4.11,3.17,2.9,0,4.58-2.31,4.58-5.72,0-2.98-1.56-5.53-4.52-5.53-1.84,0-3.58,1.29-4.14,3.32-.09,.34-.16,.71-.16,1.14v2.64Z"/>
      <path class="cls-19" d="M1208.17,58.09c.06,3.66,2.4,5.17,5.17,5.17,1.96,0,3.18-.34,4.17-.77l.5,1.94c-.97,.43-2.65,.95-5.04,.95-4.64,0-7.41-3.04-7.41-7.53s2.68-7.99,7.07-7.99c4.95,0,6.23,4.24,6.23,6.98,0,.55-.03,.95-.09,1.26h-10.59Zm8.03-1.94c.03-1.69-.72-4.37-3.8-4.37-2.8,0-3.99,2.49-4.2,4.37h8Z"/>
      <path class="cls-19" d="M1222.25,54.18c0-1.57-.03-2.8-.12-4.03h2.43l.16,2.46h.06c.75-1.38,2.49-2.77,4.98-2.77,2.09,0,5.33,1.23,5.33,6.33v8.85h-2.74v-8.58c0-2.4-.9-4.4-3.49-4.4-1.78,0-3.18,1.26-3.67,2.77-.12,.34-.19,.8-.19,1.26v8.95h-2.74v-10.85Z"/>
      <path class="cls-19" d="M1250.28,64.51c-.72,.34-2.3,.86-4.33,.86-4.55,0-7.5-3.04-7.5-7.59s3.18-7.93,8.1-7.93c1.62,0,3.05,.4,3.8,.8l-.62,2.06c-.65-.34-1.68-.71-3.18-.71-3.46,0-5.33,2.55-5.33,5.63,0,3.44,2.24,5.57,5.23,5.57,1.56,0,2.58-.37,3.36-.71l.47,2.03Z"/>
      <path class="cls-19" d="M1253.49,43.21h2.74v9.32h.06c.44-.77,1.12-1.48,1.96-1.94,.81-.46,1.78-.74,2.8-.74,2.02,0,5.26,1.23,5.26,6.33v8.85h-2.74v-8.55c0-2.4-.9-4.4-3.49-4.4-1.78,0-3.15,1.23-3.67,2.67-.16,.4-.19,.8-.19,1.29v8.98h-2.74v-21.83Z"/>
      <path class="cls-19" d="M1270.78,54.18c0-1.57-.06-2.8-.12-4.03h2.4l.12,2.43h.09c.84-1.41,2.24-2.74,4.77-2.74,2.02,0,3.58,1.23,4.24,2.98h.06c.47-.86,1.09-1.48,1.71-1.94,.9-.68,1.87-1.04,3.3-1.04,2.02,0,4.98,1.29,4.98,6.46v8.73h-2.68v-8.39c0-2.89-1.09-4.58-3.27-4.58-1.59,0-2.77,1.14-3.27,2.43-.12,.4-.22,.86-.22,1.35v9.19h-2.68v-8.92c0-2.37-1.06-4.06-3.15-4.06-1.68,0-2.96,1.35-3.39,2.71-.16,.37-.22,.86-.22,1.32v8.95h-2.68v-10.85Z"/>
      <path class="cls-19" d="M1307.34,61.47c0,1.29,.06,2.55,.22,3.57h-2.46l-.22-1.88h-.09c-.84,1.17-2.46,2.21-4.61,2.21-3.05,0-4.61-2.12-4.61-4.27,0-3.6,3.24-5.57,9.06-5.53v-.31c0-1.2-.34-3.44-3.43-3.41-1.43,0-2.9,.4-3.96,1.11l-.62-1.81c1.25-.77,3.08-1.29,4.98-1.29,4.61,0,5.73,3.11,5.73,6.06v5.57Zm-2.65-4.03c-2.99-.06-6.38,.46-6.38,3.35,0,1.78,1.18,2.58,2.55,2.58,1.99,0,3.27-1.23,3.71-2.49,.09-.31,.12-.62,.12-.86v-2.58Z"/>
      <path class="cls-19" d="M1311.76,54.8c0-1.75-.03-3.26-.12-4.64h2.4l.12,2.95h.09c.69-2,2.37-3.26,4.21-3.26,.28,0,.5,.03,.75,.06v2.55c-.28-.06-.56-.06-.93-.06-1.93,0-3.3,1.41-3.67,3.44-.06,.37-.09,.83-.09,1.26v7.93h-2.74v-10.24Z"/>
      <path class="cls-19" d="M1324.78,56.98h.06c.37-.52,.87-1.17,1.31-1.69l4.45-5.13h3.27l-5.79,6.12,6.63,8.76h-3.36l-5.17-7.13-1.4,1.54v5.6h-2.71v-21.83h2.71v13.77Z"/>
    </g>
    <g>
      <path class="cls-19" d="M1313.6,97.79h-.05l-2.73,1.47-.41-1.62,3.43-1.84h1.81v15.71h-2.05v-13.73Z"/>
      <path class="cls-19" d="M1331.85,103.5c0,5.34-2.01,8.29-5.46,8.29-3.07,0-5.17-2.88-5.22-8.07,0-5.29,2.3-8.17,5.49-8.17s5.2,2.95,5.2,7.95Zm-8.53,.24c0,4.08,1.26,6.4,3.19,6.4,2.15,0,3.19-2.54,3.19-6.55s-.97-6.41-3.19-6.41c-1.84,0-3.19,2.27-3.19,6.55Z"/>
      <path class="cls-19" d="M1344.25,103.5c0,5.34-2.01,8.29-5.46,8.29-3.07,0-5.17-2.88-5.22-8.07,0-5.29,2.3-8.17,5.49-8.17s5.2,2.95,5.2,7.95Zm-8.53,.24c0,4.08,1.26,6.4,3.19,6.4,2.15,0,3.19-2.54,3.19-6.55s-.97-6.41-3.19-6.41c-1.84,0-3.19,2.27-3.19,6.55Z"/>
      <path class="cls-19" d="M1353.24,100.21c0,3.31-1.72,4.96-3.75,4.96s-3.65-1.57-3.67-4.71c0-3.14,1.69-4.91,3.82-4.91s3.6,1.69,3.6,4.67Zm-5.75,.14c-.05,2.01,.73,3.53,2.05,3.53,1.4,0,2.03-1.5,2.03-3.55,0-1.93-.56-3.5-2.05-3.5-1.3,0-2.03,1.57-2.03,3.53Zm1.84,11.46l9.26-16.29h1.35l-9.26,16.29h-1.35Zm14.16-5.08c0,3.31-1.72,4.96-3.75,4.96s-3.65-1.57-3.67-4.74c0-3.14,1.69-4.91,3.82-4.91s3.6,1.69,3.6,4.69Zm-5.75,.15c-.05,2.01,.73,3.53,2.05,3.53,1.4,0,2.03-1.5,2.03-3.58,0-1.91-.56-3.5-2.05-3.5-1.3,0-2.03,1.57-2.03,3.55Z"/>
    </g>
    <g>
      <path class="cls-19" d="M1322.88,294.75c0,5.34-2.01,8.29-5.46,8.29-3.07,0-5.17-2.88-5.22-8.07,0-5.29,2.3-8.17,5.49-8.17s5.2,2.95,5.2,7.95Zm-8.53,.24c0,4.08,1.26,6.41,3.19,6.41,2.15,0,3.19-2.54,3.19-6.55s-.97-6.41-3.19-6.41c-1.84,0-3.19,2.27-3.19,6.55Z"/>
      <path class="cls-19" d="M1331.87,291.46c0,3.31-1.72,4.96-3.75,4.96s-3.65-1.57-3.67-4.71c0-3.14,1.69-4.91,3.82-4.91s3.6,1.69,3.6,4.67Zm-5.75,.15c-.05,2.01,.73,3.53,2.05,3.53,1.4,0,2.03-1.5,2.03-3.55,0-1.93-.56-3.5-2.05-3.5-1.3,0-2.03,1.57-2.03,3.53Zm1.84,11.46l9.26-16.29h1.35l-9.26,16.29h-1.35Zm14.16-5.08c0,3.31-1.72,4.95-3.75,4.95s-3.65-1.57-3.67-4.74c0-3.14,1.69-4.91,3.82-4.91s3.6,1.69,3.6,4.69Zm-5.75,.14c-.05,2.01,.73,3.53,2.05,3.53,1.4,0,2.03-1.5,2.03-3.58,0-1.91-.56-3.5-2.05-3.5-1.3,0-2.03,1.57-2.03,3.55Z"/>
    </g>
    <rect class="cls-5" x="1258.2" y="107.74" width="46.33" height="184.83"/>
    <rect class="cls-4" x="1256.84" y="107.01" width="46.33" height="185.36"/>
    <g>
      <path class="cls-19" d="M546.69,143.59c-2.18,.12-4.83,.25-6.76,.25v.05c1.81,.56,3.79,1.18,5.95,1.97l7.6,2.76v1.53l-7.46,2.55c-2.23,.74-4.23,1.35-6.09,1.79v.05c1.95,.05,4.55,.16,6.92,.3l6.71,.42v1.93l-15.65-1.09v-2.58l7.57-2.67c1.93-.65,3.65-1.16,5.27-1.58v-.05c-1.58-.42-3.3-.98-5.27-1.67l-7.57-2.79v-2.58l15.65-.98v2l-6.87,.37Z"/>
      <path class="cls-19" d="M547.85,127.87c4.16,0,5.97,2.9,5.97,5.6,0,3.02-2.23,5.39-5.78,5.39-3.74,0-5.95-2.48-5.95-5.57s2.35-5.41,5.76-5.41Zm.12,8.89c2.46,0,4.32-1.39,4.32-3.39s-1.83-3.41-4.37-3.41c-1.9,0-4.3,.95-4.3,3.37s2.23,3.44,4.34,3.44Z"/>
      <path class="cls-19" d="M537.07,115.61h13.59c1,0,2.14-.05,2.9-.09v1.81l-1.95,.09v.07c1.26,.6,2.21,1.95,2.21,3.79,0,2.72-2.3,4.83-5.71,4.83-3.74,.02-6.02-2.32-6.02-5.04,0-1.74,.81-2.88,1.7-3.39v-.05h-6.71v-2.02Zm9.82,2.02c-.26,0-.61,.02-.86,.09-1.28,.3-2.35,1.42-2.35,2.95,0,2.11,1.86,3.37,4.32,3.37,2.28,0,4.16-1.14,4.16-3.32,0-1.37-.93-2.62-2.44-3-.28-.07-.56-.09-.88-.09h-1.95Z"/>
      <path class="cls-19" d="M548.31,111.05c2.76-.05,3.9-1.79,3.9-3.86,0-1.46-.26-2.37-.58-3.11l1.46-.37c.33,.72,.72,1.97,.72,3.76,0,3.46-2.3,5.53-5.69,5.53s-6.04-2-6.04-5.27c0-3.69,3.21-4.64,5.27-4.64,.42,0,.72,.02,.95,.07v7.9Zm-1.46-5.99c-1.28-.02-3.3,.53-3.3,2.83,0,2.09,1.88,2.97,3.3,3.14v-5.97Z"/>
      <path class="cls-19" d="M537.07,100.55v-2.04h16.49v2.04h-16.49Z"/>
      <path class="cls-19" d="M551.5,95.35c.37-.63,.79-1.7,.79-2.72,0-1.46-.72-2.16-1.67-2.16s-1.49,.58-2.04,2.07c-.74,2.04-1.84,3-3.18,3-1.81,0-3.3-1.49-3.3-3.88,0-1.14,.3-2.14,.7-2.74l1.49,.49c-.28,.44-.67,1.25-.67,2.3,0,1.21,.7,1.86,1.53,1.86,.93,0,1.35-.65,1.93-2.11,.72-1.93,1.7-2.95,3.37-2.95,2,0,3.39,1.56,3.39,4.18,0,1.23-.32,2.37-.79,3.16l-1.53-.49Z"/>
    </g>
    <polyline class="cls-2" points="261.86 112.76 239.87 112.76 239.87 275.97 241.47 275.97 263.6 275.97"/>
    <line class="cls-2" x1="240.06" y1="187.21" x2="220.63" y2="187.21"/>
  </g>
</svg>