<?xml version="1.0" encoding="UTF-8"?>
<svg id="Layer_2" data-name="Layer 2" xmlns="http://www.w3.org/2000/svg" viewBox="0 0 394.36 118.03">
  <defs>
    <style>
      .cls-1 {
        stroke-dasharray: 0 0 4.02 4.02;
      }

      .cls-1, .cls-2, .cls-3, .cls-4 {
        stroke-width: .75px;
      }

      .cls-1, .cls-2, .cls-3, .cls-4, .cls-5, .cls-6, .cls-7 {
        stroke-miterlimit: 10;
      }

      .cls-1, .cls-2, .cls-3, .cls-4, .cls-7 {
        fill: none;
      }

      .cls-1, .cls-3 {
        stroke: #238e20;
      }

      .cls-8 {
        fill: #676f6f;
      }

      .cls-9 {
        fill: #f6ca70;
      }

      .cls-10 {
        fill: #e4836d;
      }

      .cls-11 {
        fill: #edf6ff;
      }

      .cls-12 {
        fill: #6b6375;
      }

      .cls-13 {
        fill: #6b5875;
      }

      .cls-14 {
        fill: #8a94c6;
      }

      .cls-15 {
        fill: #bc3640;
      }

      .cls-16 {
        fill: #8f3079;
      }

      .cls-17 {
        fill: #d13034;
      }

      .cls-18 {
        fill: #d8e8f6;
      }

      .cls-19 {
        fill: #238e20;
      }

      .cls-20 {
        fill: #231fa7;
      }

      .cls-21 {
        fill: #231f20;
      }

      .cls-22 {
        fill: #403c56;
      }

      .cls-23 {
        fill: #1950ac;
      }

      .cls-24 {
        fill: #9d1f20;
      }

      .cls-25 {
        fill: #2b2627;
      }

      .cls-2 {
        stroke-dasharray: 0 0 4.22 4.22;
      }

      .cls-2, .cls-4 {
        stroke: #bc3640;
      }

      .cls-5 {
        fill: #f8e2df;
        stroke: #c33034;
        stroke-width: .5px;
      }

      .cls-6 {
        fill: #ffe4ee;
        stroke: #ffe4ee;
      }

      .cls-7 {
        stroke: #231f20;
      }
    </style>
  </defs>
  <g id="Layer_1-2" data-name="Layer 1">
    <rect class="cls-11" x="173.63" y="14.69" width="79.12" height="102.84" rx="7.36" ry="7.36"/>
    <rect class="cls-18" x="176.91" y="81.73" width="71.39" height="9.98" rx="3.52" ry="3.52"/>
    <rect class="cls-18" x="177.35" y="68.02" width="71.39" height="9.98" rx="3.52" ry="3.52"/>
    <rect class="cls-18" x="177.74" y="54.16" width="71.39" height="10.37" rx="3.52" ry="3.52"/>
    <rect class="cls-18" x="177.78" y="40.68" width="71.39" height="9.98" rx="3.52" ry="3.52"/>
    <rect class="cls-6" x="29.41" y="14.9" width="141.89" height="102.63" rx="12.88" ry="12.88"/>
    <g>
      <path class="cls-23" d="M183.76,24.6c.31,.2,.76,.35,1.24,.35,.71,0,1.13-.38,1.13-.92,0-.5-.29-.79-1.02-1.06-.88-.32-1.42-.78-1.42-1.54,0-.84,.7-1.46,1.74-1.46,.54,0,.95,.13,1.18,.26l-.19,.57c-.17-.1-.53-.26-1.02-.26-.74,0-1.02,.44-1.02,.81,0,.5,.33,.75,1.07,1.04,.91,.35,1.37,.79,1.37,1.58,0,.83-.61,1.56-1.88,1.56-.52,0-1.09-.16-1.38-.35l.18-.58Z"/>
      <path class="cls-23" d="M190.51,24.52c0,.34,.02,.66,.06,.93h-.63l-.06-.49h-.02c-.22,.3-.63,.58-1.18,.58-.78,0-1.18-.55-1.18-1.11,0-.94,.83-1.45,2.33-1.44v-.08c0-.31-.09-.89-.88-.89-.37,0-.74,.1-1.02,.29l-.16-.47c.32-.2,.79-.33,1.28-.33,1.18,0,1.47,.81,1.47,1.57v1.45Zm-.68-1.05c-.77-.02-1.64,.12-1.64,.87,0,.46,.3,.67,.66,.67,.51,0,.84-.32,.95-.65,.02-.08,.03-.16,.03-.22v-.67Z"/>
      <path class="cls-23" d="M191.72,25.45v-3.33h-.54v-.54h.54v-.18c0-.54,.13-1.04,.45-1.35,.26-.26,.62-.36,.94-.36,.26,0,.46,.06,.6,.11l-.1,.54c-.1-.05-.24-.09-.45-.09-.6,0-.75,.52-.75,1.12v.21h.94v.54h-.94v3.33h-.7Z"/>
      <path class="cls-23" d="M194.27,23.64c.02,.95,.62,1.34,1.33,1.34,.5,0,.82-.09,1.07-.2l.13,.5c-.25,.11-.68,.25-1.29,.25-1.19,0-1.9-.79-1.9-1.96s.69-2.08,1.82-2.08c1.27,0,1.6,1.1,1.6,1.81,0,.14,0,.25-.02,.33h-2.72Zm2.06-.5c0-.44-.18-1.14-.98-1.14-.72,0-1.02,.65-1.08,1.14h2.05Z"/>
      <path class="cls-23" d="M198.74,20.65v.93h1.01v.54h-1.01v2.09c0,.48,.14,.75,.53,.75,.19,0,.3-.02,.41-.05l.03,.54c-.14,.05-.35,.1-.62,.1-.33,0-.59-.11-.76-.3-.19-.22-.27-.56-.27-1.01v-2.11h-.6v-.54h.6v-.72l.69-.21Z"/>
      <path class="cls-23" d="M200.87,21.58l.84,2.29c.1,.26,.19,.56,.26,.79h.02c.07-.23,.15-.53,.25-.81l.77-2.27h.74l-1.06,2.76c-.5,1.33-.85,2-1.33,2.42-.35,.3-.69,.42-.86,.45l-.18-.58c.18-.06,.41-.17,.62-.34,.19-.15,.42-.42,.59-.78,.03-.07,.06-.13,.06-.17s-.02-.1-.06-.18l-1.42-3.57h.77Z"/>
      <path class="cls-23" d="M206.1,20.14c.3-.07,.79-.12,1.27-.12,.7,0,1.14,.12,1.47,.39,.28,.21,.46,.53,.46,.95,0,.53-.35,.98-.91,1.18v.02c.51,.12,1.11,.54,1.11,1.34,0,.46-.18,.82-.46,1.08-.37,.34-.98,.5-1.85,.5-.48,0-.85-.03-1.08-.06v-5.29Zm.7,2.21h.63c.73,0,1.16-.39,1.16-.91,0-.62-.47-.88-1.18-.88-.32,0-.5,.02-.62,.05v1.74Zm0,2.58c.14,.02,.33,.03,.58,.03,.72,0,1.38-.26,1.38-1.05,0-.73-.63-1.04-1.39-1.04h-.58v2.05Z"/>
      <path class="cls-23" d="M210.84,23.64c.02,.95,.62,1.34,1.33,1.34,.5,0,.82-.09,1.07-.2l.13,.5c-.25,.11-.68,.25-1.29,.25-1.19,0-1.9-.79-1.9-1.96s.69-2.08,1.82-2.08c1.27,0,1.6,1.1,1.6,1.81,0,.14,0,.25-.02,.33h-2.72Zm2.06-.5c0-.44-.18-1.14-.98-1.14-.72,0-1.02,.65-1.08,1.14h2.05Z"/>
      <path class="cls-23" d="M214.45,22.62c0-.41,0-.73-.03-1.05h.62l.04,.64h.02c.19-.36,.64-.72,1.28-.72,.54,0,1.37,.32,1.37,1.65v2.3h-.7v-2.23c0-.62-.23-1.14-.9-1.14-.46,0-.82,.33-.94,.72-.03,.09-.05,.21-.05,.33v2.33h-.7v-2.82Z"/>
      <path class="cls-23" d="M221.65,25.31c-.18,.09-.59,.22-1.11,.22-1.17,0-1.93-.79-1.93-1.97s.82-2.06,2.08-2.06c.42,0,.78,.1,.98,.21l-.16,.54c-.17-.09-.43-.18-.82-.18-.89,0-1.37,.66-1.37,1.46,0,.9,.58,1.45,1.34,1.45,.4,0,.66-.1,.86-.18l.12,.53Z"/>
      <path class="cls-23" d="M222.48,19.77h.7v2.42h.02c.11-.2,.29-.38,.5-.5,.21-.12,.46-.19,.72-.19,.52,0,1.35,.32,1.35,1.65v2.3h-.7v-2.22c0-.62-.23-1.14-.9-1.14-.46,0-.81,.32-.94,.7-.04,.1-.05,.21-.05,.33v2.33h-.7v-5.68Z"/>
      <path class="cls-23" d="M226.92,22.62c0-.41-.02-.73-.03-1.05h.62l.03,.63h.02c.22-.37,.58-.71,1.22-.71,.52,0,.92,.32,1.09,.78h.02c.12-.22,.28-.38,.44-.5,.23-.18,.48-.27,.85-.27,.52,0,1.28,.33,1.28,1.68v2.27h-.69v-2.18c0-.75-.28-1.19-.84-1.19-.41,0-.71,.3-.84,.63-.03,.1-.06,.22-.06,.35v2.39h-.69v-2.32c0-.62-.27-1.06-.81-1.06-.43,0-.76,.35-.87,.7-.04,.1-.06,.22-.06,.34v2.33h-.69v-2.82Z"/>
      <path class="cls-23" d="M236.31,24.52c0,.34,.02,.66,.06,.93h-.63l-.06-.49h-.02c-.22,.3-.63,.58-1.18,.58-.78,0-1.18-.55-1.18-1.11,0-.94,.83-1.45,2.33-1.44v-.08c0-.31-.09-.89-.88-.89-.37,0-.74,.1-1.02,.29l-.16-.47c.32-.2,.79-.33,1.28-.33,1.18,0,1.47,.81,1.47,1.57v1.45Zm-.68-1.05c-.77-.02-1.64,.12-1.64,.87,0,.46,.3,.67,.66,.67,.51,0,.84-.32,.95-.65,.02-.08,.03-.16,.03-.22v-.67Z"/>
      <path class="cls-23" d="M237.45,22.78c0-.46,0-.85-.03-1.21h.62l.03,.77h.02c.18-.52,.61-.85,1.08-.85,.07,0,.13,0,.19,.02v.66c-.07-.02-.14-.02-.24-.02-.5,0-.85,.37-.94,.9-.02,.1-.02,.22-.02,.33v2.06h-.7v-2.66Z"/>
      <path class="cls-23" d="M240.79,23.35h.02c.1-.14,.22-.3,.34-.44l1.14-1.33h.84l-1.49,1.59,1.7,2.28h-.86l-1.33-1.86-.36,.4v1.46h-.7v-5.68h.7v3.58Z"/>
      <path class="cls-23" d="M192.58,29.66h.7v4.8h2.3v.58h-3.01v-5.39Z"/>
      <path class="cls-23" d="M196.62,33.24c.02,.95,.62,1.34,1.33,1.34,.5,0,.82-.09,1.07-.2l.13,.5c-.25,.11-.68,.25-1.29,.25-1.19,0-1.9-.79-1.9-1.96s.69-2.08,1.82-2.08c1.27,0,1.6,1.1,1.6,1.81,0,.14,0,.25-.02,.33h-2.72Zm2.06-.5c0-.44-.18-1.14-.98-1.14-.72,0-1.02,.65-1.08,1.14h2.05Z"/>
      <path class="cls-23" d="M202.95,34.12c0,.34,.02,.66,.06,.93h-.63l-.06-.49h-.02c-.22,.3-.63,.58-1.18,.58-.78,0-1.18-.55-1.18-1.11,0-.94,.83-1.45,2.33-1.44v-.08c0-.31-.09-.89-.88-.89-.37,0-.74,.1-1.02,.29l-.16-.47c.32-.2,.79-.33,1.28-.33,1.18,0,1.47,.81,1.47,1.57v1.45Zm-.68-1.05c-.77-.02-1.64,.12-1.64,.87,0,.46,.3,.67,.66,.67,.51,0,.84-.32,.95-.65,.02-.08,.03-.16,.03-.22v-.67Z"/>
      <path class="cls-23" d="M207.43,29.37v4.68c0,.34,.02,.74,.03,1h-.62l-.03-.67h-.02c-.21,.43-.67,.76-1.3,.76-.94,0-1.66-.79-1.66-1.97,0-1.29,.8-2.07,1.74-2.07,.6,0,.99,.28,1.17,.58h.02v-2.31h.7Zm-.7,3.38c0-.09,0-.21-.03-.3-.1-.44-.49-.81-1.02-.81-.73,0-1.16,.64-1.16,1.49,0,.78,.39,1.43,1.14,1.43,.47,0,.9-.32,1.03-.84,.02-.1,.03-.19,.03-.3v-.67Z"/>
      <path class="cls-23" d="M209,33.24c.02,.95,.62,1.34,1.33,1.34,.5,0,.82-.09,1.07-.2l.13,.5c-.25,.11-.68,.25-1.29,.25-1.19,0-1.9-.79-1.9-1.96s.69-2.08,1.82-2.08c1.27,0,1.6,1.1,1.6,1.81,0,.14,0,.25-.02,.33h-2.72Zm2.06-.5c0-.44-.18-1.14-.98-1.14-.72,0-1.02,.65-1.08,1.14h2.05Z"/>
      <path class="cls-23" d="M212.61,32.38c0-.46,0-.85-.03-1.21h.62l.03,.77h.02c.18-.52,.61-.85,1.08-.85,.07,0,.13,0,.19,.02v.66c-.07-.02-.14-.02-.24-.02-.5,0-.85,.37-.94,.9-.02,.1-.02,.22-.02,.33v2.06h-.7v-2.66Z"/>
      <path class="cls-23" d="M215.26,29.37h.7v2.43h.02c.25-.43,.7-.7,1.32-.7,.97,0,1.64,.8,1.64,1.97,0,1.38-.88,2.07-1.74,2.07-.56,0-1.01-.22-1.3-.72h-.02l-.04,.63h-.6c.02-.26,.03-.66,.03-1v-4.68Zm.7,4.13c0,.09,0,.18,.03,.26,.13,.49,.54,.82,1.06,.82,.74,0,1.17-.6,1.17-1.49,0-.78-.4-1.44-1.16-1.44-.47,0-.92,.34-1.06,.86-.02,.09-.04,.18-.04,.3v.69Z"/>
      <path class="cls-23" d="M223.32,33.08c0,1.43-1,2.05-1.93,2.05-1.04,0-1.86-.77-1.86-1.99,0-1.29,.86-2.05,1.92-2.05s1.86,.81,1.86,1.98Zm-3.06,.04c0,.85,.48,1.49,1.17,1.49s1.18-.63,1.18-1.5c0-.66-.33-1.48-1.16-1.48s-1.18,.77-1.18,1.5Z"/>
      <path class="cls-23" d="M226.93,34.12c0,.34,.02,.66,.06,.93h-.63l-.06-.49h-.02c-.22,.3-.63,.58-1.18,.58-.78,0-1.18-.55-1.18-1.11,0-.94,.83-1.45,2.33-1.44v-.08c0-.31-.09-.89-.88-.89-.37,0-.74,.1-1.02,.29l-.16-.47c.32-.2,.79-.33,1.28-.33,1.18,0,1.47,.81,1.47,1.57v1.45Zm-.68-1.05c-.77-.02-1.64,.12-1.64,.87,0,.46,.3,.67,.66,.67,.51,0,.84-.32,.95-.65,.02-.08,.03-.16,.03-.22v-.67Z"/>
      <path class="cls-23" d="M228.06,32.38c0-.46,0-.85-.03-1.21h.62l.03,.77h.02c.18-.52,.61-.85,1.08-.85,.07,0,.13,0,.19,.02v.66c-.07-.02-.14-.02-.24-.02-.5,0-.85,.37-.94,.9-.02,.1-.02,.22-.02,.33v2.06h-.7v-2.66Z"/>
      <path class="cls-23" d="M233.93,29.37v4.68c0,.34,.02,.74,.03,1h-.62l-.03-.67h-.02c-.21,.43-.67,.76-1.3,.76-.94,0-1.66-.79-1.66-1.97,0-1.29,.8-2.07,1.74-2.07,.6,0,.99,.28,1.17,.58h.02v-2.31h.7Zm-.7,3.38c0-.09,0-.21-.03-.3-.1-.44-.49-.81-1.02-.81-.73,0-1.16,.64-1.16,1.49,0,.78,.39,1.43,1.14,1.43,.47,0,.9-.32,1.03-.84,.02-.1,.03-.19,.03-.3v-.67Z"/>
    </g>
    <polygon class="cls-22" points="135.83 102.54 48.57 102.54 48.57 22.22 50.23 22.22 50.23 100.88 135.83 100.88 135.83 102.54"/>
    <g>
      <path class="cls-25" d="M58.94,111.8c-.25,.13-.78,.26-1.44,.26-1.54,0-2.69-.97-2.69-2.77s1.16-2.87,2.85-2.87c.67,0,1.11,.15,1.3,.24l-.18,.58c-.26-.13-.64-.23-1.09-.23-1.28,0-2.13,.82-2.13,2.25,0,1.34,.77,2.2,2.09,2.2,.44,0,.88-.09,1.16-.23l.14,.57Z"/>
      <path class="cls-25" d="M62.5,111.03c0,.34,.02,.67,.06,.94h-.64l-.06-.49h-.02c-.22,.31-.64,.58-1.2,.58-.79,0-1.2-.56-1.2-1.13,0-.95,.84-1.47,2.36-1.46v-.08c0-.32-.09-.91-.89-.9-.37,0-.75,.11-1.03,.29l-.16-.48c.32-.2,.8-.34,1.3-.34,1.2,0,1.49,.82,1.49,1.6v1.47Zm-.69-1.06c-.78-.02-1.66,.12-1.66,.88,0,.47,.31,.68,.66,.68,.52,0,.85-.32,.96-.66,.02-.08,.03-.16,.03-.23v-.68Z"/>
      <path class="cls-25" d="M63.65,109.33c0-.5-.02-.91-.03-1.28h.63l.04,.67h.02c.28-.48,.75-.75,1.39-.75,.96,0,1.67,.8,1.67,1.98,0,1.41-.87,2.11-1.79,2.11-.52,0-.97-.23-1.21-.62h-.02v2.13h-.7v-4.25Zm.7,1.04c0,.11,0,.2,.03,.29,.13,.5,.56,.84,1.07,.84,.75,0,1.19-.62,1.19-1.52,0-.78-.41-1.45-1.17-1.45-.49,0-.95,.34-1.08,.88-.02,.09-.05,.2-.05,.28v.68Z"/>
      <path class="cls-25" d="M71.02,111.03c0,.34,.02,.67,.06,.94h-.64l-.06-.49h-.02c-.22,.31-.64,.58-1.2,.58-.79,0-1.2-.56-1.2-1.13,0-.95,.84-1.47,2.36-1.46v-.08c0-.32-.09-.91-.89-.9-.37,0-.75,.11-1.03,.29l-.16-.48c.32-.2,.8-.34,1.3-.34,1.2,0,1.49,.82,1.49,1.6v1.47Zm-.69-1.06c-.78-.02-1.66,.12-1.66,.88,0,.47,.31,.68,.66,.68,.52,0,.85-.32,.96-.66,.02-.08,.03-.16,.03-.23v-.68Z"/>
      <path class="cls-25" d="M72.16,106.22h.71v2.46h.02c.25-.44,.71-.71,1.34-.71,.98,0,1.66,.81,1.66,1.99,0,1.4-.89,2.1-1.77,2.1-.57,0-1.02-.22-1.32-.73h-.02l-.04,.64h-.61c.02-.27,.03-.66,.03-1.01v-4.74Zm.71,4.18c0,.09,0,.18,.03,.26,.13,.49,.55,.83,1.07,.83,.75,0,1.19-.61,1.19-1.51,0-.79-.41-1.46-1.18-1.46-.48,0-.93,.34-1.08,.88-.02,.09-.04,.19-.04,.3v.7Z"/>
      <path class="cls-25" d="M77.57,106.95c0,.24-.17,.44-.45,.44-.26,0-.43-.19-.43-.44s.18-.45,.45-.45,.44,.19,.44,.45Zm-.79,5.02v-3.92h.71v3.92h-.71Z"/>
      <path class="cls-25" d="M78.67,106.22h.71v5.75h-.71v-5.75Z"/>
      <path class="cls-25" d="M81.37,106.95c0,.24-.17,.44-.45,.44-.26,0-.43-.19-.43-.44s.18-.45,.45-.45,.44,.19,.44,.45Zm-.79,5.02v-3.92h.71v3.92h-.71Z"/>
      <path class="cls-25" d="M83.33,107.11v.94h1.02v.54h-1.02v2.12c0,.49,.14,.76,.54,.76,.19,0,.31-.02,.41-.05l.03,.54c-.14,.05-.36,.1-.63,.1-.33,0-.6-.11-.77-.3-.19-.22-.28-.57-.28-1.03v-2.14h-.61v-.54h.61v-.73l.7-.21Z"/>
      <path class="cls-25" d="M85.95,106.95c0,.24-.17,.44-.45,.44-.26,0-.43-.19-.43-.44s.18-.45,.45-.45,.44,.19,.44,.45Zm-.79,5.02v-3.92h.71v3.92h-.71Z"/>
      <path class="cls-25" d="M87.44,110.14c.02,.96,.62,1.36,1.35,1.36,.51,0,.83-.09,1.08-.2l.13,.51c-.25,.11-.69,.25-1.31,.25-1.21,0-1.93-.8-1.93-1.99s.7-2.11,1.84-2.11c1.29,0,1.62,1.12,1.62,1.84,0,.15,0,.25-.02,.33h-2.75Zm2.09-.51c0-.45-.19-1.15-.99-1.15-.73,0-1.04,.66-1.09,1.15h2.08Z"/>
      <path class="cls-25" d="M91.01,111.25c.22,.13,.59,.28,.95,.28,.51,0,.75-.25,.75-.58s-.2-.52-.72-.71c-.71-.26-1.04-.64-1.04-1.11,0-.63,.52-1.15,1.35-1.15,.4,0,.75,.11,.96,.24l-.17,.52c-.15-.1-.44-.24-.8-.24-.42,0-.65,.24-.65,.53,0,.32,.23,.47,.74,.67,.67,.25,1.03,.59,1.03,1.17,0,.7-.54,1.18-1.46,1.18-.43,0-.83-.11-1.1-.28l.17-.54Z"/>
      <path class="cls-25" d="M96.05,106.59c.31-.07,.8-.12,1.29-.12,.71,0,1.16,.12,1.49,.4,.28,.21,.46,.53,.46,.96,0,.53-.36,1-.92,1.2v.03c.52,.12,1.13,.55,1.13,1.36,0,.47-.19,.83-.47,1.09-.37,.35-.99,.51-1.88,.51-.49,0-.86-.03-1.09-.06v-5.36Zm.7,2.24h.64c.74,0,1.17-.4,1.17-.92,0-.63-.48-.89-1.19-.89-.32,0-.51,.02-.62,.05v1.77Zm0,2.61c.15,.02,.34,.03,.59,.03,.73,0,1.4-.27,1.4-1.06,0-.74-.64-1.05-1.41-1.05h-.58v2.08Z"/>
      <path class="cls-25" d="M100.84,110.14c.02,.96,.62,1.36,1.34,1.36,.51,0,.83-.09,1.09-.2l.13,.51c-.25,.11-.69,.25-1.31,.25-1.21,0-1.93-.8-1.93-1.99s.7-2.11,1.84-2.11c1.29,0,1.62,1.12,1.62,1.84,0,.15,0,.25-.02,.33h-2.75Zm2.09-.51c0-.45-.19-1.15-.99-1.15-.73,0-1.04,.66-1.09,1.15h2.08Z"/>
      <path class="cls-25" d="M104.51,109.11c0-.41,0-.74-.03-1.06h.63l.04,.65h.02c.19-.36,.65-.73,1.3-.73,.54,0,1.39,.32,1.39,1.67v2.33h-.71v-2.26c0-.63-.24-1.16-.91-1.16-.46,0-.83,.33-.96,.73-.03,.09-.05,.21-.05,.33v2.36h-.71v-2.86Z"/>
      <path class="cls-25" d="M111.79,111.83c-.19,.09-.6,.23-1.13,.23-1.18,0-1.95-.8-1.95-2s.83-2.09,2.11-2.09c.42,0,.79,.11,.99,.21l-.16,.54c-.17-.09-.44-.19-.83-.19-.9,0-1.38,.67-1.38,1.48,0,.91,.58,1.47,1.36,1.47,.4,0,.67-.1,.88-.19l.12,.54Z"/>
      <path class="cls-25" d="M112.63,106.22h.71v2.46h.02c.11-.2,.29-.39,.51-.51,.21-.12,.46-.19,.73-.19,.53,0,1.37,.32,1.37,1.67v2.33h-.71v-2.25c0-.63-.24-1.16-.91-1.16-.46,0-.82,.32-.96,.71-.04,.1-.05,.21-.05,.34v2.37h-.71v-5.75Z"/>
      <path class="cls-25" d="M117.12,109.11c0-.41-.02-.74-.03-1.06h.62l.03,.64h.02c.22-.37,.58-.72,1.24-.72,.53,0,.93,.32,1.1,.79h.02c.12-.23,.28-.39,.45-.51,.24-.18,.49-.28,.86-.28,.53,0,1.3,.34,1.3,1.7v2.3h-.7v-2.21c0-.76-.28-1.21-.85-1.21-.41,0-.72,.3-.85,.64-.03,.11-.06,.23-.06,.36v2.42h-.7v-2.35c0-.62-.28-1.07-.82-1.07-.44,0-.77,.36-.88,.71-.04,.1-.06,.23-.06,.35v2.36h-.7v-2.86Z"/>
      <path class="cls-25" d="M126.63,111.03c0,.34,.02,.67,.06,.94h-.64l-.06-.49h-.02c-.22,.31-.64,.58-1.2,.58-.79,0-1.2-.56-1.2-1.13,0-.95,.84-1.47,2.36-1.46v-.08c0-.32-.09-.91-.89-.9-.37,0-.75,.11-1.03,.29l-.16-.48c.32-.2,.8-.34,1.3-.34,1.2,0,1.49,.82,1.49,1.6v1.47Zm-.69-1.06c-.78-.02-1.66,.12-1.66,.88,0,.47,.31,.68,.66,.68,.52,0,.85-.32,.96-.66,.02-.08,.03-.16,.03-.23v-.68Z"/>
      <path class="cls-25" d="M127.78,109.27c0-.46,0-.86-.03-1.22h.62l.03,.78h.02c.18-.53,.62-.86,1.09-.86,.07,0,.13,0,.2,.02v.67c-.07-.02-.15-.02-.24-.02-.5,0-.86,.37-.96,.91-.02,.1-.02,.22-.02,.33v2.09h-.71v-2.7Z"/>
      <path class="cls-25" d="M131.16,109.85h.02c.1-.14,.23-.31,.34-.45l1.16-1.35h.85l-1.51,1.61,1.73,2.31h-.88l-1.34-1.88-.36,.4v1.47h-.71v-5.75h.71v3.63Z"/>
    </g>
    <g>
      <path class="cls-25" d="M38.56,90.01c-.07-.3-.12-.78-.12-1.26,0-.69,.12-1.13,.39-1.46,.21-.28,.52-.45,.94-.45,.52,0,.97,.35,1.17,.9h.02c.12-.51,.54-1.1,1.33-1.1,.46,0,.82,.18,1.07,.46,.34,.37,.5,.97,.5,1.84,0,.47-.03,.84-.06,1.07h-5.24Zm2.19-.69v-.63c0-.72-.39-1.15-.9-1.15-.62,0-.87,.47-.87,1.16,0,.32,.02,.5,.05,.61h1.73Zm2.55,0c.02-.14,.03-.33,.03-.58,0-.71-.26-1.37-1.04-1.37-.72,0-1.03,.63-1.03,1.38v.57h2.04Z"/>
      <path class="cls-25" d="M42.03,85.32c.94-.02,1.33-.61,1.33-1.31,0-.5-.09-.81-.2-1.06l.5-.13c.11,.25,.25,.67,.25,1.28,0,1.18-.78,1.88-1.94,1.88s-2.06-.68-2.06-1.8c0-1.26,1.09-1.58,1.8-1.58,.14,0,.25,0,.32,.02v2.69Zm-.5-2.04c-.44,0-1.12,.18-1.12,.97,0,.71,.64,1.01,1.12,1.07v-2.04Z"/>
      <path class="cls-25" d="M41.02,81.74c-.4,0-.72,0-1.04,.03v-.62l.63-.04v-.02c-.36-.19-.71-.63-.71-1.27,0-.53,.32-1.35,1.63-1.35h2.28v.7h-2.21c-.62,0-1.13,.23-1.13,.89,0,.45,.32,.81,.71,.93,.09,.03,.21,.05,.32,.05h2.3v.7h-2.8Z"/>
      <path class="cls-25" d="M43.68,74.61c.09,.18,.22,.59,.22,1.1,0,1.16-.78,1.91-1.96,1.91s-2.04-.81-2.04-2.06c0-.41,.1-.78,.21-.97l.53,.16c-.09,.17-.18,.43-.18,.81,0,.88,.66,1.35,1.45,1.35,.89,0,1.43-.57,1.43-1.33,0-.4-.09-.66-.18-.86l.52-.12Z"/>
      <path class="cls-25" d="M38.2,73.8v-.7h2.4v-.02c-.2-.11-.38-.29-.5-.5-.12-.21-.19-.45-.19-.71,0-.52,.32-1.34,1.63-1.34h2.28v.7h-2.2c-.62,0-1.13,.23-1.13,.89,0,.45,.32,.8,.69,.93,.1,.04,.21,.05,.33,.05h2.31v.7h-5.62Z"/>
      <path class="cls-25" d="M41.02,69.4c-.4,0-.72,.02-1.04,.03v-.61l.63-.03v-.02c-.36-.21-.71-.57-.71-1.21,0-.51,.32-.91,.77-1.08v-.02c-.22-.12-.38-.28-.5-.44-.17-.23-.27-.48-.27-.84,0-.52,.33-1.27,1.66-1.27h2.25v.68h-2.16c-.74,0-1.18,.28-1.18,.83,0,.4,.29,.71,.62,.83,.1,.03,.22,.06,.35,.06h2.37v.68h-2.3c-.61,0-1.04,.27-1.04,.8,0,.43,.35,.75,.7,.86,.1,.04,.22,.05,.34,.05h2.3v.68h-2.8Z"/>
      <path class="cls-25" d="M42.9,60.11c.33,0,.66-.02,.92-.06v.63l-.48,.06v.02c.3,.21,.57,.63,.57,1.17,0,.78-.55,1.17-1.1,1.17-.93,0-1.43-.82-1.43-2.3h-.08c-.31,0-.89,.09-.88,.87,0,.36,.1,.74,.29,1.01l-.47,.16c-.2-.32-.33-.78-.33-1.27,0-1.17,.8-1.46,1.56-1.46h1.43Zm-1.04,.67c-.02,.76,.12,1.62,.86,1.62,.46,0,.67-.3,.67-.65,0-.51-.32-.83-.64-.94-.08-.02-.16-.03-.22-.03h-.67Z"/>
      <path class="cls-25" d="M41.18,58.98c-.45,0-.84,0-1.2,.03v-.61l.76-.03v-.02c-.52-.17-.84-.6-.84-1.07,0-.07,0-.13,.02-.19h.66c-.02,.07-.02,.14-.02,.24,0,.49,.36,.84,.89,.93,.1,.02,.21,.02,.33,.02h2.04v.7h-2.64Z"/>
      <path class="cls-25" d="M41.74,55.67v-.02c-.13-.09-.3-.22-.44-.33l-1.32-1.13v-.83l1.58,1.47,2.26-1.69v.86l-1.84,1.31,.4,.36h1.44v.69h-5.62v-.69h3.55Z"/>
      <path class="cls-25" d="M42.98,51.03c.2-.31,.35-.75,.35-1.23,0-.71-.37-1.12-.91-1.12-.49,0-.78,.29-1.05,1.01-.32,.87-.78,1.41-1.52,1.41-.83,0-1.45-.69-1.45-1.73,0-.54,.13-.94,.26-1.17l.56,.19c-.1,.17-.25,.52-.25,1.01,0,.73,.44,1.01,.8,1.01,.5,0,.74-.32,1.03-1.06,.35-.9,.78-1.35,1.57-1.35,.82,0,1.54,.6,1.54,1.86,0,.52-.16,1.08-.35,1.36l-.58-.18Z"/>
      <path class="cls-25" d="M43.68,44.29c.09,.18,.22,.59,.22,1.1,0,1.16-.78,1.91-1.96,1.91s-2.04-.81-2.04-2.06c0-.41,.1-.78,.21-.97l.53,.16c-.09,.17-.18,.43-.18,.81,0,.88,.66,1.35,1.45,1.35,.89,0,1.43-.57,1.43-1.33,0-.4-.09-.66-.18-.86l.52-.12Z"/>
      <path class="cls-25" d="M41.87,40.05c1.42,0,2.04,.99,2.04,1.91,0,1.03-.76,1.84-1.97,1.84-1.28,0-2.03-.85-2.03-1.9s.8-1.84,1.96-1.84Zm.04,3.03c.84,0,1.47-.48,1.47-1.16s-.63-1.16-1.49-1.16c-.65,0-1.46,.32-1.46,1.15s.76,1.17,1.48,1.17Z"/>
      <path class="cls-25" d="M41.18,39.17c-.45,0-.84,0-1.2,.03v-.61l.76-.03v-.02c-.52-.17-.84-.6-.84-1.07,0-.07,0-.13,.02-.19h.66c-.02,.07-.02,.14-.02,.24,0,.49,.36,.84,.89,.93,.1,.02,.21,.02,.33,.02h2.04v.7h-2.64Z"/>
      <path class="cls-25" d="M42.03,36.27c.94-.02,1.33-.61,1.33-1.31,0-.5-.09-.81-.2-1.06l.5-.13c.11,.25,.25,.67,.25,1.28,0,1.18-.78,1.88-1.94,1.88s-2.06-.68-2.06-1.8c0-1.26,1.09-1.58,1.8-1.58,.14,0,.25,0,.32,.02v2.69Zm-.5-2.04c-.44,0-1.12,.18-1.12,.97,0,.71,.64,1.01,1.12,1.07v-2.04Z"/>
    </g>
    <circle class="cls-21" cx="87.93" cy="88.62" r="1.55"/>
    <circle class="cls-19" cx="87.67" cy="59.51" r="1.55"/>
    <circle class="cls-24" cx="130.95" cy="46.93" r="1.55"/>
    <g>
      <line class="cls-20" x1="127.79" y1="49.55" x2="91.09" y2="86.24"/>
      <g>
        <line class="cls-7" x1="125.86" y1="51.48" x2="91.09" y2="86.24"/>
        <polygon class="cls-21" points="124.13 50.53 127.79 49.55 126.81 53.21 124.13 50.53"/>
      </g>
    </g>
    <g>
      <line class="cls-21" x1="87.63" y1="63.65" x2="87.76" y2="84.63"/>
      <g>
        <line class="cls-7" x1="87.65" y1="66.38" x2="87.76" y2="84.63"/>
        <polygon class="cls-21" points="85.75 66.95 87.63 63.65 89.54 66.92 85.75 66.95"/>
      </g>
    </g>
    <g>
      <path class="cls-19" d="M59.51,65.93v1.78h1.71v.45h-1.71v1.79h-.48v-1.79h-1.71v-.45h1.71v-1.78h.48Z"/>
      <path class="cls-19" d="M61.99,69.29c.2,.12,.55,.26,.89,.26,.48,0,.7-.23,.7-.54s-.19-.48-.67-.67c-.67-.24-.98-.6-.98-1.04,0-.59,.48-1.07,1.26-1.07,.37,0,.7,.1,.89,.23l-.16,.48c-.14-.09-.41-.22-.75-.22-.39,0-.61,.23-.61,.5,0,.3,.21,.44,.69,.63,.63,.23,.96,.55,.96,1.1,0,.65-.51,1.1-1.36,1.1-.4,0-.77-.11-1.03-.26l.16-.5Z"/>
      <path class="cls-19" d="M67.65,69.08c0,.32,.01,.63,.05,.88h-.6l-.05-.46h-.02c-.2,.29-.6,.54-1.12,.54-.74,0-1.12-.52-1.12-1.05,0-.89,.79-1.37,2.2-1.36v-.08c0-.3-.08-.85-.83-.84-.35,0-.7,.1-.96,.27l-.15-.45c.3-.19,.75-.32,1.21-.32,1.12,0,1.39,.76,1.39,1.49v1.37Zm-.64-.99c-.73-.02-1.55,.11-1.55,.82,0,.44,.29,.64,.62,.64,.48,0,.79-.3,.9-.61,.02-.08,.03-.15,.03-.21v-.64Z"/>
      <path class="cls-19" d="M68.8,69.96v-3.16h-.51v-.51h.51v-.17c0-.51,.12-.98,.42-1.28,.25-.24,.58-.34,.89-.34,.24,0,.44,.05,.57,.11l-.09,.51c-.1-.05-.23-.08-.42-.08-.57,0-.71,.49-.71,1.06v.2h.88v.51h-.88v3.16h-.66Z"/>
      <path class="cls-19" d="M71.21,68.25c.01,.9,.58,1.27,1.26,1.27,.48,0,.77-.08,1.01-.19l.12,.48c-.23,.11-.64,.23-1.23,.23-1.13,0-1.8-.75-1.8-1.85s.65-1.97,1.72-1.97c1.2,0,1.51,1.04,1.51,1.72,0,.14,0,.23-.02,.31h-2.57Zm1.95-.48c0-.42-.17-1.07-.92-1.07-.68,0-.97,.61-1.02,1.07h1.95Z"/>
      <path class="cls-19" d="M75.44,65.42v.88h.95v.51h-.95v1.98c0,.45,.13,.71,.5,.71,.18,0,.29-.02,.39-.05l.03,.51c-.13,.05-.33,.09-.59,.09-.31,0-.56-.11-.72-.28-.18-.2-.26-.53-.26-.96v-2h-.57v-.51h.57v-.68l.65-.2Z"/>
      <path class="cls-19" d="M77.45,66.3l.79,2.17c.09,.24,.18,.53,.24,.75h.01c.07-.22,.14-.5,.23-.76l.73-2.15h.7l-1,2.61c-.48,1.26-.8,1.89-1.26,2.29-.33,.28-.65,.39-.82,.42l-.17-.55c.17-.05,.39-.16,.58-.33,.18-.14,.4-.4,.56-.74,.03-.07,.05-.12,.05-.16s-.02-.09-.05-.17l-1.35-3.38h.73Z"/>
      <path class="cls-19" d="M53.94,74.51v.88h.95v.51h-.95v1.97c0,.46,.13,.71,.5,.71,.18,0,.29-.01,.39-.05l.03,.51c-.13,.04-.33,.09-.59,.09-.31,0-.56-.11-.72-.28-.18-.2-.26-.53-.26-.96v-2h-.57v-.51h.57v-.68l.65-.2Z"/>
      <path class="cls-19" d="M55.97,77.34c.01,.9,.58,1.27,1.26,1.27,.48,0,.77-.08,1.01-.19l.12,.48c-.23,.11-.64,.24-1.23,.24-1.13,0-1.8-.75-1.8-1.85s.65-1.97,1.72-1.97c1.2,0,1.51,1.04,1.51,1.72,0,.14,0,.23-.02,.31h-2.57Zm1.95-.48c0-.42-.17-1.08-.92-1.08-.68,0-.97,.61-1.02,1.08h1.95Z"/>
      <path class="cls-19" d="M62.01,78.92c-.17,.08-.56,.21-1.05,.21-1.1,0-1.82-.75-1.82-1.87s.77-1.95,1.97-1.95c.39,0,.74,.1,.92,.2l-.15,.51c-.16-.08-.41-.17-.77-.17-.84,0-1.29,.63-1.29,1.38,0,.85,.54,1.37,1.27,1.37,.38,0,.63-.09,.82-.17l.11,.5Z"/>
      <path class="cls-19" d="M62.79,73.68h.67v2.29h.01c.11-.19,.27-.36,.48-.48,.2-.11,.43-.18,.68-.18,.49,0,1.28,.3,1.28,1.56v2.18h-.67v-2.1c0-.59-.22-1.08-.85-1.08-.43,0-.76,.3-.89,.66-.04,.1-.04,.2-.04,.32v2.21h-.67v-5.37Z"/>
      <path class="cls-19" d="M66.99,76.38c0-.39,0-.69-.03-.99h.59l.04,.61h.01c.18-.34,.61-.68,1.21-.68,.51,0,1.29,.3,1.29,1.56v2.18h-.67v-2.11c0-.59-.22-1.08-.85-1.08-.43,0-.77,.31-.89,.68-.03,.08-.04,.2-.04,.31v2.2h-.67v-2.67Z"/>
      <path class="cls-19" d="M71.94,74.36c0,.23-.16,.41-.42,.41-.24,0-.4-.18-.4-.41s.17-.42,.42-.42,.41,.18,.41,.42Zm-.74,4.69v-3.66h.67v3.66h-.67Z"/>
      <path class="cls-19" d="M75.47,78.49h-.01c-.21,.36-.61,.64-1.2,.64-.85,0-1.55-.73-1.55-1.85,0-1.38,.89-1.98,1.66-1.98,.57,0,.95,.28,1.13,.63h.02l.02-.55h.63c-.01,.3-.03,.63-.03,1.01v4.16h-.66v-2.06Zm0-1.62c0-.09,0-.19-.03-.27-.11-.41-.45-.76-.95-.76-.69,0-1.11,.58-1.11,1.4,0,.73,.35,1.36,1.08,1.36,.43,0,.8-.26,.95-.72,.03-.1,.05-.23,.05-.33v-.69Z"/>
      <path class="cls-19" d="M80.3,78.04c0,.39,0,.72,.03,1.01h-.59l-.04-.6h-.01c-.17,.3-.56,.68-1.21,.68-.58,0-1.26-.33-1.26-1.6v-2.14h.67v2.02c0,.7,.22,1.17,.82,1.17,.45,0,.76-.31,.88-.61,.04-.09,.06-.21,.06-.34v-2.24h.67v2.66Z"/>
      <path class="cls-19" d="M81.78,77.34c.02,.9,.58,1.27,1.26,1.27,.48,0,.77-.08,1.01-.19l.12,.48c-.24,.11-.64,.24-1.23,.24-1.13,0-1.8-.75-1.8-1.85s.65-1.97,1.72-1.97c1.2,0,1.51,1.04,1.51,1.72,0,.14,0,.23-.02,.31h-2.57Zm1.95-.48c0-.42-.17-1.08-.92-1.08-.68,0-.97,.61-1.02,1.08h1.95Z"/>
    </g>
    <g>
      <path class="cls-24" d="M114.9,68.99v1.81h1.75v.46h-1.75v1.83h-.49v-1.83h-1.75v-.46h1.75v-1.81h.49Z"/>
      <path class="cls-24" d="M120.18,72.97c-.18,.08-.57,.22-1.07,.22-1.13,0-1.86-.76-1.86-1.91s.79-1.99,2.01-1.99c.4,0,.76,.1,.94,.2l-.16,.52c-.16-.09-.42-.18-.79-.18-.86,0-1.32,.64-1.32,1.41,0,.87,.56,1.4,1.3,1.4,.39,0,.64-.09,.83-.18l.12,.51Z"/>
      <path class="cls-24" d="M123.61,72.2c0,.32,.02,.64,.05,.9h-.61l-.05-.47h-.02c-.21,.29-.61,.56-1.14,.56-.76,0-1.14-.53-1.14-1.07,0-.9,.8-1.4,2.25-1.39v-.08c0-.3-.08-.87-.85-.86-.36,0-.72,.1-.98,.28l-.15-.46c.31-.19,.76-.32,1.24-.32,1.14,0,1.42,.78,1.42,1.52v1.4Zm-.66-1.01c-.74-.01-1.58,.12-1.58,.84,0,.45,.29,.65,.63,.65,.49,0,.81-.31,.92-.63,.02-.08,.03-.15,.03-.21v-.65Z"/>
      <path class="cls-24" d="M124.71,70.58c0-.48-.02-.86-.03-1.22h.6l.04,.64h.02c.27-.46,.72-.72,1.33-.72,.91,0,1.59,.76,1.59,1.89,0,1.34-.83,2.01-1.71,2.01-.49,0-.93-.22-1.15-.59h-.02v2.03h-.67v-4.05Zm.67,1c0,.1,0,.19,.03,.28,.12,.47,.53,.8,1.02,.8,.72,0,1.13-.59,1.13-1.44,0-.74-.39-1.38-1.11-1.38-.46,0-.9,.32-1.03,.83-.02,.08-.05,.19-.05,.27v.65Z"/>
      <path class="cls-24" d="M131.73,72.2c0,.32,.02,.64,.05,.9h-.61l-.05-.47h-.02c-.21,.29-.61,.56-1.14,.56-.76,0-1.14-.53-1.14-1.07,0-.9,.8-1.4,2.25-1.39v-.08c0-.3-.08-.87-.85-.86-.36,0-.72,.1-.98,.28l-.15-.46c.31-.19,.76-.32,1.24-.32,1.14,0,1.42,.78,1.42,1.52v1.4Zm-.66-1.01c-.74-.01-1.58,.12-1.58,.84,0,.45,.29,.65,.63,.65,.49,0,.81-.31,.92-.63,.02-.08,.03-.15,.03-.21v-.65Z"/>
      <path class="cls-24" d="M132.83,67.62h.67v2.35h.02c.24-.42,.67-.68,1.27-.68,.93,0,1.58,.77,1.58,1.9,0,1.33-.85,2-1.68,2-.54,0-.97-.21-1.26-.69h-.02l-.04,.61h-.58c.01-.25,.03-.63,.03-.96v-4.52Zm.67,3.98c0,.08,0,.17,.03,.25,.12,.47,.52,.8,1.02,.8,.72,0,1.13-.58,1.13-1.44,0-.75-.39-1.39-1.12-1.39-.46,0-.89,.32-1.03,.83-.02,.08-.04,.18-.04,.29v.66Z"/>
      <path class="cls-24" d="M137.98,68.31c0,.23-.16,.42-.43,.42-.25,0-.41-.18-.41-.42s.17-.42,.42-.42,.42,.18,.42,.42Zm-.76,4.79v-3.74h.68v3.74h-.68Z"/>
      <path class="cls-24" d="M139.03,67.62h.68v5.48h-.68v-5.48Z"/>
      <path class="cls-24" d="M141.61,68.31c0,.23-.16,.42-.43,.42-.25,0-.41-.18-.41-.42s.17-.42,.42-.42,.42,.18,.42,.42Zm-.76,4.79v-3.74h.68v3.74h-.68Z"/>
      <path class="cls-24" d="M143.48,68.46v.9h.97v.52h-.97v2.01c0,.46,.13,.73,.51,.73,.19,0,.29-.02,.39-.05l.03,.52c-.13,.05-.34,.09-.6,.09-.32,0-.57-.11-.73-.29-.19-.21-.26-.54-.26-.98v-2.04h-.58v-.52h.58v-.7l.66-.2Z"/>
      <path class="cls-24" d="M145.98,68.31c0,.23-.16,.42-.43,.42-.25,0-.41-.18-.41-.42s.17-.42,.42-.42,.42,.18,.42,.42Zm-.76,4.79v-3.74h.68v3.74h-.68Z"/>
      <path class="cls-24" d="M147.41,71.35c.01,.92,.59,1.3,1.28,1.3,.49,0,.79-.09,1.03-.19l.12,.49c-.24,.11-.66,.24-1.25,.24-1.15,0-1.84-.76-1.84-1.89s.66-2.01,1.75-2.01c1.23,0,1.54,1.07,1.54,1.75,0,.14,0,.24-.02,.32h-2.62Zm1.99-.49c0-.42-.18-1.1-.94-1.1-.7,0-.99,.63-1.04,1.1h1.98Z"/>
      <path class="cls-24" d="M150.81,72.41c.21,.12,.56,.26,.9,.26,.49,0,.72-.24,.72-.56s-.19-.49-.69-.68c-.68-.25-1-.61-1-1.06,0-.6,.49-1.1,1.29-1.1,.38,0,.71,.1,.91,.23l-.16,.49c-.15-.09-.42-.22-.76-.22-.4,0-.62,.23-.62,.51,0,.31,.22,.45,.7,.64,.64,.24,.98,.56,.98,1.12,0,.66-.52,1.13-1.39,1.13-.41,0-.79-.11-1.05-.26l.16-.51Z"/>
      <path class="cls-24" d="M104.87,77.01c-.56,.76-.96,1.76-.96,3.17s.42,2.36,.96,3.13h-.52c-.49-.64-1.01-1.63-1.01-3.13,0-1.51,.53-2.51,1.01-3.16h.52Z"/>
      <path class="cls-24" d="M108.81,76.89v4.52c0,.33,.02,.71,.03,.96h-.6l-.03-.65h-.02c-.2,.42-.65,.73-1.26,.73-.9,0-1.61-.76-1.61-1.9,0-1.24,.77-2,1.68-2,.58,0,.96,.27,1.13,.56h.02v-2.23h.67Zm-.67,3.27c0-.08,0-.2-.03-.29-.1-.42-.47-.78-.98-.78-.7,0-1.12,.62-1.12,1.44,0,.76,.38,1.38,1.1,1.38,.46,0,.87-.31,1-.81,.02-.09,.03-.19,.03-.29v-.65Z"/>
      <path class="cls-24" d="M110.33,80.63c.01,.92,.59,1.3,1.28,1.3,.49,0,.79-.09,1.03-.19l.12,.49c-.24,.11-.66,.24-1.25,.24-1.15,0-1.84-.76-1.84-1.89s.66-2.01,1.75-2.01c1.23,0,1.54,1.07,1.54,1.75,0,.14,0,.24-.02,.32h-2.62Zm1.99-.49c0-.42-.18-1.1-.94-1.1-.7,0-.99,.63-1.04,1.1h1.98Z"/>
      <path class="cls-24" d="M113.89,82.37v-3.22h-.52v-.52h.52v-.18c0-.53,.12-1,.43-1.3,.25-.25,.59-.35,.91-.35,.25,0,.45,.05,.58,.11l-.09,.53c-.1-.05-.23-.08-.43-.08-.58,0-.73,.5-.73,1.08v.2h.9v.52h-.9v3.22h-.67Z"/>
      <path class="cls-24" d="M118.71,81.48c0,.32,.02,.64,.05,.9h-.61l-.05-.47h-.02c-.21,.29-.61,.56-1.14,.56-.76,0-1.14-.53-1.14-1.07,0-.9,.8-1.4,2.25-1.39v-.08c0-.3-.08-.87-.85-.86-.36,0-.72,.1-.98,.28l-.15-.46c.31-.19,.76-.32,1.24-.32,1.14,0,1.42,.78,1.42,1.52v1.4Zm-.66-1.01c-.74-.01-1.58,.12-1.58,.84,0,.45,.29,.65,.63,.65,.49,0,.81-.31,.92-.63,.02-.08,.03-.15,.03-.21v-.65Z"/>
      <path class="cls-24" d="M122.93,81.34c0,.39,0,.73,.03,1.03h-.6l-.04-.61h-.02c-.17,.3-.57,.69-1.24,.69-.59,0-1.29-.33-1.29-1.64v-2.18h.68v2.06c0,.71,.22,1.2,.83,1.2,.46,0,.77-.32,.9-.62,.04-.09,.06-.22,.06-.35v-2.29h.68v2.71Z"/>
      <path class="cls-24" d="M124.06,76.89h.68v5.48h-.68v-5.48Z"/>
      <path class="cls-24" d="M126.71,77.74v.9h.97v.52h-.97v2.01c0,.46,.13,.73,.51,.73,.19,0,.29-.02,.39-.05l.03,.52c-.13,.05-.34,.09-.6,.09-.32,0-.57-.11-.73-.29-.19-.21-.26-.54-.26-.98v-2.04h-.58v-.52h.58v-.7l.66-.2Z"/>
      <path class="cls-24" d="M130.9,77.74v.9h.97v.52h-.97v2.01c0,.46,.13,.73,.51,.73,.19,0,.29-.02,.39-.05l.03,.52c-.13,.05-.34,.09-.6,.09-.32,0-.57-.11-.73-.29-.19-.21-.26-.54-.26-.98v-2.04h-.58v-.52h.58v-.7l.66-.2Z"/>
      <path class="cls-24" d="M132.64,79.8c0-.44,0-.82-.03-1.17h.59l.03,.74h.02c.17-.5,.59-.82,1.04-.82,.07,0,.12,0,.19,.02v.64c-.07-.02-.14-.02-.23-.02-.48,0-.82,.36-.91,.87-.02,.09-.02,.21-.02,.32v1.99h-.68v-2.57Z"/>
      <path class="cls-24" d="M137.76,81.48c0,.32,.02,.64,.05,.9h-.61l-.05-.47h-.02c-.21,.29-.61,.56-1.14,.56-.76,0-1.14-.53-1.14-1.07,0-.9,.8-1.4,2.25-1.39v-.08c0-.3-.08-.87-.85-.86-.36,0-.72,.1-.98,.28l-.15-.46c.31-.19,.76-.32,1.24-.32,1.14,0,1.42,.78,1.42,1.52v1.4Zm-.66-1.01c-.74-.01-1.58,.12-1.58,.84,0,.45,.29,.65,.63,.65,.49,0,.81-.31,.92-.63,.02-.08,.03-.15,.03-.21v-.65Z"/>
      <path class="cls-24" d="M137.94,83.47c.32-.02,.58-.11,.74-.29,.19-.21,.26-.5,.26-1.4v-3.14h.68v3.4c0,.73-.12,1.2-.45,1.54-.3,.3-.79,.42-1.16,.42l-.08-.53Zm1.76-5.88c0,.22-.15,.42-.43,.42-.25,0-.41-.19-.41-.42s.17-.42,.42-.42,.42,.19,.42,.42Z"/>
      <path class="cls-24" d="M141.11,80.63c.01,.92,.59,1.3,1.28,1.3,.49,0,.79-.09,1.03-.19l.12,.49c-.24,.11-.66,.24-1.25,.24-1.15,0-1.84-.76-1.84-1.89s.66-2.01,1.75-2.01c1.23,0,1.54,1.07,1.54,1.75,0,.14,0,.24-.02,.32h-2.62Zm1.99-.49c0-.42-.18-1.1-.94-1.1-.7,0-.99,.63-1.04,1.1h1.98Z"/>
      <path class="cls-24" d="M147.27,82.24c-.18,.08-.57,.22-1.07,.22-1.13,0-1.86-.76-1.86-1.91s.79-1.99,2.01-1.99c.4,0,.76,.1,.94,.2l-.16,.52c-.16-.09-.42-.18-.79-.18-.86,0-1.32,.64-1.32,1.41,0,.87,.56,1.4,1.3,1.4,.39,0,.64-.09,.83-.18l.12,.51Z"/>
      <path class="cls-24" d="M148.99,77.74v.9h.97v.52h-.97v2.01c0,.46,.13,.73,.51,.73,.19,0,.29-.02,.39-.05l.03,.52c-.13,.05-.34,.09-.6,.09-.32,0-.57-.11-.73-.29-.19-.21-.26-.54-.26-.98v-2.04h-.58v-.52h.58v-.7l.66-.2Z"/>
      <path class="cls-24" d="M154.06,80.47c0,1.38-.96,1.98-1.86,1.98-1,0-1.79-.74-1.79-1.92,0-1.24,.83-1.98,1.85-1.98s1.8,.78,1.8,1.92Zm-2.96,.04c0,.82,.46,1.44,1.13,1.44s1.14-.61,1.14-1.45c0-.63-.32-1.43-1.12-1.43s-1.14,.74-1.14,1.44Z"/>
      <path class="cls-24" d="M154.92,79.8c0-.44,0-.82-.03-1.17h.59l.03,.74h.02c.17-.5,.59-.82,1.04-.82,.07,0,.12,0,.19,.02v.64c-.07-.02-.14-.02-.23-.02-.48,0-.82,.36-.91,.87-.02,.09-.02,.21-.02,.32v1.99h-.68v-2.57Z"/>
      <path class="cls-24" d="M157.89,78.63l.81,2.21c.09,.25,.19,.54,.25,.77h.02c.07-.22,.15-.51,.24-.78l.74-2.19h.72l-1.02,2.66c-.49,1.28-.82,1.93-1.28,2.34-.34,.29-.66,.4-.83,.43l-.17-.56c.17-.05,.39-.16,.59-.33,.19-.15,.41-.41,.57-.76,.03-.07,.05-.12,.05-.16s-.02-.09-.05-.18l-1.37-3.44h.74Z"/>
      <path class="cls-24" d="M160.87,83.3c.54-.76,.96-1.76,.96-3.15s-.42-2.37-.96-3.14h.53c.49,.63,1.01,1.63,1.01,3.14,0,1.51-.52,2.5-1.01,3.15h-.53Z"/>
    </g>
    <path class="cls-15" d="M214.66,43.25h-.02l-1.15,.62-.17-.68,1.45-.78h.77v6.64h-.87v-5.8Z"/>
    <path class="cls-19" d="M212.56,62.75v-.55l.71-.68c1.69-1.61,2.47-2.47,2.47-3.47,0-.67-.32-1.3-1.31-1.3-.6,0-1.1,.31-1.41,.56l-.29-.63c.45-.38,1.11-.67,1.87-.67,1.43,0,2.03,.98,2.03,1.93,0,1.23-.89,2.22-2.29,3.56l-.52,.49v.02h2.97v.75h-4.24Z"/>
    <path class="cls-8" d="M212.42,75.08c.25,.15,.84,.41,1.47,.41,1.14,0,1.51-.72,1.5-1.29-.01-.93-.85-1.33-1.71-1.33h-.5v-.67h.5c.65,0,1.48-.34,1.48-1.12,0-.53-.34-1-1.16-1-.53,0-1.04,.23-1.33,.44l-.25-.65c.36-.25,1.03-.51,1.75-.51,1.31,0,1.9,.78,1.9,1.58,0,.69-.42,1.28-1.23,1.57v.02c.82,.15,1.47,.77,1.48,1.69,0,1.06-.84,1.99-2.42,1.99-.75,0-1.4-.23-1.73-.45l.25-.68Z"/>
    <path class="cls-12" d="M214.64,89.75v-1.82h-3.08v-.58l2.96-4.24h.97v4.12h.93v.69h-.93v1.82h-.85Zm0-2.51v-2.22c0-.35,0-.69,.03-1.04h-.03c-.2,.39-.37,.67-.55,.98l-1.62,2.26v.02h2.17Z"/>
    <g>
      <line class="cls-4" x1="135.5" y1="46.62" x2="137.5" y2="46.62"/>
      <line class="cls-2" x1="141.72" y1="46.62" x2="207.15" y2="46.62"/>
      <line class="cls-4" x1="209.26" y1="46.62" x2="211.26" y2="46.62"/>
    </g>
    <g>
      <line class="cls-3" x1="90.77" y1="59.59" x2="92.77" y2="59.59"/>
      <line class="cls-1" x1="96.79" y1="59.59" x2="207.24" y2="59.59"/>
      <line class="cls-3" x1="209.25" y1="59.59" x2="211.25" y2="59.59"/>
    </g>
    <polygon class="cls-5" points="375.66 47.81 375.66 69.02 262.77 69.02 262.77 60.39 233.84 45.72 264.84 47.81 375.66 47.81"/>
    <polygon class="cls-10" points="220.6 44.97 218.72 52.48 221 50.62 222.25 53.29 224.14 45.78 220.6 44.97"/>
    <polygon class="cls-14" points="222.43 45.83 224.56 53.27 225.6 50.52 228.03 52.19 225.89 44.75 222.43 45.83"/>
    <circle class="cls-9" cx="223.14" cy="43.86" r="4.48"/>
    <text/>
    <g>
      <path class="cls-17" d="M279.54,57.8c0,1.2-.43,2.44-1.22,3.21-.61,.6-1.43,.96-2.4,.96-1.75,0-2.66-1.28-2.66-2.78,0-1.2,.46-2.46,1.27-3.24,.6-.59,1.45-.94,2.36-.94,1.8,0,2.65,1.25,2.65,2.79Zm-4.12-1.23c-.59,.59-.92,1.69-.92,2.56,0,1.02,.45,1.86,1.59,1.86,.49,0,.95-.21,1.31-.57,.57-.58,.9-1.73,.9-2.58s-.31-1.85-1.55-1.85c-.52,0-.97,.22-1.33,.58Z"/>
      <path class="cls-17" d="M284.94,56.99l-.64,3.36c-.11,.58-.18,1.09-.24,1.51h-1.04l.11-.85h-.02c-.47,.63-1.08,.96-1.69,.96-.71,0-1.27-.38-1.27-1.38,0-.26,.03-.54,.1-.87l.52-2.73h1.16l-.5,2.66c-.05,.24-.08,.48-.08,.67,0,.4,.16,.69,.62,.69,.54,0,1.16-.64,1.36-1.65l.44-2.37h1.17Z"/>
      <path class="cls-17" d="M285.36,61.86l.57-3c.13-.69,.2-1.44,.25-1.87h1.01c-.03,.33-.06,.67-.11,1.02h.03c.33-.65,.86-1.13,1.52-1.13,.09,0,.18,0,.26,0l-.23,1.14c-.06,0-.14,0-.22,0-.83,0-1.36,.84-1.55,1.88l-.37,1.96h-1.16Z"/>
      <path class="cls-17" d="M291.13,57.57c.41-.91,.99-1.94,1.45-2.56l.78-.07c-.37,.73-.79,1.73-1.04,2.54l-1.19,.09Zm1.75,0c.41-.91,.98-1.94,1.45-2.56l.78-.07c-.37,.73-.8,1.73-1.04,2.54l-1.19,.09Z"/>
      <path class="cls-17" d="M294.58,60.78c.25,.14,.73,.32,1.17,.32,.47,0,.75-.27,.75-.6,0-.3-.16-.5-.64-.75-.56-.3-.96-.71-.96-1.27,0-.94,.82-1.6,1.97-1.6,.51,0,.93,.12,1.14,.25l-.29,.84c-.19-.1-.51-.22-.91-.22-.44,0-.74,.23-.74,.56,0,.28,.21,.47,.63,.68,.54,.29,1.01,.69,1.01,1.31,0,1.08-.9,1.68-2.07,1.67-.57,0-1.1-.17-1.36-.36l.3-.83Z"/>
      <path class="cls-17" d="M301.64,61.86c0-.29,.04-.68,.08-1.09h-.02c-.48,.89-1.13,1.2-1.75,1.2-.87,0-1.44-.68-1.44-1.66,0-1.66,1.16-3.43,3.43-3.43,.53,0,1.1,.1,1.48,.22l-.51,2.54c-.14,.72-.22,1.64-.2,2.22h-1.07Zm.47-4.03c-.12-.03-.27-.05-.48-.05-1.07,0-1.91,1.21-1.91,2.32,0,.51,.19,.93,.7,.93,.55,0,1.21-.68,1.44-1.92l.25-1.28Z"/>
      <path class="cls-17" d="M304.05,61.86l.75-3.97h-.64l.18-.9h.63l.05-.25c.11-.62,.35-1.23,.81-1.64,.35-.31,.83-.45,1.28-.45,.34,0,.58,.06,.72,.13l-.22,.93c-.13-.06-.29-.09-.47-.09-.56,0-.86,.51-.97,1.13l-.04,.24h1.01l-.17,.9h-1.01l-.75,3.97h-1.16Z"/>
      <path class="cls-17" d="M310.82,61.58c-.48,.25-1.13,.39-1.72,.39-1.35,0-2-.83-2-2.02,0-1.47,1.08-3.07,2.76-3.07,.96,0,1.57,.55,1.57,1.37,0,1.25-1.31,1.65-3.19,1.61-.02,.17,.02,.5,.13,.69,.19,.33,.54,.5,1,.5,.55,0,.99-.14,1.34-.32l.11,.85Zm-1.11-3.83c-.73,0-1.21,.65-1.35,1.24,1.2,0,1.97-.15,1.97-.74,0-.31-.25-.5-.62-.5Z"/>
      <path class="cls-17" d="M314.26,55.74l-.23,1.25h1.09l-.18,.9h-1.09l-.38,1.96c-.05,.23-.09,.48-.09,.69,0,.27,.12,.44,.43,.44,.14,0,.28,0,.4-.03l-.11,.91c-.17,.07-.48,.1-.76,.1-.8,0-1.15-.44-1.15-1,0-.27,.03-.54,.1-.9l.42-2.17h-.65l.17-.9h.65l.18-.91,1.2-.34Z"/>
      <path class="cls-17" d="M316.69,56.99l.38,2.34c.09,.53,.15,.89,.19,1.22h.02c.12-.3,.24-.63,.47-1.16l1.04-2.4h1.24l-1.78,3.59c-.59,1.18-1.13,2.05-1.78,2.68-.56,.54-1.2,.78-1.5,.84l-.27-1c.22-.08,.56-.2,.86-.43,.33-.23,.64-.57,.86-.97,.04-.07,.04-.13,.02-.22l-.97-4.49h1.22Z"/>
      <path class="cls-17" d="M321.78,61.86l.57-3c.13-.69,.2-1.44,.25-1.87h1.01c-.03,.33-.06,.67-.11,1.02h.03c.33-.65,.86-1.13,1.52-1.13,.09,0,.18,0,.26,0l-.23,1.14c-.06,0-.14,0-.22,0-.83,0-1.36,.84-1.55,1.88l-.37,1.96h-1.16Z"/>
      <path class="cls-17" d="M329.04,61.58c-.48,.25-1.13,.39-1.72,.39-1.35,0-2-.83-2-2.02,0-1.47,1.08-3.07,2.76-3.07,.96,0,1.57,.55,1.57,1.37,0,1.25-1.31,1.65-3.19,1.61-.02,.17,.02,.5,.13,.69,.19,.33,.54,.5,1,.5,.55,0,.99-.14,1.34-.32l.11,.85Zm-1.11-3.83c-.73,0-1.21,.65-1.35,1.24,1.2,0,1.97-.15,1.97-.74,0-.31-.25-.5-.62-.5Z"/>
      <path class="cls-17" d="M330.13,60.78c.25,.14,.73,.32,1.17,.32,.47,0,.75-.27,.75-.6,0-.3-.16-.5-.64-.75-.56-.3-.96-.71-.96-1.27,0-.94,.82-1.6,1.97-1.6,.51,0,.93,.12,1.14,.25l-.29,.84c-.19-.1-.51-.22-.91-.22-.44,0-.74,.23-.74,.56,0,.28,.21,.47,.63,.68,.54,.29,1.01,.69,1.01,1.31,0,1.08-.9,1.68-2.07,1.67-.57,0-1.1-.17-1.36-.36l.3-.83Z"/>
      <path class="cls-17" d="M337.81,61.58c-.48,.25-1.13,.39-1.72,.39-1.35,0-2-.83-2-2.02,0-1.47,1.08-3.07,2.76-3.07,.96,0,1.57,.55,1.57,1.37,0,1.25-1.31,1.65-3.19,1.61-.02,.17,.02,.5,.13,.69,.19,.33,.54,.5,1,.5,.55,0,.99-.14,1.34-.32l.11,.85Zm-1.11-3.83c-.73,0-1.21,.65-1.35,1.24,1.2,0,1.97-.15,1.97-.74,0-.31-.25-.5-.62-.5Z"/>
      <path class="cls-17" d="M341.99,61.86c0-.29,.04-.68,.08-1.09h-.02c-.48,.89-1.13,1.2-1.75,1.2-.87,0-1.44-.68-1.44-1.66,0-1.66,1.16-3.43,3.43-3.43,.53,0,1.1,.1,1.48,.22l-.51,2.54c-.14,.72-.22,1.64-.2,2.22h-1.07Zm.47-4.03c-.12-.03-.27-.05-.48-.05-1.07,0-1.91,1.21-1.91,2.32,0,.51,.19,.93,.7,.93,.55,0,1.21-.68,1.44-1.92l.25-1.28Z"/>
      <path class="cls-17" d="M344.22,61.86l.57-3c.13-.69,.2-1.44,.25-1.87h1.01c-.03,.33-.06,.67-.11,1.02h.03c.33-.65,.86-1.13,1.52-1.13,.09,0,.18,0,.26,0l-.23,1.14c-.06,0-.14,0-.22,0-.83,0-1.36,.84-1.55,1.88l-.37,1.96h-1.16Z"/>
      <path class="cls-17" d="M351.13,61.68c-.29,.14-.78,.28-1.4,.28-1.22,0-1.97-.78-1.97-1.94,0-1.7,1.29-3.13,3.09-3.13,.43,0,.81,.1,1,.18l-.3,.91c-.18-.08-.41-.15-.74-.15-1.12,0-1.83,1.03-1.83,2.05,0,.73,.42,1.14,1.07,1.14,.45,0,.79-.12,1.03-.23l.05,.89Z"/>
      <path class="cls-17" d="M351.96,61.86l1.35-7.11h1.16l-.57,2.96h.02c.41-.51,.95-.84,1.63-.84s1.22,.41,1.22,1.31c0,.25-.04,.59-.09,.85l-.53,2.82h-1.16l.52-2.73c.03-.19,.06-.4,.06-.64,0-.37-.17-.66-.61-.66-.56,0-1.21,.68-1.4,1.71l-.44,2.32h-1.16Z"/>
      <path class="cls-17" d="M359.78,54.93c-.41,.91-.98,1.94-1.45,2.56l-.78,.07c.37-.73,.79-1.73,1.04-2.53l1.19-.1Zm1.75,0c-.41,.91-.99,1.94-1.45,2.56l-.78,.07c.37-.73,.79-1.73,1.04-2.53l1.19-.1Z"/>
      <path class="cls-17" d="M359.57,61.24c0-.47,.34-.86,.82-.86,.42,0,.71,.31,.71,.74,0,.48-.35,.84-.84,.84-.41,0-.69-.31-.69-.72Z"/>
      <path class="cls-17" d="M361.95,61.24c0-.47,.34-.86,.82-.86,.42,0,.71,.31,.71,.74,0,.48-.35,.84-.84,.84-.41,0-.69-.31-.69-.72Z"/>
      <path class="cls-17" d="M364.33,61.24c0-.47,.34-.86,.82-.86,.42,0,.71,.31,.71,.74,0,.48-.35,.84-.84,.84-.41,0-.69-.31-.69-.72Z"/>
    </g>
    <g>
      <path class="cls-16" d="M5.8,4.94c-.26,1.21-1.17,2.08-2.79,2.08C.97,7.02,0,5.57,0,3.74S1,.38,3.08,.38c1.72,0,2.55,1.01,2.71,2.09h-1.4c-.13-.5-.48-.99-1.36-.99-1.15,0-1.6,1.04-1.6,2.21,0,1.09,.39,2.24,1.63,2.24,.91,0,1.2-.61,1.32-.99h1.41Z"/>
      <path class="cls-16" d="M10.74,5.68c0,.46,.04,1.14,.07,1.25h-1.28c-.04-.1-.07-.35-.07-.47-.18,.27-.5,.59-1.36,.59-1.17,0-1.66-.77-1.66-1.52,0-1.1,.89-1.61,2.31-1.61h.69v-.3c0-.35-.12-.68-.75-.68-.57,0-.69,.24-.75,.59h-1.28c.07-.86,.61-1.56,2.08-1.55,1.3,0,2.01,.52,2.01,1.67v2.04Zm-1.31-.96h-.55c-.81,0-1.11,.25-1.11,.71,0,.35,.22,.65,.7,.65,.85,0,.96-.59,.96-1.23v-.13Z"/>
      <path class="cls-16" d="M13.29,6.5v2.29h-1.33V3.25c0-.39,0-.78,0-1.17h1.3c.02,.13,.04,.43,.04,.6,.21-.36,.64-.72,1.41-.72,1.09,0,1.93,.91,1.93,2.42,0,1.71-.94,2.66-2.12,2.66-.68,0-1.04-.26-1.23-.54Zm1.98-2.07c0-.89-.36-1.39-1-1.39-.76,0-1.03,.49-1.03,1.47,0,.93,.25,1.46,.98,1.46s1.06-.55,1.06-1.54Z"/>
      <path class="cls-16" d="M21.55,5.68c0,.46,.04,1.14,.07,1.25h-1.28c-.04-.1-.07-.35-.07-.47-.18,.27-.5,.59-1.36,.59-1.17,0-1.66-.77-1.66-1.52,0-1.1,.89-1.61,2.31-1.61h.69v-.3c0-.35-.12-.68-.75-.68-.57,0-.69,.24-.75,.59h-1.28c.07-.86,.61-1.56,2.08-1.55,1.3,0,2.01,.52,2.01,1.67v2.04Zm-1.31-.96h-.55c-.81,0-1.11,.25-1.11,.71,0,.35,.22,.65,.7,.65,.85,0,.96-.59,.96-1.23v-.13Z"/>
      <path class="cls-16" d="M22.76,.09h1.34V2.6c.2-.31,.6-.63,1.39-.63,1.32,0,1.98,1.09,1.98,2.45s-.71,2.62-2.11,2.62c-.72,0-1.04-.22-1.27-.57,0,.16-.03,.34-.05,.46h-1.28c0-.53,0-1.06,0-1.58V.09Zm3.35,4.35c0-.81-.3-1.4-1.03-1.4-.77,0-1.04,.5-1.04,1.49,0,.82,.24,1.44,1.02,1.44,.68,0,1.04-.61,1.04-1.53Z"/>
      <path class="cls-16" d="M28.39,.09h1.34V1.29h-1.34V.09Zm0,1.99h1.34V6.93h-1.34V2.08Z"/>
      <path class="cls-16" d="M30.94,6.93V.09h1.34V6.93h-1.34Z"/>
      <path class="cls-16" d="M33.49,.09h1.34V1.29h-1.34V.09Zm0,1.99h1.34V6.93h-1.34V2.08Z"/>
      <path class="cls-16" d="M35.57,2.08h.75V.77h1.34v1.31h.95v1.01h-.95v2.39c0,.37,.11,.51,.51,.51,.07,0,.21,0,.31-.01v.92c-.27,.09-.63,.09-.9,.09-.95,0-1.26-.51-1.26-1.36V3.09h-.75v-1.01Z"/>
      <path class="cls-16" d="M39.36,.09h1.34V1.29h-1.34V.09Zm0,1.99h1.34V6.93h-1.34V2.08Z"/>
      <path class="cls-16" d="M42.97,4.79c0,.61,.31,1.2,.97,1.2,.56,0,.72-.22,.85-.52h1.34c-.17,.59-.7,1.57-2.23,1.57s-2.29-1.2-2.29-2.47c0-1.52,.78-2.61,2.34-2.61,1.67,0,2.23,1.21,2.23,2.42,0,.16,0,.27-.02,.41h-3.2Zm1.87-.83c0-.56-.23-1.04-.89-1.04s-.9,.44-.96,1.04h1.84Z"/>
      <path class="cls-16" d="M48.1,5.47c.1,.39,.42,.6,.92,.6s.68-.18,.68-.47c0-.31-.21-.43-.9-.6-1.58-.39-1.84-.88-1.84-1.56s.5-1.47,1.97-1.47,1.97,.8,2.01,1.46h-1.28c-.04-.18-.16-.52-.79-.52-.44,0-.59,.2-.59,.42,0,.24,.15,.36,.94,.54,1.62,.38,1.85,.93,1.85,1.64,0,.8-.61,1.53-2.09,1.53s-2.08-.71-2.19-1.57h1.32Z"/>
      <path class="cls-16" d="M54.53,3.94v1.17h-2.61v-1.17h2.61Z"/>
      <path class="cls-16" d="M59.94,5.37c-.17,.81-.74,1.68-2.18,1.68s-2.29-1.04-2.29-2.5,.87-2.57,2.35-2.57c1.64,0,2.09,1.17,2.12,1.72h-1.31c-.08-.39-.31-.67-.83-.67-.61,0-.96,.54-.96,1.48,0,1.03,.37,1.5,.96,1.5,.46,0,.71-.27,.83-.64h1.32Z"/>
      <path class="cls-16" d="M65.35,4.5c0,1.47-.88,2.55-2.41,2.55s-2.38-1.07-2.38-2.52,.91-2.55,2.45-2.55c1.43,0,2.35,1.01,2.35,2.53Zm-3.43,0c0,.93,.4,1.49,1.05,1.49s1.02-.55,1.02-1.48c0-1.01-.37-1.49-1.04-1.49-.62,0-1.03,.46-1.03,1.49Z"/>
      <path class="cls-16" d="M66.27,3.4c0-.48,0-.91,0-1.32h1.32c.02,.11,.04,.59,.04,.85,.21-.55,.73-.96,1.56-.96v1.28c-.97-.03-1.56,.24-1.56,1.57v2.11h-1.34V3.4Z"/>
      <path class="cls-16" d="M69.88,3.4c0-.48,0-.91,0-1.32h1.32c.02,.11,.04,.59,.04,.85,.21-.55,.73-.96,1.56-.96v1.28c-.97-.03-1.56,.24-1.56,1.57v2.11h-1.34V3.4Z"/>
      <path class="cls-16" d="M74.56,4.79c0,.61,.31,1.2,.97,1.2,.56,0,.72-.22,.85-.52h1.34c-.17,.59-.7,1.57-2.23,1.57s-2.29-1.2-2.29-2.47c0-1.52,.78-2.61,2.34-2.61,1.67,0,2.23,1.21,2.23,2.42,0,.16,0,.27-.02,.41h-3.2Zm1.87-.83c0-.56-.23-1.04-.89-1.04s-.9,.44-.96,1.04h1.84Z"/>
      <path class="cls-16" d="M78.69,6.93V.09h1.34V6.93h-1.34Z"/>
      <path class="cls-16" d="M85.22,5.68c0,.46,.04,1.14,.07,1.25h-1.28c-.04-.1-.07-.35-.07-.47-.18,.27-.5,.59-1.36,.59-1.17,0-1.66-.77-1.66-1.52,0-1.1,.89-1.61,2.31-1.61h.69v-.3c0-.35-.12-.68-.75-.68-.57,0-.69,.24-.75,.59h-1.28c.07-.86,.61-1.56,2.08-1.55,1.3,0,2.01,.52,2.01,1.67v2.04Zm-1.31-.96h-.55c-.81,0-1.11,.25-1.11,.71,0,.35,.22,.65,.7,.65,.85,0,.96-.59,.96-1.23v-.13Z"/>
      <path class="cls-16" d="M85.87,2.08h.75V.77h1.34v1.31h.95v1.01h-.95v2.39c0,.37,.11,.51,.51,.51,.07,0,.21,0,.31-.01v.92c-.27,.09-.63,.09-.9,.09-.95,0-1.26-.51-1.26-1.36V3.09h-.75v-1.01Z"/>
      <path class="cls-16" d="M90.71,4.79c0,.61,.31,1.2,.97,1.2,.56,0,.72-.22,.85-.52h1.34c-.17,.59-.7,1.57-2.23,1.57s-2.29-1.2-2.29-2.47c0-1.52,.78-2.61,2.34-2.61,1.67,0,2.23,1.21,2.23,2.42,0,.16,0,.27-.02,.41h-3.2Zm1.87-.83c0-.56-.23-1.04-.89-1.04s-.9,.44-.96,1.04h1.84Z"/>
      <path class="cls-16" d="M99.38,.09V5.6c0,.44,0,.89,0,1.33h-1.29c-.03-.14-.05-.4-.06-.51-.23,.38-.65,.62-1.38,.62-1.23,0-2.01-.99-2.01-2.5s.83-2.58,2.2-2.58c.7,0,1.07,.25,1.18,.46V.09h1.34Zm-3.35,4.42c0,.95,.37,1.46,1.03,1.46,.92,0,1.03-.77,1.03-1.47,0-.83-.12-1.46-1-1.46-.7,0-1.06,.55-1.06,1.47Z"/>
      <path class="cls-16" d="M103.82,5.47c.1,.39,.42,.6,.92,.6s.68-.18,.68-.47c0-.31-.21-.43-.9-.6-1.58-.39-1.84-.88-1.84-1.56s.5-1.47,1.97-1.47,1.97,.8,2.01,1.46h-1.28c-.04-.18-.16-.52-.79-.52-.44,0-.59,.2-.59,.42,0,.24,.15,.36,.94,.54,1.62,.38,1.85,.93,1.85,1.64,0,.8-.61,1.53-2.09,1.53s-2.08-.71-2.19-1.57h1.32Z"/>
      <path class="cls-16" d="M111.72,5.68c0,.46,.04,1.14,.07,1.25h-1.28c-.04-.1-.07-.35-.07-.47-.18,.27-.5,.59-1.36,.59-1.17,0-1.66-.77-1.66-1.52,0-1.1,.89-1.61,2.31-1.61h.69v-.3c0-.35-.12-.68-.75-.68-.57,0-.69,.24-.75,.59h-1.28c.07-.86,.61-1.56,2.08-1.55,1.3,0,2.01,.52,2.01,1.67v2.04Zm-1.31-.96h-.55c-.81,0-1.11,.25-1.11,.71,0,.35,.22,.65,.7,.65,.85,0,.96-.59,.96-1.23v-.13Z"/>
      <path class="cls-16" d="M113.06,6.93V3.09h-.71v-1.01h.71v-.43c0-1,.5-1.66,1.55-1.66,.22,0,.5,.02,.62,.06V1.12c-.07-.01-.18-.02-.28-.02-.4,0-.54,.15-.54,.66v.32h.85v1.01h-.85v3.84h-1.34Z"/>
      <path class="cls-16" d="M116.94,4.79c0,.61,.31,1.2,.97,1.2,.56,0,.72-.22,.85-.52h1.34c-.17,.59-.7,1.57-2.23,1.57s-2.29-1.2-2.29-2.47c0-1.52,.78-2.61,2.34-2.61,1.67,0,2.23,1.21,2.23,2.42,0,.16,0,.27-.02,.41h-3.2Zm1.87-.83c0-.56-.23-1.04-.89-1.04s-.9,.44-.96,1.04h1.84Z"/>
      <path class="cls-16" d="M120.6,2.08h.75V.77h1.34v1.31h.95v1.01h-.95v2.39c0,.37,.11,.51,.51,.51,.07,0,.21,0,.31-.01v.92c-.27,.09-.63,.09-.9,.09-.95,0-1.26-.51-1.26-1.36V3.09h-.75v-1.01Z"/>
      <path class="cls-16" d="M125.51,2.08c.5,1.67,.94,3.17,1.01,3.62h0c.1-.49,.39-1.58,.97-3.62h1.34l-1.63,4.99c-.46,1.39-.85,1.81-2.01,1.81-.12,0-.4,0-.63-.04v-1.08c.09,.01,.24,.02,.35,.02,.49,0,.74-.17,.92-.71l-1.76-5h1.44Z"/>
      <path class="cls-16" d="M131.75,.09h1.34V2.6c.2-.31,.6-.63,1.39-.63,1.32,0,1.98,1.09,1.98,2.45s-.71,2.62-2.11,2.62c-.72,0-1.04-.22-1.27-.57,0,.16-.03,.34-.05,.46h-1.28c0-.53,0-1.06,0-1.58V.09Zm3.35,4.35c0-.81-.3-1.4-1.03-1.4-.77,0-1.04,.5-1.04,1.49,0,.82,.24,1.44,1.02,1.44,.68,0,1.04-.61,1.04-1.53Z"/>
      <path class="cls-16" d="M138.51,4.79c0,.61,.31,1.2,.97,1.2,.56,0,.72-.22,.85-.52h1.34c-.17,.59-.7,1.57-2.23,1.57s-2.29-1.2-2.29-2.47c0-1.52,.78-2.61,2.34-2.61,1.67,0,2.23,1.21,2.23,2.42,0,.16,0,.27-.02,.41h-3.2Zm1.87-.83c0-.56-.23-1.04-.89-1.04s-.9,.44-.96,1.04h1.84Z"/>
      <path class="cls-16" d="M142.67,3.3c0-.41,0-.86,0-1.22h1.3c.03,.13,.04,.46,.05,.62,.17-.3,.56-.73,1.41-.73,.97,0,1.61,.66,1.61,1.88v3.08h-1.34V4c0-.54-.18-.94-.77-.94s-.9,.32-.9,1.17v2.7h-1.34V3.3Z"/>
      <path class="cls-16" d="M152.42,5.37c-.17,.81-.74,1.68-2.18,1.68s-2.29-1.04-2.29-2.5,.87-2.57,2.35-2.57c1.64,0,2.09,1.17,2.12,1.72h-1.31c-.08-.39-.31-.67-.83-.67-.61,0-.96,.54-.96,1.48,0,1.03,.37,1.5,.96,1.5,.46,0,.71-.27,.83-.64h1.32Z"/>
      <path class="cls-16" d="M154.58,.09V2.66c.21-.31,.61-.68,1.39-.68,.9,0,1.62,.54,1.62,1.85v3.11h-1.33v-2.91c0-.63-.22-.96-.79-.96-.75,0-.89,.55-.89,1.3v2.57h-1.34V.09h1.34Z"/>
      <path class="cls-16" d="M158.8,3.33c0-.42,0-.83,0-1.25h1.28c.02,.12,.04,.39,.05,.58,.25-.36,.64-.69,1.35-.69s1.08,.36,1.25,.74c.28-.4,.7-.74,1.49-.74,.84,0,1.54,.52,1.54,1.78v3.18h-1.31V3.91c0-.44-.16-.87-.71-.87s-.79,.37-.79,1.11v2.77h-1.32V3.96c0-.5-.12-.91-.7-.91s-.8,.33-.8,1.17v2.71h-1.33V3.33Z"/>
      <path class="cls-16" d="M170.93,5.68c0,.46,.04,1.14,.07,1.25h-1.28c-.04-.1-.07-.35-.07-.47-.18,.27-.5,.59-1.36,.59-1.17,0-1.66-.77-1.66-1.52,0-1.1,.89-1.61,2.31-1.61h.69v-.3c0-.35-.12-.68-.75-.68-.57,0-.69,.24-.75,.59h-1.28c.07-.86,.61-1.56,2.08-1.55,1.3,0,2.01,.52,2.01,1.67v2.04Zm-1.31-.96h-.55c-.81,0-1.11,.25-1.11,.71,0,.35,.22,.65,.7,.65,.85,0,.96-.59,.96-1.23v-.13Z"/>
      <path class="cls-16" d="M172.14,3.4c0-.48,0-.91,0-1.32h1.32c.02,.11,.04,.59,.04,.85,.21-.55,.73-.96,1.56-.96v1.28c-.97-.03-1.56,.24-1.56,1.57v2.11h-1.34V3.4Z"/>
      <path class="cls-16" d="M177.13,4.13c.36-.48,1-1.24,1.67-2.05h1.54l-1.69,1.83,1.85,3.02h-1.52l-1.23-2.16-.62,.6v1.56h-1.34V.09h1.34V4.13Z"/>
      <path class="cls-16" d="M182.02,5.47c.1,.39,.42,.6,.92,.6s.68-.18,.68-.47c0-.31-.21-.43-.9-.6-1.58-.39-1.84-.88-1.84-1.56s.5-1.47,1.97-1.47,1.97,.8,2.01,1.46h-1.28c-.04-.18-.16-.52-.79-.52-.44,0-.59,.2-.59,.42,0,.24,.15,.36,.94,.54,1.62,.38,1.85,.93,1.85,1.64,0,.8-.61,1.53-2.09,1.53s-2.08-.71-2.19-1.57h1.32Z"/>
    </g>
    <g>
      <path class="cls-23" d="M192.9,5.44c-.17,.81-.74,1.7-2.2,1.7s-2.31-1.05-2.31-2.53,.88-2.6,2.37-2.6c1.65,0,2.11,1.18,2.14,1.74h-1.32c-.08-.4-.31-.68-.84-.68-.62,0-.97,.54-.97,1.49,0,1.04,.37,1.52,.96,1.52,.47,0,.72-.28,.84-.64h1.33Z"/>
      <path class="cls-23" d="M193.76,3.45c0-.49,0-.92,0-1.33h1.33c.02,.11,.04,.6,.04,.86,.22-.56,.74-.97,1.57-.97v1.29c-.98-.03-1.57,.24-1.57,1.58v2.13h-1.36V3.45Z"/>
      <path class="cls-23" d="M198.48,4.86c0,.61,.31,1.21,.98,1.21,.56,0,.73-.23,.85-.52h1.36c-.17,.6-.71,1.58-2.25,1.58s-2.31-1.21-2.31-2.49c0-1.54,.79-2.63,2.36-2.63,1.68,0,2.25,1.22,2.25,2.44,0,.17,0,.27-.02,.41h-3.23Zm1.89-.83c0-.57-.24-1.05-.9-1.05s-.91,.45-.97,1.05h1.86Z"/>
      <path class="cls-23" d="M206.71,5.75c0,.47,.04,1.15,.07,1.27h-1.29c-.04-.1-.07-.36-.07-.48-.18,.27-.51,.59-1.38,.59-1.18,0-1.68-.78-1.68-1.54,0-1.12,.9-1.63,2.33-1.63h.7v-.3c0-.35-.12-.69-.75-.69-.57,0-.7,.24-.76,.6h-1.29c.07-.87,.61-1.57,2.1-1.57,1.31,0,2.03,.52,2.03,1.69v2.06Zm-1.32-.96h-.55c-.82,0-1.12,.25-1.12,.72,0,.35,.22,.65,.71,.65,.86,0,.97-.6,.97-1.25v-.13Z"/>
      <path class="cls-23" d="M207.37,2.12h.75V.8h1.36v1.33h.96v1.02h-.96v2.42c0,.37,.11,.52,.52,.52,.08,0,.21,0,.31-.02v.93c-.27,.09-.64,.09-.91,.09-.96,0-1.27-.51-1.27-1.37V3.14h-.75v-1.02Z"/>
      <path class="cls-23" d="M212.26,4.86c0,.61,.31,1.21,.98,1.21,.56,0,.73-.23,.85-.52h1.36c-.17,.6-.71,1.58-2.25,1.58s-2.31-1.21-2.31-2.49c0-1.54,.79-2.63,2.36-2.63,1.68,0,2.25,1.22,2.25,2.44,0,.17,0,.27-.02,.41h-3.23Zm1.89-.83c0-.57-.24-1.05-.9-1.05s-.91,.45-.97,1.05h1.86Z"/>
      <path class="cls-23" d="M222.88,5.44c-.17,.81-.74,1.7-2.2,1.7s-2.31-1.05-2.31-2.53,.88-2.6,2.37-2.6c1.65,0,2.11,1.18,2.14,1.74h-1.32c-.08-.4-.31-.68-.84-.68-.62,0-.97,.54-.97,1.49,0,1.04,.37,1.52,.96,1.52,.47,0,.72-.28,.84-.64h1.33Z"/>
      <path class="cls-23" d="M228.34,4.56c0,1.48-.89,2.57-2.44,2.57s-2.41-1.08-2.41-2.54,.91-2.58,2.47-2.58c1.44,0,2.37,1.02,2.37,2.55Zm-3.47,0c0,.94,.41,1.5,1.06,1.5s1.03-.56,1.03-1.49c0-1.02-.38-1.51-1.05-1.51-.63,0-1.04,.46-1.04,1.5Z"/>
      <path class="cls-23" d="M229.28,3.36c0-.42,0-.87,0-1.23h1.31c.03,.13,.04,.47,.05,.62,.17-.31,.56-.74,1.42-.74,.98,0,1.62,.67,1.62,1.9v3.12h-1.36v-2.96c0-.55-.18-.95-.78-.95s-.91,.32-.91,1.18v2.73h-1.36V3.36Z"/>
      <path class="cls-23" d="M235.07,7.02V3.14h-.71v-1.02h.71v-.43c0-1.01,.5-1.67,1.56-1.67,.23,0,.51,.02,.63,.06V1.15c-.08-.01-.18-.02-.29-.02-.4,0-.55,.15-.55,.67v.33h.86v1.02h-.86v3.88h-1.36Z"/>
      <path class="cls-23" d="M242.25,5.6c0,.47,0,.99,0,1.42h-1.33c-.02-.13-.03-.39-.04-.57-.29,.49-.72,.68-1.35,.68-1,0-1.63-.61-1.63-1.82V2.12h1.35v2.92c0,.54,.17,.99,.75,.99,.62,0,.87-.33,.87-1.3V2.12h1.36v3.47Z"/>
      <path class="cls-23" d="M244.39,5.55c.1,.39,.42,.61,.93,.61s.68-.18,.68-.48c0-.31-.21-.44-.91-.61-1.6-.39-1.86-.89-1.86-1.58s.51-1.48,1.99-1.48,1.99,.81,2.03,1.47h-1.29c-.04-.18-.16-.52-.8-.52-.45,0-.59,.2-.59,.42,0,.24,.15,.36,.95,.55,1.63,.38,1.87,.94,1.87,1.66,0,.81-.62,1.55-2.11,1.55s-2.1-.72-2.21-1.59h1.33Z"/>
      <path class="cls-23" d="M248.28,.11h1.36V1.32h-1.36V.11Zm0,2.01h1.36V7.02h-1.36V2.12Z"/>
      <path class="cls-23" d="M255.41,4.56c0,1.48-.89,2.57-2.44,2.57s-2.41-1.08-2.41-2.54,.91-2.58,2.47-2.58c1.44,0,2.37,1.02,2.37,2.55Zm-3.47,0c0,.94,.41,1.5,1.06,1.5s1.03-.56,1.03-1.49c0-1.02-.38-1.51-1.05-1.51-.63,0-1.04,.46-1.04,1.5Z"/>
      <path class="cls-23" d="M256.35,3.36c0-.42,0-.87,0-1.23h1.31c.03,.13,.04,.47,.05,.62,.17-.31,.56-.74,1.42-.74,.98,0,1.62,.67,1.62,1.9v3.12h-1.36v-2.96c0-.55-.18-.95-.78-.95s-.91,.32-.91,1.18v2.73h-1.36V3.36Z"/>
    </g>
    <g>
      <path class="cls-17" d="M268.29,5.66c0,.47,.04,1.15,.07,1.27h-1.3c-.04-.1-.07-.36-.07-.48-.18,.28-.51,.59-1.38,.59-1.18,0-1.68-.78-1.68-1.54,0-1.12,.9-1.63,2.33-1.63h.7v-.3c0-.35-.13-.69-.76-.69-.57,0-.7,.24-.76,.6h-1.29c.07-.87,.61-1.58,2.1-1.57,1.31,0,2.03,.52,2.03,1.69v2.06Zm-1.32-.97h-.55c-.82,0-1.12,.25-1.12,.72,0,.35,.22,.65,.71,.65,.86,0,.97-.6,.97-1.25v-.13Z"/>
      <path class="cls-17" d="M269.53,3.26c0-.42,0-.87,0-1.24h1.31c.03,.13,.05,.47,.05,.62,.17-.31,.56-.74,1.42-.74,.99,0,1.62,.67,1.62,1.9v3.12h-1.36V3.96c0-.55-.18-.95-.78-.95s-.91,.32-.91,1.19v2.73h-1.36V3.26Z"/>
      <path class="cls-17" d="M279.64,.01V5.58c0,.45,0,.9,0,1.35h-1.31c-.03-.15-.05-.4-.06-.51-.24,.39-.66,.63-1.39,.63-1.24,0-2.03-1-2.03-2.53s.84-2.61,2.23-2.61c.71,0,1.08,.25,1.19,.47V.01h1.36Zm-3.38,4.47c0,.96,.37,1.47,1.04,1.47,.93,0,1.04-.78,1.04-1.48,0-.84-.12-1.47-1.01-1.47-.71,0-1.07,.56-1.07,1.48Z"/>
      <path class="cls-17" d="M284.21,4.77c0,.61,.31,1.21,.98,1.21,.57,0,.73-.23,.86-.52h1.36c-.17,.6-.71,1.59-2.25,1.59-1.62,0-2.32-1.21-2.32-2.49,0-1.54,.79-2.64,2.36-2.64,1.68,0,2.26,1.22,2.26,2.44,0,.17,0,.27-.02,.41h-3.24Zm1.89-.83c0-.57-.24-1.05-.9-1.05s-.91,.45-.97,1.05h1.87Z"/>
      <path class="cls-17" d="M288.43,3.26c0-.42,0-.87,0-1.24h1.31c.03,.13,.05,.47,.05,.62,.17-.31,.56-.74,1.42-.74,.99,0,1.62,.67,1.62,1.9v3.12h-1.36V3.96c0-.55-.18-.95-.78-.95s-.91,.32-.91,1.19v2.73h-1.36V3.26Z"/>
      <path class="cls-17" d="M298.05,5.66c0,.47,.04,1.15,.07,1.27h-1.3c-.04-.1-.07-.36-.07-.48-.18,.28-.51,.59-1.38,.59-1.18,0-1.68-.78-1.68-1.54,0-1.12,.9-1.63,2.33-1.63h.7v-.3c0-.35-.13-.69-.76-.69-.57,0-.7,.24-.76,.6h-1.29c.07-.87,.61-1.58,2.1-1.57,1.31,0,2.03,.52,2.03,1.69v2.06Zm-1.32-.97h-.55c-.82,0-1.12,.25-1.12,.72,0,.35,.22,.65,.71,.65,.86,0,.97-.6,.97-1.25v-.13Z"/>
      <path class="cls-17" d="M299.28,.01h1.36V2.54c.2-.31,.61-.63,1.4-.63,1.33,0,2,1.1,2,2.48s-.72,2.65-2.13,2.65c-.73,0-1.05-.22-1.29-.58,0,.16-.03,.34-.05,.46h-1.3c0-.53,0-1.07,0-1.6V.01Zm3.38,4.4c0-.82-.3-1.42-1.04-1.42-.78,0-1.05,.51-1.05,1.5,0,.83,.24,1.46,1.04,1.46,.69,0,1.05-.62,1.05-1.55Z"/>
      <path class="cls-17" d="M304.97,6.93V.01h1.36V6.93h-1.36Z"/>
      <path class="cls-17" d="M308.63,4.77c0,.61,.31,1.21,.98,1.21,.57,0,.73-.23,.86-.52h1.36c-.17,.6-.71,1.59-2.25,1.59-1.62,0-2.32-1.21-2.32-2.49,0-1.54,.79-2.64,2.36-2.64,1.68,0,2.26,1.22,2.26,2.44,0,.17,0,.27-.02,.41h-3.24Zm1.89-.83c0-.57-.24-1.05-.9-1.05s-.91,.45-.97,1.05h1.87Z"/>
      <path class="cls-17" d="M315.02,3.29c0-.42,0-.84,0-1.26h1.3c.02,.12,.04,.39,.05,.58,.25-.37,.64-.7,1.36-.7s1.09,.37,1.27,.75c.29-.4,.71-.75,1.51-.75,.86,0,1.55,.53,1.55,1.8v3.22h-1.32V3.88c0-.44-.16-.88-.72-.88s-.8,.37-.8,1.12v2.8h-1.33V3.93c0-.51-.12-.92-.71-.92s-.81,.34-.81,1.18v2.74h-1.34V3.29Z"/>
      <path class="cls-17" d="M323.27,.01h1.36V1.22h-1.36V.01Zm0,2.01h1.36V6.93h-1.36V2.02Z"/>
      <path class="cls-17" d="M326.8,5.46c.1,.39,.42,.61,.93,.61s.68-.18,.68-.48c0-.31-.21-.44-.91-.61-1.6-.39-1.86-.89-1.86-1.58s.51-1.49,1.99-1.49,1.99,.81,2.03,1.48h-1.29c-.04-.18-.17-.52-.8-.52-.45,0-.59,.2-.59,.42,0,.24,.15,.36,.95,.55,1.64,.38,1.87,.94,1.87,1.66,0,.81-.62,1.55-2.11,1.55s-2.1-.72-2.21-1.59h1.33Z"/>
      <path class="cls-17" d="M330.68,3.36c0-.49,0-.92,0-1.33h1.33c.02,.11,.04,.6,.04,.86,.22-.56,.74-.97,1.57-.98v1.3c-.99-.03-1.57,.24-1.57,1.58v2.14h-1.36V3.36Z"/>
      <path class="cls-17" d="M335.41,4.77c0,.61,.31,1.21,.98,1.21,.57,0,.73-.23,.86-.52h1.36c-.17,.6-.71,1.59-2.25,1.59-1.62,0-2.32-1.21-2.32-2.49,0-1.54,.79-2.64,2.36-2.64,1.68,0,2.26,1.22,2.26,2.44,0,.17,0,.27-.02,.41h-3.24Zm1.89-.83c0-.57-.24-1.05-.9-1.05s-.91,.45-.97,1.05h1.87Z"/>
      <path class="cls-17" d="M340.96,6.5v2.31h-1.35V3.21c0-.4,0-.79,0-1.18h1.32c.02,.13,.04,.43,.04,.61,.21-.36,.65-.72,1.43-.72,1.1,0,1.95,.92,1.95,2.44,0,1.73-.95,2.69-2.14,2.69-.69,0-1.05-.26-1.24-.55Zm2-2.09c0-.9-.36-1.41-1.01-1.41-.77,0-1.04,.49-1.04,1.48,0,.94,.25,1.48,.99,1.48s1.07-.56,1.07-1.56Z"/>
      <path class="cls-17" d="M345.28,3.36c0-.49,0-.92,0-1.33h1.33c.02,.11,.04,.6,.04,.86,.22-.56,.74-.97,1.57-.98v1.3c-.99-.03-1.57,.24-1.57,1.58v2.14h-1.36V3.36Z"/>
      <path class="cls-17" d="M350.01,4.77c0,.61,.31,1.21,.98,1.21,.57,0,.73-.23,.86-.52h1.36c-.17,.6-.71,1.59-2.25,1.59-1.62,0-2.32-1.21-2.32-2.49,0-1.54,.79-2.64,2.36-2.64,1.68,0,2.26,1.22,2.26,2.44,0,.17,0,.27-.02,.41h-3.24Zm1.89-.83c0-.57-.24-1.05-.9-1.05s-.91,.45-.97,1.05h1.87Z"/>
      <path class="cls-17" d="M355.2,5.46c.1,.39,.42,.61,.93,.61s.68-.18,.68-.48c0-.31-.21-.44-.91-.61-1.6-.39-1.86-.89-1.86-1.58s.51-1.49,1.99-1.49,1.99,.81,2.03,1.48h-1.29c-.04-.18-.17-.52-.8-.52-.45,0-.59,.2-.59,.42,0,.24,.15,.36,.95,.55,1.64,.38,1.87,.94,1.87,1.66,0,.81-.62,1.55-2.11,1.55s-2.1-.72-2.21-1.59h1.33Z"/>
      <path class="cls-17" d="M360.2,4.77c0,.61,.31,1.21,.98,1.21,.57,0,.73-.23,.86-.52h1.36c-.17,.6-.71,1.59-2.25,1.59-1.62,0-2.32-1.21-2.32-2.49,0-1.54,.79-2.64,2.36-2.64,1.68,0,2.26,1.22,2.26,2.44,0,.17,0,.27-.02,.41h-3.24Zm1.89-.83c0-.57-.24-1.05-.9-1.05s-.91,.45-.97,1.05h1.87Z"/>
      <path class="cls-17" d="M364.42,3.26c0-.42,0-.87,0-1.24h1.31c.03,.13,.05,.47,.05,.62,.17-.31,.56-.74,1.42-.74,.99,0,1.62,.67,1.62,1.9v3.12h-1.36V3.96c0-.55-.18-.95-.78-.95s-.91,.32-.91,1.19v2.73h-1.36V3.26Z"/>
      <path class="cls-17" d="M369.46,2.02h.76V.7h1.36v1.33h.96v1.02h-.96v2.42c0,.37,.11,.52,.52,.52,.08,0,.21,0,.31-.01v.93c-.27,.09-.64,.09-.91,.09-.96,0-1.27-.51-1.27-1.37V3.04h-.76v-1.02Z"/>
      <path class="cls-17" d="M377.38,5.66c0,.47,.04,1.15,.07,1.27h-1.3c-.04-.1-.07-.36-.07-.48-.18,.28-.51,.59-1.38,.59-1.18,0-1.68-.78-1.68-1.54,0-1.12,.9-1.63,2.33-1.63h.7v-.3c0-.35-.13-.69-.76-.69-.57,0-.7,.24-.76,.6h-1.29c.07-.87,.61-1.58,2.1-1.57,1.31,0,2.03,.52,2.03,1.69v2.06Zm-1.32-.97h-.55c-.82,0-1.12,.25-1.12,.72,0,.35,.22,.65,.71,.65,.86,0,.97-.6,.97-1.25v-.13Z"/>
      <path class="cls-17" d="M378.04,2.02h.76V.7h1.36v1.33h.96v1.02h-.96v2.42c0,.37,.11,.52,.52,.52,.08,0,.21,0,.31-.01v.93c-.27,.09-.64,.09-.91,.09-.96,0-1.27-.51-1.27-1.37V3.04h-.76v-1.02Z"/>
      <path class="cls-17" d="M381.87,.01h1.36V1.22h-1.36V.01Zm0,2.01h1.36V6.93h-1.36V2.02Z"/>
      <path class="cls-17" d="M389.01,4.47c0,1.48-.89,2.58-2.44,2.58s-2.41-1.09-2.41-2.55,.92-2.58,2.47-2.58c1.44,0,2.38,1.02,2.38,2.56Zm-3.47,0c0,.94,.41,1.5,1.06,1.5s1.03-.56,1.03-1.5c0-1.03-.38-1.51-1.05-1.51-.63,0-1.04,.47-1.04,1.5Z"/>
      <path class="cls-17" d="M389.95,3.26c0-.42,0-.87,0-1.24h1.31c.03,.13,.05,.47,.05,.62,.17-.31,.56-.74,1.42-.74,.99,0,1.62,.67,1.62,1.9v3.12h-1.36V3.96c0-.55-.18-.95-.78-.95s-.91,.32-.91,1.19v2.73h-1.36V3.26Z"/>
    </g>
    <g>
      <path class="cls-17" d="M275.66,76.13c-.58,.78-.99,1.81-.99,3.25s.44,2.42,.99,3.21h-.54c-.5-.66-1.04-1.67-1.04-3.21,0-1.55,.54-2.57,1.04-3.24h.54Z"/>
      <path class="cls-17" d="M279.71,76.01v4.63c0,.34,.02,.73,.03,.99h-.62l-.03-.67h-.02c-.21,.43-.67,.75-1.29,.75-.93,0-1.65-.78-1.65-1.95,0-1.28,.79-2.05,1.72-2.05,.59,0,.98,.28,1.16,.58h.02v-2.29h.69Zm-.69,3.35c0-.09,0-.21-.03-.29-.1-.44-.48-.8-1.01-.8-.72,0-1.15,.63-1.15,1.47,0,.78,.39,1.42,1.13,1.42,.47,0,.89-.32,1.02-.83,.02-.1,.03-.19,.03-.3v-.67Z"/>
      <path class="cls-17" d="M281.65,76.72c0,.24-.17,.43-.44,.43-.25,0-.42-.19-.42-.43s.17-.44,.44-.44,.43,.19,.43,.44Zm-.78,4.91v-3.83h.7v3.83h-.7Z"/>
      <path class="cls-17" d="M286.03,76.01v4.63c0,.34,.02,.73,.03,.99h-.62l-.03-.67h-.02c-.21,.43-.67,.75-1.29,.75-.93,0-1.65-.78-1.65-1.95,0-1.28,.79-2.05,1.72-2.05,.59,0,.98,.28,1.16,.58h.02v-2.29h.69Zm-.69,3.35c0-.09,0-.21-.03-.29-.1-.44-.48-.8-1.01-.8-.72,0-1.15,.63-1.15,1.47,0,.78,.39,1.42,1.13,1.42,.47,0,.89-.32,1.02-.83,.02-.1,.03-.19,.03-.3v-.67Z"/>
      <path class="cls-17" d="M288.88,78.84c0-.4,0-.72-.03-1.04h.62l.04,.63h.02c.19-.36,.63-.71,1.27-.71,.53,0,1.35,.32,1.35,1.63v2.28h-.7v-2.21c0-.62-.23-1.13-.89-1.13-.45,0-.81,.32-.93,.71-.03,.09-.05,.21-.05,.32v2.3h-.7v-2.79Z"/>
      <path class="cls-17" d="M296.75,79.68c0,1.42-.99,2.04-1.91,2.04-1.03,0-1.84-.76-1.84-1.97,0-1.28,.85-2.03,1.9-2.03s1.85,.8,1.85,1.96Zm-3.03,.04c0,.84,.48,1.47,1.16,1.47s1.16-.62,1.16-1.49c0-.65-.32-1.47-1.15-1.47s-1.17,.76-1.17,1.48Z"/>
      <path class="cls-17" d="M298.47,76.88v.92h1v.53h-1v2.07c0,.48,.13,.74,.52,.74,.19,0,.3-.02,.4-.05l.03,.53c-.13,.05-.35,.09-.62,.09-.32,0-.59-.11-.75-.29-.19-.21-.27-.55-.27-1v-2.09h-.59v-.53h.59v-.71l.68-.21Z"/>
      <path class="cls-17" d="M305.23,76.01v4.63c0,.34,.02,.73,.03,.99h-.62l-.03-.67h-.02c-.21,.43-.67,.75-1.29,.75-.93,0-1.65-.78-1.65-1.95,0-1.28,.79-2.05,1.72-2.05,.59,0,.98,.28,1.16,.58h.02v-2.29h.69Zm-.69,3.35c0-.09,0-.21-.03-.29-.1-.44-.48-.8-1.01-.8-.72,0-1.15,.63-1.15,1.47,0,.78,.39,1.42,1.13,1.42,.47,0,.89-.32,1.02-.83,.02-.1,.03-.19,.03-.3v-.67Z"/>
      <path class="cls-17" d="M307.18,76.72c0,.24-.17,.43-.44,.43-.25,0-.42-.19-.42-.43s.17-.44,.44-.44,.43,.19,.43,.44Zm-.78,4.91v-3.83h.7v3.83h-.7Z"/>
      <path class="cls-17" d="M308.16,80.93c.21,.13,.58,.27,.93,.27,.5,0,.74-.25,.74-.57s-.2-.51-.71-.7c-.7-.25-1.02-.62-1.02-1.08,0-.62,.51-1.12,1.32-1.12,.39,0,.73,.1,.93,.24l-.17,.51c-.15-.09-.43-.23-.78-.23-.41,0-.63,.24-.63,.52,0,.32,.22,.46,.72,.66,.66,.25,1.01,.58,1.01,1.15,0,.68-.53,1.16-1.43,1.16-.42,0-.81-.11-1.08-.27l.17-.52Z"/>
      <path class="cls-17" d="M311.39,79.05c0-.49-.02-.89-.03-1.25h.62l.04,.66h.02c.28-.47,.74-.74,1.36-.74,.93,0,1.63,.78,1.63,1.94,0,1.38-.85,2.06-1.75,2.06-.51,0-.95-.22-1.18-.6h-.02v2.08h-.69v-4.15Zm.69,1.02c0,.1,0,.2,.03,.29,.13,.48,.55,.82,1.04,.82,.74,0,1.16-.6,1.16-1.48,0-.76-.4-1.42-1.14-1.42-.48,0-.93,.33-1.05,.86-.02,.09-.05,.19-.05,.28v.66Z"/>
      <path class="cls-17" d="M315.9,78.99c0-.45,0-.84-.03-1.2h.61l.03,.76h.02c.17-.52,.6-.84,1.07-.84,.07,0,.13,0,.19,.02v.66c-.07-.02-.14-.02-.24-.02-.49,0-.84,.36-.93,.89-.02,.09-.02,.21-.02,.32v2.04h-.7v-2.64Z"/>
      <path class="cls-17" d="M321.88,79.68c0,1.42-.99,2.04-1.91,2.04-1.03,0-1.84-.76-1.84-1.97,0-1.28,.85-2.03,1.9-2.03s1.85,.8,1.85,1.96Zm-3.03,.04c0,.84,.48,1.47,1.16,1.47s1.16-.62,1.16-1.49c0-.65-.32-1.47-1.15-1.47s-1.17,.76-1.17,1.48Z"/>
      <path class="cls-17" d="M322.76,79.05c0-.49-.02-.89-.03-1.25h.62l.04,.66h.02c.28-.47,.74-.74,1.36-.74,.93,0,1.63,.78,1.63,1.94,0,1.38-.85,2.06-1.75,2.06-.51,0-.95-.22-1.18-.6h-.02v2.08h-.69v-4.15Zm.69,1.02c0,.1,0,.2,.03,.29,.13,.48,.55,.82,1.04,.82,.74,0,1.16-.6,1.16-1.48,0-.76-.4-1.42-1.14-1.42-.48,0-.93,.33-1.05,.86-.02,.09-.05,.19-.05,.28v.66Z"/>
      <path class="cls-17" d="M330.74,79.68c0,1.42-.99,2.04-1.91,2.04-1.03,0-1.84-.76-1.84-1.97,0-1.28,.85-2.03,1.9-2.03s1.85,.8,1.85,1.96Zm-3.03,.04c0,.84,.48,1.47,1.16,1.47s1.16-.62,1.16-1.49c0-.65-.32-1.47-1.15-1.47s-1.17,.76-1.17,1.48Z"/>
      <path class="cls-17" d="M331.62,78.99c0-.45,0-.84-.03-1.2h.61l.03,.76h.02c.17-.52,.6-.84,1.07-.84,.07,0,.13,0,.19,.02v.66c-.07-.02-.14-.02-.24-.02-.49,0-.84,.36-.93,.89-.02,.09-.02,.21-.02,.32v2.04h-.7v-2.64Z"/>
      <path class="cls-17" d="M335.25,76.88v.92h1v.53h-1v2.07c0,.48,.13,.74,.52,.74,.19,0,.3-.02,.4-.05l.03,.53c-.13,.05-.35,.09-.62,.09-.32,0-.59-.11-.75-.29-.19-.21-.27-.55-.27-1v-2.09h-.59v-.53h.59v-.71l.68-.21Z"/>
      <path class="cls-17" d="M337.8,76.72c0,.24-.17,.43-.44,.43-.25,0-.42-.19-.42-.43s.17-.44,.44-.44,.43,.19,.43,.44Zm-.78,4.91v-3.83h.7v3.83h-.7Z"/>
      <path class="cls-17" d="M342.35,79.68c0,1.42-.99,2.04-1.91,2.04-1.03,0-1.84-.76-1.84-1.97,0-1.28,.85-2.03,1.9-2.03s1.85,.8,1.85,1.96Zm-3.03,.04c0,.84,.48,1.47,1.16,1.47s1.16-.62,1.16-1.49c0-.65-.32-1.47-1.15-1.47s-1.17,.76-1.17,1.48Z"/>
      <path class="cls-17" d="M343.23,78.84c0-.4,0-.72-.03-1.04h.62l.04,.63h.02c.19-.36,.63-.71,1.27-.71,.53,0,1.35,.32,1.35,1.63v2.28h-.7v-2.21c0-.62-.23-1.13-.89-1.13-.45,0-.81,.32-.93,.71-.03,.09-.05,.21-.05,.32v2.3h-.7v-2.79Z"/>
      <path class="cls-17" d="M350.32,80.71c0,.33,.02,.66,.06,.92h-.63l-.05-.48h-.02c-.21,.3-.62,.57-1.17,.57-.78,0-1.17-.55-1.17-1.1,0-.93,.82-1.43,2.3-1.43v-.08c0-.31-.09-.89-.87-.88-.36,0-.74,.1-1.01,.29l-.16-.47c.32-.2,.78-.33,1.27-.33,1.17,0,1.46,.8,1.46,1.56v1.43Zm-.67-1.04c-.76-.02-1.62,.12-1.62,.86,0,.46,.3,.67,.65,.67,.51,0,.83-.32,.94-.64,.02-.08,.03-.16,.03-.22v-.67Z"/>
      <path class="cls-17" d="M352.26,76.88v.92h1v.53h-1v2.07c0,.48,.13,.74,.52,.74,.19,0,.3-.02,.4-.05l.03,.53c-.13,.05-.35,.09-.62,.09-.32,0-.59-.11-.75-.29-.19-.21-.27-.55-.27-1v-2.09h-.59v-.53h.59v-.71l.68-.21Z"/>
      <path class="cls-17" d="M354.38,79.84c.02,.94,.61,1.33,1.31,1.33,.5,0,.81-.09,1.06-.2l.13,.5c-.25,.11-.67,.25-1.28,.25-1.18,0-1.88-.78-1.88-1.94s.68-2.06,1.8-2.06c1.26,0,1.58,1.09,1.58,1.8,0,.14,0,.25-.02,.33h-2.69Zm2.04-.5c0-.44-.18-1.12-.97-1.12-.71,0-1.01,.64-1.07,1.12h2.04Z"/>
      <path class="cls-17" d="M357.96,76.01h.7v5.62h-.7v-5.62Z"/>
      <path class="cls-17" d="M360.09,77.8l.83,2.26c.09,.25,.19,.55,.25,.78h.02c.07-.23,.15-.52,.25-.8l.76-2.25h.74l-1.05,2.73c-.5,1.31-.84,1.98-1.31,2.4-.35,.29-.68,.41-.86,.44l-.17-.58c.17-.05,.4-.17,.61-.34,.19-.15,.42-.42,.59-.78,.03-.07,.06-.13,.06-.17s-.02-.09-.06-.18l-1.41-3.53h.76Z"/>
      <path class="cls-17" d="M268.02,91.01c-.18,.09-.59,.22-1.1,.22-1.16,0-1.91-.78-1.91-1.96s.81-2.04,2.06-2.04c.41,0,.78,.1,.97,.21l-.16,.53c-.17-.09-.43-.18-.81-.18-.88,0-1.35,.66-1.35,1.45,0,.89,.57,1.43,1.33,1.43,.4,0,.66-.1,.86-.18l.12,.52Z"/>
      <path class="cls-17" d="M272.25,89.19c0,1.42-.99,2.04-1.91,2.04-1.03,0-1.84-.76-1.84-1.97,0-1.28,.85-2.03,1.9-2.03s1.85,.8,1.85,1.96Zm-3.03,.04c0,.84,.48,1.47,1.16,1.47s1.16-.62,1.16-1.49c0-.65-.32-1.47-1.15-1.47s-1.17,.76-1.17,1.48Z"/>
      <path class="cls-17" d="M273.14,88.35c0-.4,0-.72-.03-1.04h.62l.04,.63h.02c.19-.36,.63-.71,1.27-.71,.53,0,1.35,.32,1.35,1.63v2.28h-.7v-2.21c0-.62-.23-1.13-.89-1.13-.45,0-.81,.32-.93,.71-.03,.09-.05,.21-.05,.32v2.3h-.7v-2.79Z"/>
      <path class="cls-17" d="M278.34,86.39v.92h1v.53h-1v2.07c0,.48,.13,.74,.52,.74,.19,0,.3-.02,.4-.05l.03,.53c-.13,.05-.35,.09-.62,.09-.32,0-.59-.11-.75-.29-.19-.21-.27-.55-.27-1v-2.09h-.59v-.53h.59v-.71l.68-.21Z"/>
      <path class="cls-17" d="M280.13,88.5c0-.45,0-.84-.03-1.2h.61l.03,.76h.02c.17-.52,.6-.84,1.07-.84,.07,0,.13,0,.19,.02v.66c-.07-.02-.14-.02-.24-.02-.49,0-.84,.36-.93,.89-.02,.09-.02,.21-.02,.32v2.04h-.7v-2.64Z"/>
      <path class="cls-17" d="M283.53,86.23c0,.24-.17,.43-.44,.43-.25,0-.42-.19-.42-.43s.17-.44,.44-.44,.43,.19,.43,.44Zm-.78,4.91v-3.83h.7v3.83h-.7Z"/>
      <path class="cls-17" d="M284.6,85.52h.69v2.41h.02c.25-.43,.69-.7,1.31-.7,.96,0,1.62,.79,1.62,1.95,0,1.37-.87,2.05-1.73,2.05-.55,0-1-.21-1.29-.71h-.02l-.04,.62h-.59c.02-.26,.03-.65,.03-.99v-4.63Zm.69,4.09c0,.09,0,.17,.03,.25,.13,.48,.54,.82,1.04,.82,.74,0,1.16-.59,1.16-1.47,0-.77-.4-1.42-1.15-1.42-.47,0-.91,.33-1.05,.86-.02,.09-.04,.18-.04,.29v.68Z"/>
      <path class="cls-17" d="M292.32,90.09c0,.4,0,.75,.03,1.05h-.62l-.04-.62h-.02c-.17,.31-.59,.71-1.27,.71-.6,0-1.32-.34-1.32-1.68v-2.24h.7v2.11c0,.73,.23,1.23,.86,1.23,.47,0,.79-.33,.92-.64,.04-.09,.06-.22,.06-.36v-2.34h.7v2.78Z"/>
      <path class="cls-17" d="M294.32,86.39v.92h1v.53h-1v2.07c0,.48,.13,.74,.52,.74,.19,0,.3-.02,.4-.05l.03,.53c-.13,.05-.35,.09-.62,.09-.32,0-.59-.11-.75-.29-.19-.21-.27-.55-.27-1v-2.09h-.59v-.53h.59v-.71l.68-.21Z"/>
      <path class="cls-17" d="M296.44,89.35c.02,.94,.61,1.33,1.31,1.33,.5,0,.81-.09,1.06-.2l.13,.5c-.25,.11-.67,.25-1.28,.25-1.18,0-1.88-.78-1.88-1.94s.68-2.06,1.8-2.06c1.26,0,1.58,1.09,1.58,1.8,0,.14,0,.25-.02,.33h-2.69Zm2.04-.5c0-.44-.18-1.12-.97-1.12-.71,0-1.01,.64-1.07,1.12h2.04Z"/>
      <path class="cls-17" d="M302.54,86.39v.92h1v.53h-1v2.07c0,.48,.13,.74,.52,.74,.19,0,.3-.02,.4-.05l.03,.53c-.13,.05-.35,.09-.62,.09-.32,0-.59-.11-.75-.29-.19-.21-.27-.55-.27-1v-2.09h-.59v-.53h.59v-.71l.68-.21Z"/>
      <path class="cls-17" d="M307.75,89.19c0,1.42-.99,2.04-1.91,2.04-1.03,0-1.84-.76-1.84-1.97,0-1.28,.85-2.03,1.9-2.03s1.85,.8,1.85,1.96Zm-3.03,.04c0,.84,.48,1.47,1.16,1.47s1.16-.62,1.16-1.49c0-.65-.32-1.47-1.15-1.47s-1.17,.76-1.17,1.48Z"/>
      <path class="cls-17" d="M310.22,90.44c.21,.13,.58,.27,.93,.27,.5,0,.74-.25,.74-.57s-.2-.51-.71-.7c-.7-.25-1.02-.62-1.02-1.08,0-.62,.51-1.12,1.32-1.12,.39,0,.73,.1,.93,.24l-.17,.51c-.15-.09-.43-.23-.78-.23-.41,0-.63,.24-.63,.52,0,.32,.22,.46,.72,.66,.66,.25,1.01,.58,1.01,1.15,0,.68-.53,1.16-1.43,1.16-.42,0-.81-.11-1.08-.27l.17-.52Z"/>
      <path class="cls-17" d="M316.14,90.22c0,.33,.02,.66,.06,.92h-.63l-.05-.48h-.02c-.21,.3-.62,.57-1.17,.57-.78,0-1.17-.55-1.17-1.1,0-.93,.82-1.43,2.3-1.43v-.08c0-.31-.09-.89-.87-.88-.36,0-.74,.1-1.01,.29l-.16-.47c.32-.2,.78-.33,1.27-.33,1.17,0,1.46,.8,1.46,1.56v1.43Zm-.67-1.04c-.76-.02-1.62,.12-1.62,.86,0,.46,.3,.67,.65,.67,.51,0,.83-.32,.94-.64,.02-.08,.03-.16,.03-.22v-.67Z"/>
      <path class="cls-17" d="M317.34,91.14v-3.3h-.53v-.53h.53v-.18c0-.54,.13-1.03,.44-1.34,.26-.25,.61-.36,.93-.36,.25,0,.46,.06,.59,.11l-.09,.54c-.1-.05-.24-.09-.44-.09-.59,0-.75,.51-.75,1.11v.21h.93v.53h-.93v3.3h-.69Z"/>
      <path class="cls-17" d="M319.87,89.35c.02,.94,.61,1.33,1.32,1.33,.5,0,.81-.09,1.06-.2l.13,.5c-.25,.11-.67,.25-1.28,.25-1.18,0-1.88-.78-1.88-1.94s.68-2.06,1.8-2.06c1.26,0,1.58,1.09,1.58,1.8,0,.14,0,.25-.02,.33h-2.69Zm2.04-.5c0-.44-.18-1.12-.97-1.12-.71,0-1.01,.64-1.07,1.12h2.04Z"/>
      <path class="cls-17" d="M324.29,86.39v.92h1v.53h-1v2.07c0,.48,.13,.74,.52,.74,.19,0,.3-.02,.4-.05l.03,.53c-.13,.05-.35,.09-.62,.09-.32,0-.59-.11-.75-.29-.19-.21-.27-.55-.27-1v-2.09h-.59v-.53h.59v-.71l.68-.21Z"/>
      <path class="cls-17" d="M326.4,87.31l.83,2.26c.09,.25,.19,.55,.25,.78h.02c.07-.23,.15-.52,.25-.8l.76-2.25h.74l-1.05,2.73c-.5,1.31-.84,1.98-1.31,2.4-.35,.29-.68,.41-.86,.44l-.17-.58c.17-.05,.4-.17,.61-.34,.19-.15,.42-.42,.59-.78,.03-.07,.06-.13,.06-.17s-.02-.09-.06-.18l-1.41-3.53h.76Z"/>
      <path class="cls-17" d="M331.56,88.56c0-.49-.02-.89-.03-1.25h.62l.04,.66h.02c.28-.47,.74-.74,1.36-.74,.93,0,1.63,.78,1.63,1.94,0,1.38-.85,2.06-1.75,2.06-.51,0-.95-.22-1.18-.6h-.02v2.08h-.69v-4.15Zm.69,1.02c0,.1,0,.2,.03,.29,.13,.48,.55,.82,1.04,.82,.74,0,1.16-.6,1.16-1.48,0-.76-.4-1.42-1.14-1.42-.48,0-.93,.33-1.05,.86-.02,.09-.05,.19-.05,.28v.66Z"/>
      <path class="cls-17" d="M336.07,88.5c0-.45,0-.84-.03-1.2h.61l.03,.76h.02c.17-.52,.6-.84,1.07-.84,.07,0,.13,0,.19,.02v.66c-.07-.02-.14-.02-.24-.02-.49,0-.84,.36-.93,.89-.02,.09-.02,.21-.02,.32v2.04h-.7v-2.64Z"/>
      <path class="cls-17" d="M342.05,89.19c0,1.42-.99,2.04-1.91,2.04-1.03,0-1.84-.76-1.84-1.97,0-1.28,.85-2.03,1.9-2.03s1.85,.8,1.85,1.96Zm-3.03,.04c0,.84,.48,1.47,1.16,1.47s1.16-.62,1.16-1.49c0-.65-.32-1.47-1.15-1.47s-1.17,.76-1.17,1.48Z"/>
      <path class="cls-17" d="M342.93,88.56c0-.49-.02-.89-.03-1.25h.62l.04,.66h.02c.28-.47,.74-.74,1.36-.74,.93,0,1.63,.78,1.63,1.94,0,1.38-.85,2.06-1.75,2.06-.51,0-.95-.22-1.18-.6h-.02v2.08h-.69v-4.15Zm.69,1.02c0,.1,0,.2,.03,.29,.13,.48,.55,.82,1.04,.82,.74,0,1.16-.6,1.16-1.48,0-.76-.4-1.42-1.14-1.42-.48,0-.93,.33-1.05,.86-.02,.09-.05,.19-.05,.28v.66Z"/>
      <path class="cls-17" d="M347.83,89.35c.02,.94,.61,1.33,1.31,1.33,.5,0,.81-.09,1.06-.2l.13,.5c-.25,.11-.67,.25-1.28,.25-1.18,0-1.88-.78-1.88-1.94s.68-2.06,1.8-2.06c1.26,0,1.58,1.09,1.58,1.8,0,.14,0,.25-.02,.33h-2.69Zm2.04-.5c0-.44-.18-1.12-.97-1.12-.71,0-1.01,.64-1.07,1.12h2.04Z"/>
      <path class="cls-17" d="M351.41,88.5c0-.45,0-.84-.03-1.2h.61l.03,.76h.02c.17-.52,.6-.84,1.07-.84,.07,0,.13,0,.19,.02v.66c-.07-.02-.14-.02-.24-.02-.49,0-.84,.36-.93,.89-.02,.09-.02,.21-.02,.32v2.04h-.7v-2.64Z"/>
      <path class="cls-17" d="M355.03,86.39v.92h1v.53h-1v2.07c0,.48,.13,.74,.52,.74,.19,0,.3-.02,.4-.05l.03,.53c-.13,.05-.35,.09-.62,.09-.32,0-.59-.11-.75-.29-.19-.21-.27-.55-.27-1v-2.09h-.59v-.53h.59v-.71l.68-.21Z"/>
      <path class="cls-17" d="M357.59,86.23c0,.24-.17,.43-.44,.43-.25,0-.42-.19-.42-.43s.17-.44,.44-.44,.43,.19,.43,.44Zm-.78,4.91v-3.83h.7v3.83h-.7Z"/>
      <path class="cls-17" d="M359.05,89.35c.02,.94,.61,1.33,1.31,1.33,.5,0,.81-.09,1.06-.2l.13,.5c-.25,.11-.67,.25-1.28,.25-1.18,0-1.88-.78-1.88-1.94s.68-2.06,1.8-2.06c1.26,0,1.58,1.09,1.58,1.8,0,.14,0,.25-.02,.33h-2.69Zm2.04-.5c0-.44-.18-1.12-.97-1.12-.71,0-1.01,.64-1.07,1.12h2.04Z"/>
      <path class="cls-17" d="M362.54,90.44c.21,.13,.58,.27,.93,.27,.5,0,.74-.25,.74-.57s-.2-.51-.71-.7c-.7-.25-1.02-.62-1.02-1.08,0-.62,.51-1.12,1.32-1.12,.39,0,.73,.1,.93,.24l-.17,.51c-.15-.09-.43-.23-.78-.23-.41,0-.63,.24-.63,.52,0,.32,.22,.46,.72,.66,.66,.25,1.01,.58,1.01,1.15,0,.68-.53,1.16-1.43,1.16-.42,0-.81-.11-1.08-.27l.17-.52Z"/>
      <path class="cls-17" d="M370.92,89.19c0,1.42-.99,2.04-1.91,2.04-1.03,0-1.84-.76-1.84-1.97,0-1.28,.85-2.03,1.9-2.03s1.85,.8,1.85,1.96Zm-3.03,.04c0,.84,.48,1.47,1.16,1.47s1.16-.62,1.16-1.49c0-.65-.32-1.47-1.15-1.47s-1.17,.76-1.17,1.48Z"/>
      <path class="cls-17" d="M371.88,91.14v-3.3h-.53v-.53h.53v-.18c0-.54,.13-1.03,.44-1.34,.26-.25,.61-.36,.93-.36,.25,0,.46,.06,.59,.11l-.09,.54c-.1-.05-.24-.09-.44-.09-.59,0-.75,.51-.75,1.11v.21h.93v.53h-.93v3.3h-.69Z"/>
      <path class="cls-17" d="M259.74,97.86c0-.4-.02-.72-.03-1.04h.61l.03,.63h.02c.21-.37,.57-.71,1.21-.71,.52,0,.91,.32,1.08,.77h.02c.12-.22,.28-.38,.44-.5,.23-.17,.47-.27,.84-.27,.51,0,1.27,.33,1.27,1.66v2.25h-.68v-2.16c0-.74-.28-1.18-.83-1.18-.4,0-.71,.29-.83,.62-.03,.1-.05,.22-.05,.35v2.37h-.68v-2.3c0-.61-.27-1.04-.8-1.04-.43,0-.75,.35-.86,.7-.04,.09-.06,.22-.06,.34v2.3h-.68v-2.79Z"/>
      <path class="cls-17" d="M269.81,98.7c0,1.42-.99,2.04-1.91,2.04-1.03,0-1.84-.76-1.84-1.97,0-1.28,.85-2.03,1.9-2.03s1.85,.8,1.85,1.96Zm-3.03,.04c0,.84,.48,1.47,1.16,1.47s1.16-.62,1.16-1.49c0-.65-.32-1.47-1.15-1.47s-1.17,.76-1.17,1.48Z"/>
      <path class="cls-17" d="M274,95.03v4.63c0,.34,.02,.73,.03,.99h-.62l-.03-.67h-.02c-.21,.43-.67,.75-1.29,.75-.93,0-1.65-.78-1.65-1.95,0-1.28,.79-2.05,1.72-2.05,.59,0,.98,.28,1.16,.58h.02v-2.29h.69Zm-.69,3.35c0-.09,0-.21-.03-.29-.1-.44-.48-.8-1.01-.8-.72,0-1.15,.63-1.15,1.47,0,.78,.39,1.42,1.13,1.42,.47,0,.89-.32,1.02-.83,.02-.1,.03-.19,.03-.3v-.67Z"/>
      <path class="cls-17" d="M275.55,98.86c.02,.94,.61,1.33,1.31,1.33,.5,0,.81-.09,1.06-.2l.13,.5c-.25,.11-.67,.25-1.28,.25-1.18,0-1.88-.78-1.88-1.94s.68-2.06,1.8-2.06c1.26,0,1.58,1.09,1.58,1.8,0,.14,0,.25-.02,.33h-2.69Zm2.04-.5c0-.44-.18-1.12-.97-1.12-.71,0-1.01,.64-1.07,1.12h2.04Z"/>
      <path class="cls-17" d="M279.14,95.03h.7v5.62h-.7v-5.62Z"/>
      <path class="cls-17" d="M280.91,99.95c.21,.13,.58,.27,.93,.27,.5,0,.74-.25,.74-.57s-.2-.51-.71-.7c-.7-.25-1.02-.62-1.02-1.08,0-.62,.51-1.12,1.32-1.12,.39,0,.73,.1,.93,.24l-.17,.51c-.15-.09-.43-.23-.78-.23-.41,0-.63,.24-.63,.52,0,.32,.22,.46,.72,.66,.66,.25,1.01,.58,1.01,1.15,0,.68-.53,1.16-1.43,1.16-.42,0-.81-.11-1.08-.27l.17-.52Z"/>
      <path class="cls-17" d="M285.82,98.01c0-.45,0-.84-.03-1.2h.61l.03,.76h.02c.17-.52,.6-.84,1.07-.84,.07,0,.13,0,.19,.02v.66c-.07-.02-.14-.02-.24-.02-.49,0-.84,.36-.93,.89-.02,.09-.02,.21-.02,.32v2.04h-.7v-2.64Z"/>
      <path class="cls-17" d="M288.72,98.86c.02,.94,.61,1.33,1.31,1.33,.5,0,.81-.09,1.06-.2l.13,.5c-.25,.11-.67,.25-1.28,.25-1.18,0-1.88-.78-1.88-1.94s.68-2.06,1.8-2.06c1.26,0,1.58,1.09,1.58,1.8,0,.14,0,.25-.02,.33h-2.69Zm2.04-.5c0-.44-.18-1.12-.97-1.12-.71,0-1.01,.64-1.07,1.12h2.04Z"/>
      <path class="cls-17" d="M292.31,95.03h.7v5.62h-.7v-5.62Z"/>
      <path class="cls-17" d="M296.87,99.73c0,.33,.02,.66,.06,.92h-.63l-.05-.48h-.02c-.21,.3-.62,.57-1.17,.57-.78,0-1.17-.55-1.17-1.1,0-.93,.82-1.43,2.3-1.43v-.08c0-.31-.09-.89-.87-.88-.36,0-.74,.1-1.01,.29l-.16-.47c.32-.2,.78-.33,1.27-.33,1.17,0,1.46,.8,1.46,1.56v1.43Zm-.67-1.04c-.76-.02-1.62,.12-1.62,.86,0,.46,.3,.67,.65,.67,.51,0,.83-.32,.94-.64,.02-.08,.03-.16,.03-.22v-.67Z"/>
      <path class="cls-17" d="M298.8,95.9v.92h1v.53h-1v2.07c0,.48,.13,.74,.52,.74,.19,0,.3-.02,.4-.05l.03,.53c-.13,.05-.35,.09-.62,.09-.32,0-.59-.11-.75-.29-.19-.21-.27-.55-.27-1v-2.09h-.59v-.53h.59v-.71l.68-.21Z"/>
      <path class="cls-17" d="M301.36,95.74c0,.24-.17,.43-.44,.43-.25,0-.42-.19-.42-.43s.17-.44,.44-.44,.43,.19,.43,.44Zm-.78,4.91v-3.83h.7v3.83h-.7Z"/>
      <path class="cls-17" d="M302.71,96.82l.75,2.15c.13,.36,.23,.67,.31,.99h.02c.09-.32,.2-.63,.32-.99l.74-2.15h.73l-1.5,3.83h-.67l-1.46-3.83h.75Z"/>
      <path class="cls-17" d="M306.56,98.86c.02,.94,.61,1.33,1.32,1.33,.5,0,.81-.09,1.06-.2l.13,.5c-.25,.11-.67,.25-1.28,.25-1.18,0-1.88-.78-1.88-1.94s.68-2.06,1.8-2.06c1.26,0,1.58,1.09,1.58,1.8,0,.14,0,.25-.02,.33h-2.69Zm2.04-.5c0-.44-.18-1.12-.97-1.12-.71,0-1.01,.64-1.07,1.12h2.04Z"/>
      <path class="cls-17" d="M312.66,95.9v.92h1v.53h-1v2.07c0,.48,.13,.74,.52,.74,.19,0,.3-.02,.4-.05l.03,.53c-.13,.05-.35,.09-.62,.09-.32,0-.59-.11-.75-.29-.19-.21-.27-.55-.27-1v-2.09h-.59v-.53h.59v-.71l.68-.21Z"/>
      <path class="cls-17" d="M317.87,98.7c0,1.42-.99,2.04-1.91,2.04-1.03,0-1.84-.76-1.84-1.97,0-1.28,.85-2.03,1.9-2.03s1.85,.8,1.85,1.96Zm-3.03,.04c0,.84,.48,1.47,1.16,1.47s1.16-.62,1.16-1.49c0-.65-.32-1.47-1.15-1.47s-1.17,.76-1.17,1.48Z"/>
      <path class="cls-17" d="M323.9,98.7c0,1.42-.99,2.04-1.91,2.04-1.03,0-1.84-.76-1.84-1.97,0-1.28,.85-2.03,1.9-2.03s1.85,.8,1.85,1.96Zm-3.03,.04c0,.84,.48,1.47,1.16,1.47s1.16-.62,1.16-1.49c0-.65-.32-1.47-1.15-1.47s-1.17,.76-1.17,1.48Z"/>
      <path class="cls-17" d="M325.62,95.9v.92h1v.53h-1v2.07c0,.48,.13,.74,.52,.74,.19,0,.3-.02,.4-.05l.03,.53c-.13,.05-.35,.09-.62,.09-.32,0-.59-.11-.75-.29-.19-.21-.27-.55-.27-1v-2.09h-.59v-.53h.59v-.71l.68-.21Z"/>
      <path class="cls-17" d="M327.4,95.03h.7v2.4h.02c.11-.2,.29-.38,.5-.5,.21-.12,.45-.19,.71-.19,.51,0,1.34,.32,1.34,1.63v2.28h-.7v-2.2c0-.62-.23-1.13-.89-1.13-.45,0-.8,.32-.93,.69-.04,.1-.05,.21-.05,.33v2.31h-.7v-5.62Z"/>
      <path class="cls-17" d="M332.19,98.86c.02,.94,.61,1.33,1.31,1.33,.5,0,.81-.09,1.06-.2l.13,.5c-.25,.11-.67,.25-1.28,.25-1.18,0-1.88-.78-1.88-1.94s.68-2.06,1.8-2.06c1.26,0,1.58,1.09,1.58,1.8,0,.14,0,.25-.02,.33h-2.69Zm2.04-.5c0-.44-.18-1.12-.97-1.12-.71,0-1.01,.64-1.07,1.12h2.04Z"/>
      <path class="cls-17" d="M335.77,98.01c0-.45,0-.84-.03-1.2h.61l.03,.76h.02c.17-.52,.6-.84,1.07-.84,.07,0,.13,0,.19,.02v.66c-.07-.02-.14-.02-.24-.02-.49,0-.84,.36-.93,.89-.02,.09-.02,.21-.02,.32v2.04h-.7v-2.64Z"/>
      <path class="cls-17" d="M342.78,100.52c-.18,.09-.59,.22-1.1,.22-1.16,0-1.91-.78-1.91-1.96s.81-2.04,2.06-2.04c.41,0,.78,.1,.97,.21l-.16,.53c-.17-.09-.43-.18-.81-.18-.88,0-1.35,.66-1.35,1.45,0,.89,.57,1.43,1.33,1.43,.4,0,.66-.1,.86-.18l.12,.52Z"/>
      <path class="cls-17" d="M346.29,99.73c0,.33,.02,.66,.06,.92h-.63l-.05-.48h-.02c-.21,.3-.62,.57-1.17,.57-.78,0-1.17-.55-1.17-1.1,0-.93,.82-1.43,2.3-1.43v-.08c0-.31-.09-.89-.87-.88-.36,0-.74,.1-1.01,.29l-.16-.47c.32-.2,.78-.33,1.27-.33,1.17,0,1.46,.8,1.46,1.56v1.43Zm-.67-1.04c-.76-.02-1.62,.12-1.62,.86,0,.46,.3,.67,.65,.67,.51,0,.83-.32,.94-.64,.02-.08,.03-.16,.03-.22v-.67Z"/>
      <path class="cls-17" d="M347.41,98.07c0-.49-.02-.89-.03-1.25h.62l.04,.66h.02c.28-.47,.74-.74,1.36-.74,.93,0,1.63,.78,1.63,1.94,0,1.38-.85,2.06-1.75,2.06-.51,0-.95-.22-1.18-.6h-.02v2.08h-.69v-4.15Zm.69,1.02c0,.1,0,.2,.03,.29,.13,.48,.55,.82,1.04,.82,.74,0,1.16-.6,1.16-1.48,0-.76-.4-1.42-1.14-1.42-.48,0-.93,.33-1.05,.86-.02,.09-.05,.19-.05,.28v.66Z"/>
      <path class="cls-17" d="M354.62,99.73c0,.33,.02,.66,.06,.92h-.63l-.05-.48h-.02c-.21,.3-.62,.57-1.17,.57-.78,0-1.17-.55-1.17-1.1,0-.93,.82-1.43,2.3-1.43v-.08c0-.31-.09-.89-.87-.88-.36,0-.74,.1-1.01,.29l-.16-.47c.32-.2,.78-.33,1.27-.33,1.17,0,1.46,.8,1.46,1.56v1.43Zm-.67-1.04c-.76-.02-1.62,.12-1.62,.86,0,.46,.3,.67,.65,.67,.51,0,.83-.32,.94-.64,.02-.08,.03-.16,.03-.22v-.67Z"/>
      <path class="cls-17" d="M355.74,95.03h.69v2.41h.02c.25-.43,.69-.7,1.31-.7,.96,0,1.62,.79,1.62,1.95,0,1.37-.87,2.05-1.73,2.05-.55,0-1-.21-1.29-.71h-.02l-.04,.62h-.59c.02-.26,.03-.65,.03-.99v-4.63Zm.69,4.09c0,.09,0,.17,.03,.25,.13,.48,.54,.82,1.04,.82,.74,0,1.16-.59,1.16-1.47,0-.77-.4-1.42-1.15-1.42-.47,0-.91,.33-1.05,.86-.02,.09-.04,.18-.04,.29v.68Z"/>
      <path class="cls-17" d="M361.03,95.74c0,.24-.17,.43-.44,.43-.25,0-.42-.19-.42-.43s.17-.44,.44-.44,.43,.19,.43,.44Zm-.78,4.91v-3.83h.7v3.83h-.7Z"/>
      <path class="cls-17" d="M362.11,95.03h.7v5.62h-.7v-5.62Z"/>
      <path class="cls-17" d="M364.75,95.74c0,.24-.17,.43-.44,.43-.25,0-.42-.19-.42-.43s.17-.44,.44-.44,.43,.19,.43,.44Zm-.78,4.91v-3.83h.7v3.83h-.7Z"/>
      <path class="cls-17" d="M366.67,95.9v.92h1v.53h-1v2.07c0,.48,.13,.74,.52,.74,.19,0,.3-.02,.4-.05l.03,.53c-.13,.05-.35,.09-.62,.09-.32,0-.59-.11-.75-.29-.19-.21-.27-.55-.27-1v-2.09h-.59v-.53h.59v-.71l.68-.21Z"/>
      <path class="cls-17" d="M369.23,95.74c0,.24-.17,.43-.44,.43-.25,0-.42-.19-.42-.43s.17-.44,.44-.44,.43,.19,.43,.44Zm-.78,4.91v-3.83h.7v3.83h-.7Z"/>
      <path class="cls-17" d="M370.7,98.86c.02,.94,.61,1.33,1.32,1.33,.5,0,.81-.09,1.06-.2l.13,.5c-.25,.11-.67,.25-1.28,.25-1.18,0-1.88-.78-1.88-1.94s.68-2.06,1.8-2.06c1.26,0,1.58,1.09,1.58,1.8,0,.14,0,.25-.02,.33h-2.69Zm2.04-.5c0-.44-.18-1.12-.97-1.12-.71,0-1.01,.64-1.07,1.12h2.04Z"/>
      <path class="cls-17" d="M374.18,99.95c.21,.13,.58,.27,.93,.27,.5,0,.74-.25,.74-.57s-.2-.51-.71-.7c-.7-.25-1.02-.62-1.02-1.08,0-.62,.51-1.12,1.32-1.12,.39,0,.73,.1,.93,.24l-.17,.51c-.15-.09-.43-.23-.78-.23-.41,0-.63,.24-.63,.52,0,.32,.22,.46,.72,.66,.66,.25,1.01,.58,1.01,1.15,0,.68-.53,1.16-1.43,1.16-.42,0-.81-.11-1.08-.27l.17-.52Z"/>
      <path class="cls-17" d="M377,101.61c.55-.78,.99-1.81,.99-3.23s-.43-2.43-.99-3.22h.54c.5,.65,1.04,1.67,1.04,3.22,0,1.55-.54,2.57-1.04,3.23h-.54Z"/>
    </g>
    <rect class="cls-18" x="176.91" y="94.87" width="71.39" height="9.98" rx="3.52" ry="3.52"/>
    <path class="cls-13" d="M215.82,97.01h-2.53l-.26,1.71c.15-.02,.3-.03,.54-.03,.52,0,1.02,.1,1.43,.36,.52,.29,.95,.87,.95,1.7,0,1.3-1.03,2.27-2.47,2.27-.72,0-1.33-.2-1.65-.41l.22-.68c.28,.16,.82,.37,1.43,.37,.84,0,1.57-.55,1.56-1.44,0-.86-.58-1.46-1.9-1.46-.39,0-.68,.03-.93,.06l.43-3.19h3.17v.76Z"/>
  </g>
</svg>